  0
SECTION
  2
HEADER
  9
$ANGBASE
  50
0.0
  9
$ANGDIR
  70
1
  9
$MEASUREMENT
  70
0
  9
$INSUNITS
  70
1
  0
ENDSEC
  0
SECTION
  2
TABLES
  0
TABLE
  2
LTYPE
  70
4
  0
LTYPE
  5
40F
  2
CONTINUOUS
  70
0
  3
Solid line
  72
65
  73
0
  40
0.0
  0
LTYPE
  5
410
  2
DASHDOT
 70
0
  3
Dash Dot ____ _ ____ _
 72
65
 73
4
 40
2.0
 49
1.25
 49
-0.25
 49
0.25
 49
-0.25
  0
LTYPE
  5
411
  2
DASHED
 70
0
  3
Dashed __ __ __ __ __
 72
65
 73
2
 40
0.75
 49
0.5
 49
-0.25
  0
LTYPE
  5
43B
  2
DOTTED
 70
0
  3
Dotted .  .  .  .
 72
65
 73
2
 40
0.2
 49
0.0
 49
-0.2
  0
ENDTAB
  0
TABLE
  2
STYLE
  70
4
  0
STYLE
  2
KICAD
  70
0
  40
0
  41
1
  42
1
  50
0
  71
0
  3
isocp.shx
  0
STYLE
  2
KICADB
  70
0
  40
0
  41
1
  42
1
  50
0
  71
0
  3
isocp.shx
  0
STYLE
  2
KICADI
  70
0
  40
0
  41
1
  42
1
  50
15
  71
0
  3
isocp.shx
  0
STYLE
  2
KICADBI
  70
0
  40
0
  41
1
  42
1
  50
15
  71
0
  3
isocp.shx
  0
ENDTAB
  0
TABLE
  2
LAYER
  70
2
  0
LAYER
  2
F.Cu
  70
0
  62
13
  420
13120564
  6
CONTINUOUS
  0
LAYER
  2
Edge.Cuts
  70
0
  62
254
  420
13685453
  6
CONTINUOUS
  0
ENDTAB
  0
ENDSEC
  0
SECTION
  2
ENTITIES
0
LINE
8
F.Cu
6
CONTINUOUS
10
6.1052058267716536
20
-3.2909231496062992
11
6.1109101181102359
21
-3.2932859448818896
0
LINE
8
F.Cu
6
CONTINUOUS
10
6.1109101181102359
20
-3.2932859448818896
11
6.1160438976377955
21
-3.2967162204724407
0
LINE
8
F.Cu
6
CONTINUOUS
10
6.1160438976377955
20
-3.2967162204724407
11
6.1204097637795272
21
-3.3010820866141732
0
LINE
8
F.Cu
6
CONTINUOUS
10
6.1204097637795272
20
-3.3010820866141732
11
6.1206074409448821
21
-3.3013779527559053
0
LINE
8
F.Cu
6
CONTINUOUS
10
6.1206074409448821
20
-3.3013779527559053
11
6.2738188976377955
21
-3.3013779527559053
0
LINE
8
F.Cu
6
CONTINUOUS
10
6.2738188976377955
20
-3.3013779527559053
11
6.2763877165354334
21
-3.3015463385826771
0
LINE
8
F.Cu
6
CONTINUOUS
10
6.2763877165354334
20
-3.3015463385826771
11
6.2763883070866138
21
-3.3015463385826771
0
LINE
8
F.Cu
6
CONTINUOUS
10
6.2763883070866138
20
-3.3015463385826771
11
6.281352047244094
21
-3.3028763779527557
0
LINE
8
F.Cu
6
CONTINUOUS
10
6.281352047244094
20
-3.3028763779527557
11
6.2858024015748031
21
-3.3054457874015748
0
LINE
8
F.Cu
6
CONTINUOUS
10
6.2858024015748031
20
-3.3054457874015748
11
6.2858029921259844
21
-3.3054463779527556
0
LINE
8
F.Cu
6
CONTINUOUS
10
6.2858029921259844
20
-3.3054463779527556
11
6.287738307086614
21
-3.3071435826771651
0
LINE
8
F.Cu
6
CONTINUOUS
10
6.287738307086614
20
-3.3071435826771651
11
6.7068327952755906
21
-3.726238031496063
0
LINE
8
F.Cu
6
CONTINUOUS
10
6.7068327952755906
20
-3.726238031496063
11
6.7085302362204722
21
-3.7281736220472439
0
LINE
8
F.Cu
6
CONTINUOUS
10
6.7085302362204722
20
-3.7281736220472439
11
6.7085305905511809
21
-3.7281739763779527
0
LINE
8
F.Cu
6
CONTINUOUS
10
6.7085305905511809
20
-3.7281739763779527
11
6.7095108267716537
21
-3.7298718110236218
0
LINE
8
F.Cu
6
CONTINUOUS
10
6.7095108267716537
20
-3.7298718110236218
11
6.7111000000000001
21
-3.7326243307086613
0
LINE
8
F.Cu
6
CONTINUOUS
10
6.7111000000000001
20
-3.7326243307086613
11
6.7124300393700782
21
-3.7375880708661415
0
LINE
8
F.Cu
6
CONTINUOUS
10
6.7124300393700782
20
-3.7375880708661415
11
6.7124300393700782
21
-3.7375886614173228
0
LINE
8
F.Cu
6
CONTINUOUS
10
6.7124300393700782
20
-3.7375886614173228
11
6.71259842519685
21
-3.7401574803149606
0
LINE
8
F.Cu
6
CONTINUOUS
10
6.71259842519685
20
-3.7401574803149606
11
6.71259842519685
21
-3.9370078740157481
0
LINE
8
F.Cu
6
CONTINUOUS
10
6.71259842519685
20
-3.9370078740157481
11
6.7124300393700782
21
-3.9395766535433072
0
LINE
8
F.Cu
6
CONTINUOUS
10
6.7124300393700782
20
-3.9395766535433072
11
6.7124300393700782
21
-3.9395772834645668
0
LINE
8
F.Cu
6
CONTINUOUS
10
6.7124300393700782
20
-3.9395772834645668
11
6.7121190944881892
21
-3.9407376771653544
0
LINE
8
F.Cu
6
CONTINUOUS
10
6.7121190944881892
20
-3.9407376771653544
11
6.7111000000000001
21
-3.9445410236220471
0
LINE
8
F.Cu
6
CONTINUOUS
10
6.7111000000000001
20
-3.9445410236220471
11
6.7085305905511809
21
-3.9489913779527557
0
LINE
8
F.Cu
6
CONTINUOUS
10
6.7085305905511809
20
-3.9489913779527557
11
6.7085299606299209
21
-3.948991968503937
0
LINE
8
F.Cu
6
CONTINUOUS
10
6.7085299606299209
20
-3.948991968503937
11
6.7068328346456694
21
-3.950927283464567
0
LINE
8
F.Cu
6
CONTINUOUS
10
6.7068328346456694
20
-3.950927283464567
11
6.5099824015748027
21
-4.1477776771653545
0
LINE
8
F.Cu
6
CONTINUOUS
10
6.5099824015748027
20
-4.1477776771653545
11
6.5080470866141731
21
-4.1494748425196848
0
LINE
8
F.Cu
6
CONTINUOUS
10
6.5080470866141731
20
-4.1494748425196848
11
6.5080464960629918
21
-4.1494754724409448
0
LINE
8
F.Cu
6
CONTINUOUS
10
6.5080464960629918
20
-4.1494754724409448
11
6.5035961417322836
21
-4.1520448818897639
0
LINE
8
F.Cu
6
CONTINUOUS
10
6.5035961417322836
20
-4.1520448818897639
11
6.4986324015748034
21
-4.1533749212598421
0
LINE
8
F.Cu
6
CONTINUOUS
10
6.4986324015748034
20
-4.1533749212598421
11
6.4986318110236221
21
-4.1533749212598421
0
LINE
8
F.Cu
6
CONTINUOUS
10
6.4986318110236221
20
-4.1533749212598421
11
6.4960629921259843
21
-4.1535433070866139
0
LINE
8
F.Cu
6
CONTINUOUS
10
6.4960629921259843
20
-4.1535433070866139
11
6.3976377952755907
21
-4.1535433070866139
0
LINE
8
F.Cu
6
CONTINUOUS
10
6.3976377952755907
20
-4.1535433070866139
11
6.3950683858267716
21
-4.1533748818897633
0
LINE
8
F.Cu
6
CONTINUOUS
10
6.3950683858267716
20
-4.1533748818897633
11
6.3901046456692914
21
-4.1520448818897639
0
LINE
8
F.Cu
6
CONTINUOUS
10
6.3901046456692914
20
-4.1520448818897639
11
6.3856542913385823
21
-4.1494754724409448
0
LINE
8
F.Cu
6
CONTINUOUS
10
6.3856542913385823
20
-4.1494754724409448
11
6.3820205905511811
21
-4.1458417716535436
0
LINE
8
F.Cu
6
CONTINUOUS
10
6.3820205905511811
20
-4.1458417716535436
11
6.379451181102362
21
-4.1413914173228346
0
LINE
8
F.Cu
6
CONTINUOUS
10
6.379451181102362
20
-4.1413914173228346
11
6.3781211811023617
21
-4.1364276771653543
0
LINE
8
F.Cu
6
CONTINUOUS
10
6.3781211811023617
20
-4.1364276771653543
11
6.3781211811023617
21
-4.1312888582677161
0
LINE
8
F.Cu
6
CONTINUOUS
10
6.3781211811023617
20
-4.1312888582677161
11
6.379451181102362
21
-4.1263251181102358
0
LINE
8
F.Cu
6
CONTINUOUS
10
6.379451181102362
20
-4.1263251181102358
11
6.3820205905511811
21
-4.1218747637795277
0
LINE
8
F.Cu
6
CONTINUOUS
10
6.3820205905511811
20
-4.1218747637795277
11
6.3856542913385823
21
-4.1182410629921256
0
LINE
8
F.Cu
6
CONTINUOUS
10
6.3856542913385823
20
-4.1182410629921256
11
6.3901046456692914
21
-4.1156716535433073
0
LINE
8
F.Cu
6
CONTINUOUS
10
6.3901046456692914
20
-4.1156716535433073
11
6.3950683858267716
21
-4.1143416535433071
0
LINE
8
F.Cu
6
CONTINUOUS
10
6.3950683858267716
20
-4.1143416535433071
11
6.3976377952755907
21
-4.1141732283464565
0
LINE
8
F.Cu
6
CONTINUOUS
10
6.3976377952755907
20
-4.1141732283464565
11
6.4879092125984252
21
-4.1141732283464565
0
LINE
8
F.Cu
6
CONTINUOUS
10
6.4879092125984252
20
-4.1141732283464565
11
6.6732283464566926
21
-3.9288540551181104
0
LINE
8
F.Cu
6
CONTINUOUS
10
6.6732283464566926
20
-3.9288540551181104
11
6.6732283464566926
21
-3.7483112598425197
0
LINE
8
F.Cu
6
CONTINUOUS
10
6.6732283464566926
20
-3.7483112598425197
11
6.2656651181102365
21
-3.3407480314960627
0
LINE
8
F.Cu
6
CONTINUOUS
10
6.2656651181102365
20
-3.3407480314960627
11
6.1206074409448821
21
-3.3407480314960627
0
LINE
8
F.Cu
6
CONTINUOUS
10
6.1206074409448821
20
-3.3407480314960627
11
6.1204097637795272
21
-3.3410438976377952
0
LINE
8
F.Cu
6
CONTINUOUS
10
6.1204097637795272
20
-3.3410438976377952
11
6.1160438976377955
21
-3.3454097637795277
0
LINE
8
F.Cu
6
CONTINUOUS
10
6.1160438976377955
20
-3.3454097637795277
11
6.1109101181102359
21
-3.3488400393700788
0
LINE
8
F.Cu
6
CONTINUOUS
10
6.1109101181102359
20
-3.3488400393700788
11
6.1052058267716536
21
-3.3512028346456693
0
LINE
8
F.Cu
6
CONTINUOUS
10
6.1052058267716536
20
-3.3512028346456693
11
6.0991501574803149
21
-3.3524074015748031
0
LINE
8
F.Cu
6
CONTINUOUS
10
6.0991501574803149
20
-3.3524074015748031
11
6.0929758267716538
21
-3.3524074015748031
0
LINE
8
F.Cu
6
CONTINUOUS
10
6.0929758267716538
20
-3.3524074015748031
11
6.0869201574803151
21
-3.3512028346456693
0
LINE
8
F.Cu
6
CONTINUOUS
10
6.0869201574803151
20
-3.3512028346456693
11
6.0812158661417319
21
-3.3488400393700788
0
LINE
8
F.Cu
6
CONTINUOUS
10
6.0812158661417319
20
-3.3488400393700788
11
6.0760820866141731
21
-3.3454097637795277
0
LINE
8
F.Cu
6
CONTINUOUS
10
6.0760820866141731
20
-3.3454097637795277
11
6.0717162204724406
21
-3.3410438976377952
0
LINE
8
F.Cu
6
CONTINUOUS
10
6.0717162204724406
20
-3.3410438976377952
11
6.0682859448818895
21
-3.335910118110236
0
LINE
8
F.Cu
6
CONTINUOUS
10
6.0682859448818895
20
-3.335910118110236
11
6.0659231496062986
21
-3.3302058267716537
0
LINE
8
F.Cu
6
CONTINUOUS
10
6.0659231496062986
20
-3.3302058267716537
11
6.0647185826771652
21
-3.3241501574803149
0
LINE
8
F.Cu
6
CONTINUOUS
10
6.0647185826771652
20
-3.3241501574803149
11
6.0647185826771652
21
-3.3179758267716535
0
LINE
8
F.Cu
6
CONTINUOUS
10
6.0647185826771652
20
-3.3179758267716535
11
6.0659231496062986
21
-3.3119201574803148
0
LINE
8
F.Cu
6
CONTINUOUS
10
6.0659231496062986
20
-3.3119201574803148
11
6.0682859448818895
21
-3.306215866141732
0
LINE
8
F.Cu
6
CONTINUOUS
10
6.0682859448818895
20
-3.306215866141732
11
6.0717162204724406
21
-3.3010820866141732
0
LINE
8
F.Cu
6
CONTINUOUS
10
6.0717162204724406
20
-3.3010820866141732
11
6.0760820866141731
21
-3.2967162204724407
0
LINE
8
F.Cu
6
CONTINUOUS
10
6.0760820866141731
20
-3.2967162204724407
11
6.0812158661417319
21
-3.2932859448818896
0
LINE
8
F.Cu
6
CONTINUOUS
10
6.0812158661417319
20
-3.2932859448818896
11
6.0869201574803151
21
-3.2909231496062992
0
LINE
8
F.Cu
6
CONTINUOUS
10
6.0869201574803151
20
-3.2909231496062992
11
6.0929758267716538
21
-3.2897185826771653
0
LINE
8
F.Cu
6
CONTINUOUS
10
6.0929758267716538
20
-3.2897185826771653
11
6.0991501574803149
21
-3.2897185826771653
0
LINE
8
F.Cu
6
CONTINUOUS
10
6.0991501574803149
20
-3.2897185826771653
11
6.1052058267716536
21
-3.2909231496062992
0
LINE
8
F.Cu
6
CONTINUOUS
10
6.0067806299212601
20
-3.7100176377952754
11
6.0124849212598424
21
-3.7123804330708658
0
LINE
8
F.Cu
6
CONTINUOUS
10
6.0124849212598424
20
-3.7123804330708658
11
6.0176187007874011
21
-3.7158107086614174
0
LINE
8
F.Cu
6
CONTINUOUS
10
6.0176187007874011
20
-3.7158107086614174
11
6.0219845669291336
21
-3.7201765748031494
0
LINE
8
F.Cu
6
CONTINUOUS
10
6.0219845669291336
20
-3.7201765748031494
11
6.0254148425196847
21
-3.7253103543307087
0
LINE
8
F.Cu
6
CONTINUOUS
10
6.0254148425196847
20
-3.7253103543307087
11
6.0277776377952756
21
-3.7310146456692914
0
LINE
8
F.Cu
6
CONTINUOUS
10
6.0277776377952756
20
-3.7310146456692914
11
6.028982204724409
21
-3.7370703149606297
0
LINE
8
F.Cu
6
CONTINUOUS
10
6.028982204724409
20
-3.7370703149606297
11
6.028982204724409
21
-3.7432446456692912
0
LINE
8
F.Cu
6
CONTINUOUS
10
6.028982204724409
20
-3.7432446456692912
11
6.0277776377952756
21
-3.7493003149606299
0
LINE
8
F.Cu
6
CONTINUOUS
10
6.0277776377952756
20
-3.7493003149606299
11
6.0254148425196847
21
-3.7550046062992126
0
LINE
8
F.Cu
6
CONTINUOUS
10
6.0254148425196847
20
-3.7550046062992126
11
6.0219845669291336
21
-3.7601383858267714
0
LINE
8
F.Cu
6
CONTINUOUS
10
6.0219845669291336
20
-3.7601383858267714
11
6.0176187007874011
21
-3.7645042519685039
0
LINE
8
F.Cu
6
CONTINUOUS
10
6.0176187007874011
20
-3.7645042519685039
11
6.0173228346456691
21
-3.7647019291338584
0
LINE
8
F.Cu
6
CONTINUOUS
10
6.0173228346456691
20
-3.7647019291338584
11
6.0173228346456691
21
-3.9433070866141731
0
LINE
8
F.Cu
6
CONTINUOUS
10
6.0173228346456691
20
-3.9433070866141731
11
6.0171544488188973
21
-3.9458758661417321
0
LINE
8
F.Cu
6
CONTINUOUS
10
6.0171544488188973
20
-3.9458758661417321
11
6.0171544488188973
21
-3.9458764960629922
0
LINE
8
F.Cu
6
CONTINUOUS
10
6.0171544488188973
20
-3.9458764960629922
11
6.0163198031496066
21
-3.9489913385826769
0
LINE
8
F.Cu
6
CONTINUOUS
10
6.0163198031496066
20
-3.9489913385826769
11
6.0158244094488191
21
-3.9508402362204724
0
LINE
8
F.Cu
6
CONTINUOUS
10
6.0158244094488191
20
-3.9508402362204724
11
6.013255
21
-3.955290590551181
0
LINE
8
F.Cu
6
CONTINUOUS
10
6.013255
20
-3.955290590551181
11
6.01325468503937
21
-3.9552908661417323
0
LINE
8
F.Cu
6
CONTINUOUS
10
6.01325468503937
20
-3.9552908661417323
11
6.0115572440944884
21
-3.9572264960629919
0
LINE
8
F.Cu
6
CONTINUOUS
10
6.0115572440944884
20
-3.9572264960629919
11
5.8210060236220471
21
-4.1477776771653545
0
LINE
8
F.Cu
6
CONTINUOUS
10
5.8210060236220471
20
-4.1477776771653545
11
5.8190700787401575
21
-4.1494754330708661
0
LINE
8
F.Cu
6
CONTINUOUS
10
5.8190700787401575
20
-4.1494754330708661
11
5.8146197637795272
21
-4.1520448818897639
0
LINE
8
F.Cu
6
CONTINUOUS
10
5.8146197637795272
20
-4.1520448818897639
11
5.8096560236220469
21
-4.1533749212598421
0
LINE
8
F.Cu
6
CONTINUOUS
10
5.8096560236220469
20
-4.1533749212598421
11
5.8045172047244096
21
-4.1533749212598421
0
LINE
8
F.Cu
6
CONTINUOUS
10
5.8045172047244096
20
-4.1533749212598421
11
5.7995534645669293
21
-4.1520448818897639
0
LINE
8
F.Cu
6
CONTINUOUS
10
5.7995534645669293
20
-4.1520448818897639
11
5.795103149606299
21
-4.1494754330708661
0
LINE
8
F.Cu
6
CONTINUOUS
10
5.795103149606299
20
-4.1494754330708661
11
5.7914694488188978
21
-4.1458417322834649
0
LINE
8
F.Cu
6
CONTINUOUS
10
5.7914694488188978
20
-4.1458417322834649
11
5.7888999999999999
21
-4.1413914173228346
0
LINE
8
F.Cu
6
CONTINUOUS
10
5.7888999999999999
20
-4.1413914173228346
11
5.7875699606299209
21
-4.1364276771653543
0
LINE
8
F.Cu
6
CONTINUOUS
10
5.7875699606299209
20
-4.1364276771653543
11
5.7875699606299209
21
-4.1312888582677161
0
LINE
8
F.Cu
6
CONTINUOUS
10
5.7875699606299209
20
-4.1312888582677161
11
5.7888999999999999
21
-4.1263251181102358
0
LINE
8
F.Cu
6
CONTINUOUS
10
5.7888999999999999
20
-4.1263251181102358
11
5.7914694488188978
21
-4.1218748031496064
0
LINE
8
F.Cu
6
CONTINUOUS
10
5.7914694488188978
20
-4.1218748031496064
11
5.7931672047244094
21
-4.1199388582677168
0
LINE
8
F.Cu
6
CONTINUOUS
10
5.7931672047244094
20
-4.1199388582677168
11
5.9779527559055117
21
-3.9351532677165353
0
LINE
8
F.Cu
6
CONTINUOUS
10
5.9779527559055117
20
-3.9351532677165353
11
5.9779527559055117
21
-3.7647019291338584
0
LINE
8
F.Cu
6
CONTINUOUS
10
5.9779527559055117
20
-3.7647019291338584
11
5.9776568897637796
21
-3.7645042519685039
0
LINE
8
F.Cu
6
CONTINUOUS
10
5.9776568897637796
20
-3.7645042519685039
11
5.9732910236220471
21
-3.7601383858267714
0
LINE
8
F.Cu
6
CONTINUOUS
10
5.9732910236220471
20
-3.7601383858267714
11
5.969860748031496
21
-3.7550046062992126
0
LINE
8
F.Cu
6
CONTINUOUS
10
5.969860748031496
20
-3.7550046062992126
11
5.9674979527559051
21
-3.7493003149606299
0
LINE
8
F.Cu
6
CONTINUOUS
10
5.9674979527559051
20
-3.7493003149606299
11
5.9662933858267717
21
-3.7432446456692912
0
LINE
8
F.Cu
6
CONTINUOUS
10
5.9662933858267717
20
-3.7432446456692912
11
5.9662933858267717
21
-3.7370703149606297
0
LINE
8
F.Cu
6
CONTINUOUS
10
5.9662933858267717
20
-3.7370703149606297
11
5.9674979527559051
21
-3.7310146456692914
0
LINE
8
F.Cu
6
CONTINUOUS
10
5.9674979527559051
20
-3.7310146456692914
11
5.969860748031496
21
-3.7253103543307087
0
LINE
8
F.Cu
6
CONTINUOUS
10
5.969860748031496
20
-3.7253103543307087
11
5.9732910236220471
21
-3.7201765748031494
0
LINE
8
F.Cu
6
CONTINUOUS
10
5.9732910236220471
20
-3.7201765748031494
11
5.9776568897637796
21
-3.7158107086614174
0
LINE
8
F.Cu
6
CONTINUOUS
10
5.9776568897637796
20
-3.7158107086614174
11
5.9827906692913384
21
-3.7123804330708658
0
LINE
8
F.Cu
6
CONTINUOUS
10
5.9827906692913384
20
-3.7123804330708658
11
5.9884949606299207
21
-3.7100176377952754
0
LINE
8
F.Cu
6
CONTINUOUS
10
5.9884949606299207
20
-3.7100176377952754
11
5.9945506299212594
21
-3.7088130708661415
0
LINE
8
F.Cu
6
CONTINUOUS
10
5.9945506299212594
20
-3.7088130708661415
11
6.0007249606299213
21
-3.7088130708661415
0
LINE
8
F.Cu
6
CONTINUOUS
10
6.0007249606299213
20
-3.7088130708661415
11
6.0067806299212601
21
-3.7100176377952754
0
LINE
8
F.Cu
6
CONTINUOUS
10
6.400207204724409
20
-1.4568613385826772
11
6.4051709448818892
21
-1.458191338582677
0
LINE
8
F.Cu
6
CONTINUOUS
10
6.4051709448818892
20
-1.458191338582677
11
6.4096212992125983
21
-1.4607607480314961
0
LINE
8
F.Cu
6
CONTINUOUS
10
6.4096212992125983
20
-1.4607607480314961
11
6.4132549999999995
21
-1.4643944488188976
0
LINE
8
F.Cu
6
CONTINUOUS
10
6.4132549999999995
20
-1.4643944488188976
11
6.4158244094488186
21
-1.4688448031496062
0
LINE
8
F.Cu
6
CONTINUOUS
10
6.4158244094488186
20
-1.4688448031496062
11
6.4171544094488189
21
-1.4738085433070867
0
LINE
8
F.Cu
6
CONTINUOUS
10
6.4171544094488189
20
-1.4738085433070867
11
6.4171544094488189
21
-1.4789473622047244
0
LINE
8
F.Cu
6
CONTINUOUS
10
6.4171544094488189
20
-1.4789473622047244
11
6.4158244094488186
21
-1.4839111023622047
0
LINE
8
F.Cu
6
CONTINUOUS
10
6.4158244094488186
20
-1.4839111023622047
11
6.4132549999999995
21
-1.4883614566929133
0
LINE
8
F.Cu
6
CONTINUOUS
10
6.4132549999999995
20
-1.4883614566929133
11
6.4096212992125983
21
-1.491995157480315
0
LINE
8
F.Cu
6
CONTINUOUS
10
6.4096212992125983
20
-1.491995157480315
11
6.4051709448818892
21
-1.4945645669291339
0
LINE
8
F.Cu
6
CONTINUOUS
10
6.4051709448818892
20
-1.4945645669291339
11
6.400207204724409
21
-1.4958945669291339
0
LINE
8
F.Cu
6
CONTINUOUS
10
6.400207204724409
20
-1.4958945669291339
11
6.3976377952755907
21
-1.4960629921259843
0
LINE
8
F.Cu
6
CONTINUOUS
10
6.3976377952755907
20
-1.4960629921259843
11
5.519964842519685
21
-1.4960629921259843
0
LINE
8
F.Cu
6
CONTINUOUS
10
5.519964842519685
20
-1.4960629921259843
11
5.4120078740157478
21
-1.6040199212598425
0
LINE
8
F.Cu
6
CONTINUOUS
10
5.4120078740157478
20
-1.6040199212598425
11
5.4120078740157478
21
-1.8346456692913384
0
LINE
8
F.Cu
6
CONTINUOUS
10
5.4120078740157478
20
-1.8346456692913384
11
5.4277559055118108
21
-1.8346456692913384
0
LINE
8
F.Cu
6
CONTINUOUS
10
5.4277559055118108
20
-1.8346456692913384
11
5.4277559055118108
21
-1.905511811023622
0
LINE
8
F.Cu
6
CONTINUOUS
10
5.4277559055118108
20
-1.905511811023622
11
5.4120078740157478
21
-1.905511811023622
0
LINE
8
F.Cu
6
CONTINUOUS
10
5.4120078740157478
20
-1.905511811023622
11
5.4120078740157478
21
-2.326771653543307
0
LINE
8
F.Cu
6
CONTINUOUS
10
5.4120078740157478
20
-2.326771653543307
11
5.4277559055118108
21
-2.326771653543307
0
LINE
8
F.Cu
6
CONTINUOUS
10
5.4277559055118108
20
-2.326771653543307
11
5.4277559055118108
21
-2.3976377952755903
0
LINE
8
F.Cu
6
CONTINUOUS
10
5.4277559055118108
20
-2.3976377952755903
11
5.4120078740157478
21
-2.3976377952755903
0
LINE
8
F.Cu
6
CONTINUOUS
10
5.4120078740157478
20
-2.3976377952755903
11
5.4120078740157478
21
-2.8454724409448819
0
LINE
8
F.Cu
6
CONTINUOUS
10
5.4120078740157478
20
-2.8454724409448819
11
5.4277559055118108
21
-2.8454724409448819
0
LINE
8
F.Cu
6
CONTINUOUS
10
5.4277559055118108
20
-2.8454724409448819
11
5.4277559055118108
21
-2.9163385826771653
0
LINE
8
F.Cu
6
CONTINUOUS
10
5.4277559055118108
20
-2.9163385826771653
11
5.4120078740157478
21
-2.9163385826771653
0
LINE
8
F.Cu
6
CONTINUOUS
10
5.4120078740157478
20
-2.9163385826771653
11
5.4120078740157478
21
-3.311023622047244
0
LINE
8
F.Cu
6
CONTINUOUS
10
5.4120078740157478
20
-3.311023622047244
11
5.4277559055118108
21
-3.311023622047244
0
LINE
8
F.Cu
6
CONTINUOUS
10
5.4277559055118108
20
-3.311023622047244
11
5.4277559055118108
21
-3.3818897637795273
0
LINE
8
F.Cu
6
CONTINUOUS
10
5.4277559055118108
20
-3.3818897637795273
11
5.4120078740157478
21
-3.3818897637795273
0
LINE
8
F.Cu
6
CONTINUOUS
10
5.4120078740157478
20
-3.3818897637795273
11
5.4120078740157478
21
-3.704724409448819
0
LINE
8
F.Cu
6
CONTINUOUS
10
5.4120078740157478
20
-3.704724409448819
11
5.4277559055118108
21
-3.704724409448819
0
LINE
8
F.Cu
6
CONTINUOUS
10
5.4277559055118108
20
-3.704724409448819
11
5.4277559055118108
21
-3.7755905511811023
0
LINE
8
F.Cu
6
CONTINUOUS
10
5.4277559055118108
20
-3.7755905511811023
11
5.3568897637795274
21
-3.7755905511811023
0
LINE
8
F.Cu
6
CONTINUOUS
10
5.3568897637795274
20
-3.7755905511811023
11
5.3568897637795274
21
-3.704724409448819
0
LINE
8
F.Cu
6
CONTINUOUS
10
5.3568897637795274
20
-3.704724409448819
11
5.3726377952755904
21
-3.704724409448819
0
LINE
8
F.Cu
6
CONTINUOUS
10
5.3726377952755904
20
-3.704724409448819
11
5.3726377952755904
21
-3.3818897637795273
0
LINE
8
F.Cu
6
CONTINUOUS
10
5.3726377952755904
20
-3.3818897637795273
11
5.3568897637795274
21
-3.3818897637795273
0
LINE
8
F.Cu
6
CONTINUOUS
10
5.3568897637795274
20
-3.3818897637795273
11
5.3568897637795274
21
-3.311023622047244
0
LINE
8
F.Cu
6
CONTINUOUS
10
5.3568897637795274
20
-3.311023622047244
11
5.3726377952755904
21
-3.311023622047244
0
LINE
8
F.Cu
6
CONTINUOUS
10
5.3726377952755904
20
-3.311023622047244
11
5.3726377952755904
21
-2.9163385826771653
0
LINE
8
F.Cu
6
CONTINUOUS
10
5.3726377952755904
20
-2.9163385826771653
11
5.3568897637795274
21
-2.9163385826771653
0
LINE
8
F.Cu
6
CONTINUOUS
10
5.3568897637795274
20
-2.9163385826771653
11
5.3568897637795274
21
-2.8454724409448819
0
LINE
8
F.Cu
6
CONTINUOUS
10
5.3568897637795274
20
-2.8454724409448819
11
5.3726377952755904
21
-2.8454724409448819
0
LINE
8
F.Cu
6
CONTINUOUS
10
5.3726377952755904
20
-2.8454724409448819
11
5.3726377952755904
21
-2.3976377952755903
0
LINE
8
F.Cu
6
CONTINUOUS
10
5.3726377952755904
20
-2.3976377952755903
11
5.3568897637795274
21
-2.3976377952755903
0
LINE
8
F.Cu
6
CONTINUOUS
10
5.3568897637795274
20
-2.3976377952755903
11
5.3568897637795274
21
-2.326771653543307
0
LINE
8
F.Cu
6
CONTINUOUS
10
5.3568897637795274
20
-2.326771653543307
11
5.3726377952755904
21
-2.326771653543307
0
LINE
8
F.Cu
6
CONTINUOUS
10
5.3726377952755904
20
-2.326771653543307
11
5.3726377952755904
21
-1.905511811023622
0
LINE
8
F.Cu
6
CONTINUOUS
10
5.3726377952755904
20
-1.905511811023622
11
5.3568897637795274
21
-1.905511811023622
0
LINE
8
F.Cu
6
CONTINUOUS
10
5.3568897637795274
20
-1.905511811023622
11
5.3568897637795274
21
-1.8346456692913384
0
LINE
8
F.Cu
6
CONTINUOUS
10
5.3568897637795274
20
-1.8346456692913384
11
5.3726377952755904
21
-1.8346456692913384
0
LINE
8
F.Cu
6
CONTINUOUS
10
5.3726377952755904
20
-1.8346456692913384
11
5.3726377952755904
21
-1.5958661417322835
0
LINE
8
F.Cu
6
CONTINUOUS
10
5.3726377952755904
20
-1.5958661417322835
11
5.3728061811023622
21
-1.5932973228346456
0
LINE
8
F.Cu
6
CONTINUOUS
10
5.3728061811023622
20
-1.5932973228346456
11
5.3728061811023622
21
-1.5932967322834646
0
LINE
8
F.Cu
6
CONTINUOUS
10
5.3728061811023622
20
-1.5932967322834646
11
5.3741362204724412
21
-1.5883329921259841
0
LINE
8
F.Cu
6
CONTINUOUS
10
5.3741362204724412
20
-1.5883329921259841
11
5.3767056299212594
21
-1.5838826377952755
0
LINE
8
F.Cu
6
CONTINUOUS
10
5.3767056299212594
20
-1.5838826377952755
11
5.3767062204724407
21
-1.5838820078740157
0
LINE
8
F.Cu
6
CONTINUOUS
10
5.3767062204724407
20
-1.5838820078740157
11
5.3784034251968507
21
-1.5819467322834646
0
LINE
8
F.Cu
6
CONTINUOUS
10
5.3784034251968507
20
-1.5819467322834646
11
5.4978915748031492
21
-1.4624585433070867
0
LINE
8
F.Cu
6
CONTINUOUS
10
5.4978915748031492
20
-1.4624585433070867
11
5.4998271653543309
21
-1.4607610629921259
0
LINE
8
F.Cu
6
CONTINUOUS
10
5.4998271653543309
20
-1.4607610629921259
11
5.4998275196850388
21
-1.4607607480314961
0
LINE
8
F.Cu
6
CONTINUOUS
10
5.4998275196850388
20
-1.4607607480314961
11
5.5042778740157479
21
-1.458191338582677
0
LINE
8
F.Cu
6
CONTINUOUS
10
5.5042778740157479
20
-1.458191338582677
11
5.5092416141732281
21
-1.4568612992125984
0
LINE
8
F.Cu
6
CONTINUOUS
10
5.5092416141732281
20
-1.4568612992125984
11
5.5092422047244094
21
-1.4568612992125984
0
LINE
8
F.Cu
6
CONTINUOUS
10
5.5092422047244094
20
-1.4568612992125984
11
5.5118110236220472
21
-1.4566929133858268
0
LINE
8
F.Cu
6
CONTINUOUS
10
5.5118110236220472
20
-1.4566929133858268
11
6.3976377952755907
21
-1.4566929133858268
0
LINE
8
F.Cu
6
CONTINUOUS
10
6.3976377952755907
20
-1.4566929133858268
11
6.400207204724409
21
-1.4568613385826772
0
LINE
8
F.Cu
6
CONTINUOUS
10
6.3411514960629916
20
-3.6615857086614172
11
6.3411520866141728
21
-3.6615857086614172
0
LINE
8
F.Cu
6
CONTINUOUS
10
6.3411520866141728
20
-3.6615857086614172
11
6.3461158267716531
21
-3.6629157480314958
0
LINE
8
F.Cu
6
CONTINUOUS
10
6.3461158267716531
20
-3.6629157480314958
11
6.3505661811023622
21
-3.6654851574803149
0
LINE
8
F.Cu
6
CONTINUOUS
10
6.3505661811023622
20
-3.6654851574803149
11
6.3505667716535434
21
-3.6654857480314962
0
LINE
8
F.Cu
6
CONTINUOUS
10
6.3505667716535434
20
-3.6654857480314962
11
6.352502086614173
21
-3.6671829527559052
0
LINE
8
F.Cu
6
CONTINUOUS
10
6.352502086614173
20
-3.6671829527559052
11
6.3942016141732285
21
-3.7088824803149607
0
LINE
8
F.Cu
6
CONTINUOUS
10
6.3942016141732285
20
-3.7088824803149607
11
6.3945506299212598
21
-3.7088130708661415
0
LINE
8
F.Cu
6
CONTINUOUS
10
6.3945506299212598
20
-3.7088130708661415
11
6.4007249606299208
21
-3.7088130708661415
0
LINE
8
F.Cu
6
CONTINUOUS
10
6.4007249606299208
20
-3.7088130708661415
11
6.4067806299212595
21
-3.7100176377952754
0
LINE
8
F.Cu
6
CONTINUOUS
10
6.4067806299212595
20
-3.7100176377952754
11
6.4124849212598427
21
-3.7123804330708658
0
LINE
8
F.Cu
6
CONTINUOUS
10
6.4124849212598427
20
-3.7123804330708658
11
6.4176187007874015
21
-3.7158107086614174
0
LINE
8
F.Cu
6
CONTINUOUS
10
6.4176187007874015
20
-3.7158107086614174
11
6.421984566929134
21
-3.7201765748031494
0
LINE
8
F.Cu
6
CONTINUOUS
10
6.421984566929134
20
-3.7201765748031494
11
6.4254148425196851
21
-3.7253103543307087
0
LINE
8
F.Cu
6
CONTINUOUS
10
6.4254148425196851
20
-3.7253103543307087
11
6.4277776377952751
21
-3.7310146456692914
0
LINE
8
F.Cu
6
CONTINUOUS
10
6.4277776377952751
20
-3.7310146456692914
11
6.4289822047244094
21
-3.7370703149606297
0
LINE
8
F.Cu
6
CONTINUOUS
10
6.4289822047244094
20
-3.7370703149606297
11
6.4289822047244094
21
-3.7432446456692912
0
LINE
8
F.Cu
6
CONTINUOUS
10
6.4289822047244094
20
-3.7432446456692912
11
6.4277776377952751
21
-3.7493003149606299
0
LINE
8
F.Cu
6
CONTINUOUS
10
6.4277776377952751
20
-3.7493003149606299
11
6.4254148425196851
21
-3.7550046062992126
0
LINE
8
F.Cu
6
CONTINUOUS
10
6.4254148425196851
20
-3.7550046062992126
11
6.421984566929134
21
-3.7601383858267714
0
LINE
8
F.Cu
6
CONTINUOUS
10
6.421984566929134
20
-3.7601383858267714
11
6.4176187007874015
21
-3.7645042519685039
0
LINE
8
F.Cu
6
CONTINUOUS
10
6.4176187007874015
20
-3.7645042519685039
11
6.4124849212598427
21
-3.767934527559055
0
LINE
8
F.Cu
6
CONTINUOUS
10
6.4124849212598427
20
-3.767934527559055
11
6.4067806299212595
21
-3.7702973228346455
0
LINE
8
F.Cu
6
CONTINUOUS
10
6.4067806299212595
20
-3.7702973228346455
11
6.4007249606299208
21
-3.7715018897637793
0
LINE
8
F.Cu
6
CONTINUOUS
10
6.4007249606299208
20
-3.7715018897637793
11
6.3945506299212598
21
-3.7715018897637793
0
LINE
8
F.Cu
6
CONTINUOUS
10
6.3945506299212598
20
-3.7715018897637793
11
6.3884949606299211
21
-3.7702973228346455
0
LINE
8
F.Cu
6
CONTINUOUS
10
6.3884949606299211
20
-3.7702973228346455
11
6.3827906692913388
21
-3.767934527559055
0
LINE
8
F.Cu
6
CONTINUOUS
10
6.3827906692913388
20
-3.767934527559055
11
6.3776568897637791
21
-3.7645042519685039
0
LINE
8
F.Cu
6
CONTINUOUS
10
6.3776568897637791
20
-3.7645042519685039
11
6.3732910236220475
21
-3.7601383858267714
0
LINE
8
F.Cu
6
CONTINUOUS
10
6.3732910236220475
20
-3.7601383858267714
11
6.3698607480314955
21
-3.7550046062992126
0
LINE
8
F.Cu
6
CONTINUOUS
10
6.3698607480314955
20
-3.7550046062992126
11
6.3674979527559055
21
-3.7493003149606299
0
LINE
8
F.Cu
6
CONTINUOUS
10
6.3674979527559055
20
-3.7493003149606299
11
6.3662933858267712
21
-3.7432446456692912
0
LINE
8
F.Cu
6
CONTINUOUS
10
6.3662933858267712
20
-3.7432446456692912
11
6.3662933858267712
21
-3.7370703149606297
0
LINE
8
F.Cu
6
CONTINUOUS
10
6.3662933858267712
20
-3.7370703149606297
11
6.3663627952755908
21
-3.7367212992125984
0
LINE
8
F.Cu
6
CONTINUOUS
10
6.3663627952755908
20
-3.7367212992125984
11
6.3304288976377947
21
-3.7007874015748032
0
LINE
8
F.Cu
6
CONTINUOUS
10
6.3304288976377947
20
-3.7007874015748032
11
5.5595317716535435
21
-3.7007874015748032
0
LINE
8
F.Cu
6
CONTINUOUS
10
5.5595317716535435
20
-3.7007874015748032
11
5.5269298031496064
21
-3.7333892913385824
0
LINE
8
F.Cu
6
CONTINUOUS
10
5.5269298031496064
20
-3.7333892913385824
11
5.5275852755905515
21
-3.7366844488188975
0
LINE
8
F.Cu
6
CONTINUOUS
10
5.5275852755905515
20
-3.7366844488188975
11
5.5275852755905515
21
-3.7436305118110234
0
LINE
8
F.Cu
6
CONTINUOUS
10
5.5275852755905515
20
-3.7436305118110234
11
5.526230157480315
21
-3.7504431496062991
0
LINE
8
F.Cu
6
CONTINUOUS
10
5.526230157480315
20
-3.7504431496062991
11
5.5235720078740158
21
-3.7568605118110234
0
LINE
8
F.Cu
6
CONTINUOUS
10
5.5235720078740158
20
-3.7568605118110234
11
5.5197129527559055
21
-3.7626359842519683
0
LINE
8
F.Cu
6
CONTINUOUS
10
5.5197129527559055
20
-3.7626359842519683
11
5.5148013385826768
21
-3.7675475984251969
0
LINE
8
F.Cu
6
CONTINUOUS
10
5.5148013385826768
20
-3.7675475984251969
11
5.509025866141732
21
-3.7714066535433068
0
LINE
8
F.Cu
6
CONTINUOUS
10
5.509025866141732
20
-3.7714066535433068
11
5.5026085039370081
21
-3.774064803149606
0
LINE
8
F.Cu
6
CONTINUOUS
10
5.5026085039370081
20
-3.774064803149606
11
5.4957958661417319
21
-3.7754199212598425
0
LINE
8
F.Cu
6
CONTINUOUS
10
5.4957958661417319
20
-3.7754199212598425
11
5.4888498031496065
21
-3.7754199212598425
0
LINE
8
F.Cu
6
CONTINUOUS
10
5.4888498031496065
20
-3.7754199212598425
11
5.4820371653543303
21
-3.774064803149606
0
LINE
8
F.Cu
6
CONTINUOUS
10
5.4820371653543303
20
-3.774064803149606
11
5.4756198031496064
21
-3.7714066535433068
0
LINE
8
F.Cu
6
CONTINUOUS
10
5.4756198031496064
20
-3.7714066535433068
11
5.4698443307086615
21
-3.7675475984251969
0
LINE
8
F.Cu
6
CONTINUOUS
10
5.4698443307086615
20
-3.7675475984251969
11
5.4649327165354329
21
-3.7626359842519683
0
LINE
8
F.Cu
6
CONTINUOUS
10
5.4649327165354329
20
-3.7626359842519683
11
5.4610736614173225
21
-3.7568605118110234
0
LINE
8
F.Cu
6
CONTINUOUS
10
5.4610736614173225
20
-3.7568605118110234
11
5.4584155118110234
21
-3.7504431496062991
0
LINE
8
F.Cu
6
CONTINUOUS
10
5.4584155118110234
20
-3.7504431496062991
11
5.4570603937007869
21
-3.7436305118110234
0
LINE
8
F.Cu
6
CONTINUOUS
10
5.4570603937007869
20
-3.7436305118110234
11
5.4570603937007869
21
-3.7366844488188975
0
LINE
8
F.Cu
6
CONTINUOUS
10
5.4570603937007869
20
-3.7366844488188975
11
5.4584155118110234
21
-3.7298718110236218
0
LINE
8
F.Cu
6
CONTINUOUS
10
5.4584155118110234
20
-3.7298718110236218
11
5.4610736614173225
21
-3.7234544488188974
0
LINE
8
F.Cu
6
CONTINUOUS
10
5.4610736614173225
20
-3.7234544488188974
11
5.4649327165354329
21
-3.7176789763779525
0
LINE
8
F.Cu
6
CONTINUOUS
10
5.4649327165354329
20
-3.7176789763779525
11
5.4698443307086615
21
-3.7127673622047244
0
LINE
8
F.Cu
6
CONTINUOUS
10
5.4698443307086615
20
-3.7127673622047244
11
5.4756198031496064
21
-3.708908307086614
0
LINE
8
F.Cu
6
CONTINUOUS
10
5.4756198031496064
20
-3.708908307086614
11
5.4820371653543303
21
-3.7062501574803148
0
LINE
8
F.Cu
6
CONTINUOUS
10
5.4820371653543303
20
-3.7062501574803148
11
5.4888498031496065
21
-3.7048950393700788
0
LINE
8
F.Cu
6
CONTINUOUS
10
5.4888498031496065
20
-3.7048950393700788
11
5.4957958661417319
21
-3.7048950393700788
0
LINE
8
F.Cu
6
CONTINUOUS
10
5.4957958661417319
20
-3.7048950393700788
11
5.4990909842519686
21
-3.7055504724409447
0
LINE
8
F.Cu
6
CONTINUOUS
10
5.4990909842519686
20
-3.7055504724409447
11
5.5374585039370077
21
-3.6671829527559052
0
LINE
8
F.Cu
6
CONTINUOUS
10
5.5374585039370077
20
-3.6671829527559052
11
5.5393940944881885
21
-3.6654854724409449
0
LINE
8
F.Cu
6
CONTINUOUS
10
5.5393940944881885
20
-3.6654854724409449
11
5.5393944488188973
21
-3.6654851574803149
0
LINE
8
F.Cu
6
CONTINUOUS
10
5.5393944488188973
20
-3.6654851574803149
11
5.5438448031496064
21
-3.6629157480314958
0
LINE
8
F.Cu
6
CONTINUOUS
10
5.5438448031496064
20
-3.6629157480314958
11
5.5488085433070866
21
-3.6615857086614172
0
LINE
8
F.Cu
6
CONTINUOUS
10
5.5488085433070866
20
-3.6615857086614172
11
5.5488091338582679
21
-3.6615857086614172
0
LINE
8
F.Cu
6
CONTINUOUS
10
5.5488091338582679
20
-3.6615857086614172
11
5.5513779527559057
21
-3.6614173228346454
0
LINE
8
F.Cu
6
CONTINUOUS
10
5.5513779527559057
20
-3.6614173228346454
11
6.3385826771653546
21
-3.6614173228346454
0
LINE
8
F.Cu
6
CONTINUOUS
10
6.3385826771653546
20
-3.6614173228346454
11
6.3411514960629916
21
-3.6615857086614172
0
LINE
8
F.Cu
6
CONTINUOUS
10
6.1052058267716536
20
-2.8241908661417323
11
6.1109101181102359
21
-2.8265536614173228
0
LINE
8
F.Cu
6
CONTINUOUS
10
6.1109101181102359
20
-2.8265536614173228
11
6.1160438976377955
21
-2.8299839370078739
0
LINE
8
F.Cu
6
CONTINUOUS
10
6.1160438976377955
20
-2.8299839370078739
11
6.1204097637795272
21
-2.8343498031496064
0
LINE
8
F.Cu
6
CONTINUOUS
10
6.1204097637795272
20
-2.8343498031496064
11
6.1206074409448821
21
-2.8346456692913384
0
LINE
8
F.Cu
6
CONTINUOUS
10
6.1206074409448821
20
-2.8346456692913384
11
6.3976377952755907
21
-2.8346456692913384
0
LINE
8
F.Cu
6
CONTINUOUS
10
6.3976377952755907
20
-2.8346456692913384
11
6.4002066141732286
21
-2.8348140551181102
0
LINE
8
F.Cu
6
CONTINUOUS
10
6.4002066141732286
20
-2.8348140551181102
11
6.400207204724409
21
-2.8348140551181102
0
LINE
8
F.Cu
6
CONTINUOUS
10
6.400207204724409
20
-2.8348140551181102
11
6.4051709448818892
21
-2.8361440944881888
0
LINE
8
F.Cu
6
CONTINUOUS
10
6.4051709448818892
20
-2.8361440944881888
11
6.4096212992125983
21
-2.8387135039370079
0
LINE
8
F.Cu
6
CONTINUOUS
10
6.4096212992125983
20
-2.8387135039370079
11
6.4096218897637796
21
-2.8387140944881888
0
LINE
8
F.Cu
6
CONTINUOUS
10
6.4096218897637796
20
-2.8387140944881888
11
6.4115572047244092
21
-2.8404112992125983
0
LINE
8
F.Cu
6
CONTINUOUS
10
6.4115572047244092
20
-2.8404112992125983
11
6.8052580314960629
21
-3.2341120866141733
0
LINE
8
F.Cu
6
CONTINUOUS
10
6.8052580314960629
20
-3.2341120866141733
11
6.8069554724409445
21
-3.2360476771653541
0
LINE
8
F.Cu
6
CONTINUOUS
10
6.8069554724409445
20
-3.2360476771653541
11
6.8069557874015745
21
-3.2360479921259842
0
LINE
8
F.Cu
6
CONTINUOUS
10
6.8069557874015745
20
-3.2360479921259842
11
6.8095251968503936
21
-3.2404983464566928
0
LINE
8
F.Cu
6
CONTINUOUS
10
6.8095251968503936
20
-3.2404983464566928
11
6.8095251968503936
21
-3.2404983858267715
0
LINE
8
F.Cu
6
CONTINUOUS
10
6.8095251968503936
20
-3.2404983858267715
11
6.8108552362204726
21
-3.245462086614173
0
LINE
8
F.Cu
6
CONTINUOUS
10
6.8108552362204726
20
-3.245462086614173
11
6.8108552362204726
21
-3.2454626771653543
0
LINE
8
F.Cu
6
CONTINUOUS
10
6.8108552362204726
20
-3.2454626771653543
11
6.8110236220472435
21
-3.2480314960629921
0
LINE
8
F.Cu
6
CONTINUOUS
10
6.8110236220472435
20
-3.2480314960629921
11
6.8110236220472435
21
-3.4448818897637796
0
LINE
8
F.Cu
6
CONTINUOUS
10
6.8110236220472435
20
-3.4448818897637796
11
6.8108551968503939
21
-3.4474512992125983
0
LINE
8
F.Cu
6
CONTINUOUS
10
6.8108551968503939
20
-3.4474512992125983
11
6.8095251968503936
21
-3.4524150393700785
0
LINE
8
F.Cu
6
CONTINUOUS
10
6.8095251968503936
20
-3.4524150393700785
11
6.8069557874015745
21
-3.4568653937007872
0
LINE
8
F.Cu
6
CONTINUOUS
10
6.8069557874015745
20
-3.4568653937007872
11
6.8033220866141733
21
-3.4604990944881888
0
LINE
8
F.Cu
6
CONTINUOUS
10
6.8033220866141733
20
-3.4604990944881888
11
6.7988717322834642
21
-3.4630685039370079
0
LINE
8
F.Cu
6
CONTINUOUS
10
6.7988717322834642
20
-3.4630685039370079
11
6.793907992125984
21
-3.4643985039370078
0
LINE
8
F.Cu
6
CONTINUOUS
10
6.793907992125984
20
-3.4643985039370078
11
6.7887691732283466
21
-3.4643985039370078
0
LINE
8
F.Cu
6
CONTINUOUS
10
6.7887691732283466
20
-3.4643985039370078
11
6.7838054330708664
21
-3.4630685039370079
0
LINE
8
F.Cu
6
CONTINUOUS
10
6.7838054330708664
20
-3.4630685039370079
11
6.7793550787401573
21
-3.4604990944881888
0
LINE
8
F.Cu
6
CONTINUOUS
10
6.7793550787401573
20
-3.4604990944881888
11
6.7757213779527561
21
-3.4568653937007872
0
LINE
8
F.Cu
6
CONTINUOUS
10
6.7757213779527561
20
-3.4568653937007872
11
6.773151968503937
21
-3.4524150393700785
0
LINE
8
F.Cu
6
CONTINUOUS
10
6.773151968503937
20
-3.4524150393700785
11
6.7718219685039367
21
-3.4474512992125983
0
LINE
8
F.Cu
6
CONTINUOUS
10
6.7718219685039367
20
-3.4474512992125983
11
6.7716535433070861
21
-3.4448818897637796
0
LINE
8
F.Cu
6
CONTINUOUS
10
6.7716535433070861
20
-3.4448818897637796
11
6.7716535433070861
21
-3.2561852755905512
0
LINE
8
F.Cu
6
CONTINUOUS
10
6.7716535433070861
20
-3.2561852755905512
11
6.3894840157480317
21
-2.8740157480314958
0
LINE
8
F.Cu
6
CONTINUOUS
10
6.3894840157480317
20
-2.8740157480314958
11
6.1206074409448821
21
-2.8740157480314958
0
LINE
8
F.Cu
6
CONTINUOUS
10
6.1206074409448821
20
-2.8740157480314958
11
6.1204097637795272
21
-2.8743116141732283
0
LINE
8
F.Cu
6
CONTINUOUS
10
6.1204097637795272
20
-2.8743116141732283
11
6.1160438976377955
21
-2.8786774803149604
0
LINE
8
F.Cu
6
CONTINUOUS
10
6.1160438976377955
20
-2.8786774803149604
11
6.1109101181102359
21
-2.8821077559055119
0
LINE
8
F.Cu
6
CONTINUOUS
10
6.1109101181102359
20
-2.8821077559055119
11
6.1052058267716536
21
-2.8844705511811024
0
LINE
8
F.Cu
6
CONTINUOUS
10
6.1052058267716536
20
-2.8844705511811024
11
6.0991501574803149
21
-2.8856751181102362
0
LINE
8
F.Cu
6
CONTINUOUS
10
6.0991501574803149
20
-2.8856751181102362
11
6.0929758267716538
21
-2.8856751181102362
0
LINE
8
F.Cu
6
CONTINUOUS
10
6.0929758267716538
20
-2.8856751181102362
11
6.0869201574803151
21
-2.8844705511811024
0
LINE
8
F.Cu
6
CONTINUOUS
10
6.0869201574803151
20
-2.8844705511811024
11
6.0812158661417319
21
-2.8821077559055119
0
LINE
8
F.Cu
6
CONTINUOUS
10
6.0812158661417319
20
-2.8821077559055119
11
6.0760820866141731
21
-2.8786774803149604
0
LINE
8
F.Cu
6
CONTINUOUS
10
6.0760820866141731
20
-2.8786774803149604
11
6.0717162204724406
21
-2.8743116141732283
0
LINE
8
F.Cu
6
CONTINUOUS
10
6.0717162204724406
20
-2.8743116141732283
11
6.0682859448818895
21
-2.8691778346456691
0
LINE
8
F.Cu
6
CONTINUOUS
10
6.0682859448818895
20
-2.8691778346456691
11
6.0659231496062986
21
-2.8634735433070864
0
LINE
8
F.Cu
6
CONTINUOUS
10
6.0659231496062986
20
-2.8634735433070864
11
6.0647185826771652
21
-2.8574178740157481
0
LINE
8
F.Cu
6
CONTINUOUS
10
6.0647185826771652
20
-2.8574178740157481
11
6.0647185826771652
21
-2.8512435433070866
0
LINE
8
F.Cu
6
CONTINUOUS
10
6.0647185826771652
20
-2.8512435433070866
11
6.0659231496062986
21
-2.8451878740157479
0
LINE
8
F.Cu
6
CONTINUOUS
10
6.0659231496062986
20
-2.8451878740157479
11
6.0682859448818895
21
-2.8394835826771652
0
LINE
8
F.Cu
6
CONTINUOUS
10
6.0682859448818895
20
-2.8394835826771652
11
6.0717162204724406
21
-2.8343498031496064
0
LINE
8
F.Cu
6
CONTINUOUS
10
6.0717162204724406
20
-2.8343498031496064
11
6.0760820866141731
21
-2.8299839370078739
0
LINE
8
F.Cu
6
CONTINUOUS
10
6.0760820866141731
20
-2.8299839370078739
11
6.0812158661417319
21
-2.8265536614173228
0
LINE
8
F.Cu
6
CONTINUOUS
10
6.0812158661417319
20
-2.8265536614173228
11
6.0869201574803151
21
-2.8241908661417323
0
LINE
8
F.Cu
6
CONTINUOUS
10
6.0869201574803151
20
-2.8241908661417323
11
6.0929758267716538
21
-2.8229862992125985
0
LINE
8
F.Cu
6
CONTINUOUS
10
6.0929758267716538
20
-2.8229862992125985
11
6.0991501574803149
21
-2.8229862992125985
0
LINE
8
F.Cu
6
CONTINUOUS
10
6.0991501574803149
20
-2.8229862992125985
11
6.1052058267716536
21
-2.8241908661417323
0
LINE
8
F.Cu
6
CONTINUOUS
10
6.4256003149606293
20
-3.2285148425196848
11
6.4256009055118106
21
-3.2285148425196848
0
LINE
8
F.Cu
6
CONTINUOUS
10
6.4256009055118106
20
-3.2285148425196848
11
6.4305646456692909
21
-3.2298448818897638
0
LINE
8
F.Cu
6
CONTINUOUS
10
6.4305646456692909
20
-3.2298448818897638
11
6.4350149999999999
21
-3.2324142913385825
0
LINE
8
F.Cu
6
CONTINUOUS
10
6.4350149999999999
20
-3.2324142913385825
11
6.4350155905511812
21
-3.2324148818897638
0
LINE
8
F.Cu
6
CONTINUOUS
10
6.4350155905511812
20
-3.2324148818897638
11
6.4369509055118108
21
-3.2341120866141733
0
LINE
8
F.Cu
6
CONTINUOUS
10
6.4369509055118108
20
-3.2341120866141733
11
6.492626811023622
21
-3.2897879921259841
0
LINE
8
F.Cu
6
CONTINUOUS
10
6.492626811023622
20
-3.2897879921259841
11
6.4929758267716533
21
-3.2897185826771653
0
LINE
8
F.Cu
6
CONTINUOUS
10
6.4929758267716533
20
-3.2897185826771653
11
6.4991501574803152
21
-3.2897185826771653
0
LINE
8
F.Cu
6
CONTINUOUS
10
6.4991501574803152
20
-3.2897185826771653
11
6.505205826771653
21
-3.2909231496062992
0
LINE
8
F.Cu
6
CONTINUOUS
10
6.505205826771653
20
-3.2909231496062992
11
6.5109101181102362
21
-3.2932859448818896
0
LINE
8
F.Cu
6
CONTINUOUS
10
6.5109101181102362
20
-3.2932859448818896
11
6.516043897637795
21
-3.2967162204724407
0
LINE
8
F.Cu
6
CONTINUOUS
10
6.516043897637795
20
-3.2967162204724407
11
6.5204097637795275
21
-3.3010820866141732
0
LINE
8
F.Cu
6
CONTINUOUS
10
6.5204097637795275
20
-3.3010820866141732
11
6.5238400393700786
21
-3.306215866141732
0
LINE
8
F.Cu
6
CONTINUOUS
10
6.5238400393700786
20
-3.306215866141732
11
6.5262028346456695
21
-3.3119201574803148
0
LINE
8
F.Cu
6
CONTINUOUS
10
6.5262028346456695
20
-3.3119201574803148
11
6.5274074015748029
21
-3.3179758267716535
0
LINE
8
F.Cu
6
CONTINUOUS
10
6.5274074015748029
20
-3.3179758267716535
11
6.5274074015748029
21
-3.3241501574803149
0
LINE
8
F.Cu
6
CONTINUOUS
10
6.5274074015748029
20
-3.3241501574803149
11
6.5262028346456695
21
-3.3302058267716537
0
LINE
8
F.Cu
6
CONTINUOUS
10
6.5262028346456695
20
-3.3302058267716537
11
6.5238400393700786
21
-3.335910118110236
0
LINE
8
F.Cu
6
CONTINUOUS
10
6.5238400393700786
20
-3.335910118110236
11
6.5204097637795275
21
-3.3410438976377952
0
LINE
8
F.Cu
6
CONTINUOUS
10
6.5204097637795275
20
-3.3410438976377952
11
6.516043897637795
21
-3.3454097637795277
0
LINE
8
F.Cu
6
CONTINUOUS
10
6.516043897637795
20
-3.3454097637795277
11
6.5109101181102362
21
-3.3488400393700788
0
LINE
8
F.Cu
6
CONTINUOUS
10
6.5109101181102362
20
-3.3488400393700788
11
6.505205826771653
21
-3.3512028346456693
0
LINE
8
F.Cu
6
CONTINUOUS
10
6.505205826771653
20
-3.3512028346456693
11
6.4991501574803152
21
-3.3524074015748031
0
LINE
8
F.Cu
6
CONTINUOUS
10
6.4991501574803152
20
-3.3524074015748031
11
6.4929758267716533
21
-3.3524074015748031
0
LINE
8
F.Cu
6
CONTINUOUS
10
6.4929758267716533
20
-3.3524074015748031
11
6.4869201574803146
21
-3.3512028346456693
0
LINE
8
F.Cu
6
CONTINUOUS
10
6.4869201574803146
20
-3.3512028346456693
11
6.4812158661417323
21
-3.3488400393700788
0
LINE
8
F.Cu
6
CONTINUOUS
10
6.4812158661417323
20
-3.3488400393700788
11
6.4760820866141735
21
-3.3454097637795277
0
LINE
8
F.Cu
6
CONTINUOUS
10
6.4760820866141735
20
-3.3454097637795277
11
6.471716220472441
21
-3.3410438976377952
0
LINE
8
F.Cu
6
CONTINUOUS
10
6.471716220472441
20
-3.3410438976377952
11
6.4682859448818899
21
-3.335910118110236
0
LINE
8
F.Cu
6
CONTINUOUS
10
6.4682859448818899
20
-3.335910118110236
11
6.465923149606299
21
-3.3302058267716537
0
LINE
8
F.Cu
6
CONTINUOUS
10
6.465923149606299
20
-3.3302058267716537
11
6.4647185826771656
21
-3.3241501574803149
0
LINE
8
F.Cu
6
CONTINUOUS
10
6.4647185826771656
20
-3.3241501574803149
11
6.4647185826771656
21
-3.3179758267716535
0
LINE
8
F.Cu
6
CONTINUOUS
10
6.4647185826771656
20
-3.3179758267716535
11
6.4647879921259843
21
-3.3176268110236218
0
LINE
8
F.Cu
6
CONTINUOUS
10
6.4647879921259843
20
-3.3176268110236218
11
6.4148777165354325
21
-3.2677165354330708
0
LINE
8
F.Cu
6
CONTINUOUS
10
6.4148777165354325
20
-3.2677165354330708
11
5.5989018110236222
21
-3.2677165354330708
0
LINE
8
F.Cu
6
CONTINUOUS
10
5.5989018110236222
20
-3.2677165354330708
11
5.5269298031496064
21
-3.3396885039370079
0
LINE
8
F.Cu
6
CONTINUOUS
10
5.5269298031496064
20
-3.3396885039370079
11
5.5275852755905515
21
-3.3429836614173229
0
LINE
8
F.Cu
6
CONTINUOUS
10
5.5275852755905515
20
-3.3429836614173229
11
5.5275852755905515
21
-3.3499297244094488
0
LINE
8
F.Cu
6
CONTINUOUS
10
5.5275852755905515
20
-3.3499297244094488
11
5.526230157480315
21
-3.3567423622047246
0
LINE
8
F.Cu
6
CONTINUOUS
10
5.526230157480315
20
-3.3567423622047246
11
5.5235720078740158
21
-3.3631597244094489
0
LINE
8
F.Cu
6
CONTINUOUS
10
5.5235720078740158
20
-3.3631597244094489
11
5.5197129527559055
21
-3.3689351968503938
0
LINE
8
F.Cu
6
CONTINUOUS
10
5.5197129527559055
20
-3.3689351968503938
11
5.5148013385826768
21
-3.3738468110236219
0
LINE
8
F.Cu
6
CONTINUOUS
10
5.5148013385826768
20
-3.3738468110236219
11
5.509025866141732
21
-3.3777058661417323
0
LINE
8
F.Cu
6
CONTINUOUS
10
5.509025866141732
20
-3.3777058661417323
11
5.5026085039370081
21
-3.3803640157480315
0
LINE
8
F.Cu
6
CONTINUOUS
10
5.5026085039370081
20
-3.3803640157480315
11
5.4957958661417319
21
-3.3817191338582675
0
LINE
8
F.Cu
6
CONTINUOUS
10
5.4957958661417319
20
-3.3817191338582675
11
5.4888498031496065
21
-3.3817191338582675
0
LINE
8
F.Cu
6
CONTINUOUS
10
5.4888498031496065
20
-3.3817191338582675
11
5.4820371653543303
21
-3.3803640157480315
0
LINE
8
F.Cu
6
CONTINUOUS
10
5.4820371653543303
20
-3.3803640157480315
11
5.4756198031496064
21
-3.3777058661417323
0
LINE
8
F.Cu
6
CONTINUOUS
10
5.4756198031496064
20
-3.3777058661417323
11
5.4698443307086615
21
-3.3738468110236219
0
LINE
8
F.Cu
6
CONTINUOUS
10
5.4698443307086615
20
-3.3738468110236219
11
5.4649327165354329
21
-3.3689351968503938
0
LINE
8
F.Cu
6
CONTINUOUS
10
5.4649327165354329
20
-3.3689351968503938
11
5.4610736614173225
21
-3.3631597244094489
0
LINE
8
F.Cu
6
CONTINUOUS
10
5.4610736614173225
20
-3.3631597244094489
11
5.4584155118110234
21
-3.3567423622047246
0
LINE
8
F.Cu
6
CONTINUOUS
10
5.4584155118110234
20
-3.3567423622047246
11
5.4570603937007869
21
-3.3499297244094488
0
LINE
8
F.Cu
6
CONTINUOUS
10
5.4570603937007869
20
-3.3499297244094488
11
5.4570603937007869
21
-3.3429836614173229
0
LINE
8
F.Cu
6
CONTINUOUS
10
5.4570603937007869
20
-3.3429836614173229
11
5.4584155118110234
21
-3.3361710236220472
0
LINE
8
F.Cu
6
CONTINUOUS
10
5.4584155118110234
20
-3.3361710236220472
11
5.4610736614173225
21
-3.3297536614173229
0
LINE
8
F.Cu
6
CONTINUOUS
10
5.4610736614173225
20
-3.3297536614173229
11
5.4649327165354329
21
-3.323978188976378
0
LINE
8
F.Cu
6
CONTINUOUS
10
5.4649327165354329
20
-3.323978188976378
11
5.4698443307086615
21
-3.3190665748031494
0
LINE
8
F.Cu
6
CONTINUOUS
10
5.4698443307086615
20
-3.3190665748031494
11
5.4756198031496064
21
-3.3152075196850395
0
LINE
8
F.Cu
6
CONTINUOUS
10
5.4756198031496064
20
-3.3152075196850395
11
5.4820371653543303
21
-3.3125493700787403
0
LINE
8
F.Cu
6
CONTINUOUS
10
5.4820371653543303
20
-3.3125493700787403
11
5.4888498031496065
21
-3.3111942519685038
0
LINE
8
F.Cu
6
CONTINUOUS
10
5.4888498031496065
20
-3.3111942519685038
11
5.4957958661417319
21
-3.3111942519685038
0
LINE
8
F.Cu
6
CONTINUOUS
10
5.4957958661417319
20
-3.3111942519685038
11
5.4990909842519686
21
-3.3118496850393702
0
LINE
8
F.Cu
6
CONTINUOUS
10
5.4990909842519686
20
-3.3118496850393702
11
5.5768286220472438
21
-3.2341120866141733
0
LINE
8
F.Cu
6
CONTINUOUS
10
5.5768286220472438
20
-3.2341120866141733
11
5.5787638976377956
21
-3.2324148818897638
0
LINE
8
F.Cu
6
CONTINUOUS
10
5.5787638976377956
20
-3.2324148818897638
11
5.5787645275590547
21
-3.2324142913385825
0
LINE
8
F.Cu
6
CONTINUOUS
10
5.5787645275590547
20
-3.2324142913385825
11
5.5832148818897638
21
-3.2298448818897638
0
LINE
8
F.Cu
6
CONTINUOUS
10
5.5832148818897638
20
-3.2298448818897638
11
5.588178622047244
21
-3.2285148425196848
0
LINE
8
F.Cu
6
CONTINUOUS
10
5.588178622047244
20
-3.2285148425196848
11
5.5881792125984253
21
-3.2285148425196848
0
LINE
8
F.Cu
6
CONTINUOUS
10
5.5881792125984253
20
-3.2285148425196848
11
5.5907480314960631
21
-3.2283464566929134
0
LINE
8
F.Cu
6
CONTINUOUS
10
5.5907480314960631
20
-3.2283464566929134
11
6.4230314960629924
21
-3.2283464566929134
0
LINE
8
F.Cu
6
CONTINUOUS
10
6.4230314960629924
20
-3.2283464566929134
11
6.4256003149606293
21
-3.2285148425196848
0
LINE
8
F.Cu
6
CONTINUOUS
10
6.1083554330708658
20
-2.3320648818897638
11
6.114059724409449
21
-2.3344276771653543
0
LINE
8
F.Cu
6
CONTINUOUS
10
6.114059724409449
20
-2.3344276771653543
11
6.1191935039370078
21
-2.3378579527559054
0
LINE
8
F.Cu
6
CONTINUOUS
10
6.1191935039370078
20
-2.3378579527559054
11
6.1235593700787403
21
-2.3422238188976379
0
LINE
8
F.Cu
6
CONTINUOUS
10
6.1235593700787403
20
-2.3422238188976379
11
6.1237570472440943
21
-2.3425196850393699
0
LINE
8
F.Cu
6
CONTINUOUS
10
6.1237570472440943
20
-2.3425196850393699
11
6.2992125984251963
21
-2.3425196850393699
0
LINE
8
F.Cu
6
CONTINUOUS
10
6.2992125984251963
20
-2.3425196850393699
11
6.3017814173228341
21
-2.3426880708661417
0
LINE
8
F.Cu
6
CONTINUOUS
10
6.3017814173228341
20
-2.3426880708661417
11
6.3017820078740154
21
-2.3426880708661417
0
LINE
8
F.Cu
6
CONTINUOUS
10
6.3017820078740154
20
-2.3426880708661417
11
6.3067457480314957
21
-2.3440181102362203
0
LINE
8
F.Cu
6
CONTINUOUS
10
6.3067457480314957
20
-2.3440181102362203
11
6.3111961023622047
21
-2.3465875196850394
0
LINE
8
F.Cu
6
CONTINUOUS
10
6.3111961023622047
20
-2.3465875196850394
11
6.311196692913386
21
-2.3465881102362203
0
LINE
8
F.Cu
6
CONTINUOUS
10
6.311196692913386
20
-2.3465881102362203
11
6.3131320078740156
21
-2.3482853149606298
0
LINE
8
F.Cu
6
CONTINUOUS
10
6.3131320078740156
20
-2.3482853149606298
11
6.9036831889763777
21
-2.9388364566929135
0
LINE
8
F.Cu
6
CONTINUOUS
10
6.9036831889763777
20
-2.9388364566929135
11
6.9053809448818892
21
-2.9407724015748031
0
LINE
8
F.Cu
6
CONTINUOUS
10
6.9053809448818892
20
-2.9407724015748031
11
6.9079503937007871
21
-2.9452227559055117
0
LINE
8
F.Cu
6
CONTINUOUS
10
6.9079503937007871
20
-2.9452227559055117
11
6.9092804330708661
21
-2.950186496062992
0
LINE
8
F.Cu
6
CONTINUOUS
10
6.9092804330708661
20
-2.950186496062992
11
6.9092804330708661
21
-2.9553253149606298
0
LINE
8
F.Cu
6
CONTINUOUS
10
6.9092804330708661
20
-2.9553253149606298
11
6.9079503937007871
21
-2.9602890157480313
0
LINE
8
F.Cu
6
CONTINUOUS
10
6.9079503937007871
20
-2.9602890157480313
11
6.9053809448818892
21
-2.9647393700787399
0
LINE
8
F.Cu
6
CONTINUOUS
10
6.9053809448818892
20
-2.9647393700787399
11
6.901747244094488
21
-2.9683730708661415
0
LINE
8
F.Cu
6
CONTINUOUS
10
6.901747244094488
20
-2.9683730708661415
11
6.897296889763779
21
-2.9709425196850394
0
LINE
8
F.Cu
6
CONTINUOUS
10
6.897296889763779
20
-2.9709425196850394
11
6.8923331889763775
21
-2.972272559055118
0
LINE
8
F.Cu
6
CONTINUOUS
10
6.8923331889763775
20
-2.972272559055118
11
6.8871943700787401
21
-2.972272559055118
0
LINE
8
F.Cu
6
CONTINUOUS
10
6.8871943700787401
20
-2.972272559055118
11
6.8822306299212599
21
-2.9709425196850394
0
LINE
8
F.Cu
6
CONTINUOUS
10
6.8822306299212599
20
-2.9709425196850394
11
6.8777802755905508
21
-2.9683730708661415
0
LINE
8
F.Cu
6
CONTINUOUS
10
6.8777802755905508
20
-2.9683730708661415
11
6.8758443307086612
21
-2.96667531496063
0
LINE
8
F.Cu
6
CONTINUOUS
10
6.8758443307086612
20
-2.96667531496063
11
6.2910588188976373
21
-2.3818897637795273
0
LINE
8
F.Cu
6
CONTINUOUS
10
6.2910588188976373
20
-2.3818897637795273
11
6.1237570472440943
21
-2.3818897637795273
0
LINE
8
F.Cu
6
CONTINUOUS
10
6.1237570472440943
20
-2.3818897637795273
11
6.1235593700787403
21
-2.3821856299212598
0
LINE
8
F.Cu
6
CONTINUOUS
10
6.1235593700787403
20
-2.3821856299212598
11
6.1191935039370078
21
-2.3865514960629919
0
LINE
8
F.Cu
6
CONTINUOUS
10
6.1191935039370078
20
-2.3865514960629919
11
6.114059724409449
21
-2.3899817716535434
0
LINE
8
F.Cu
6
CONTINUOUS
10
6.114059724409449
20
-2.3899817716535434
11
6.1083554330708658
21
-2.3923445669291339
0
LINE
8
F.Cu
6
CONTINUOUS
10
6.1083554330708658
20
-2.3923445669291339
11
6.1022997637795271
21
-2.3935491338582677
0
LINE
8
F.Cu
6
CONTINUOUS
10
6.1022997637795271
20
-2.3935491338582677
11
6.0961254330708661
21
-2.3935491338582677
0
LINE
8
F.Cu
6
CONTINUOUS
10
6.0961254330708661
20
-2.3935491338582677
11
6.0900697637795274
21
-2.3923445669291339
0
LINE
8
F.Cu
6
CONTINUOUS
10
6.0900697637795274
20
-2.3923445669291339
11
6.0843654724409451
21
-2.3899817716535434
0
LINE
8
F.Cu
6
CONTINUOUS
10
6.0843654724409451
20
-2.3899817716535434
11
6.0792316929133854
21
-2.3865514960629919
0
LINE
8
F.Cu
6
CONTINUOUS
10
6.0792316929133854
20
-2.3865514960629919
11
6.0748658267716538
21
-2.3821856299212598
0
LINE
8
F.Cu
6
CONTINUOUS
10
6.0748658267716538
20
-2.3821856299212598
11
6.0714355511811018
21
-2.3770518503937006
0
LINE
8
F.Cu
6
CONTINUOUS
10
6.0714355511811018
20
-2.3770518503937006
11
6.0690727559055118
21
-2.3713475590551178
0
LINE
8
F.Cu
6
CONTINUOUS
10
6.0690727559055118
20
-2.3713475590551178
11
6.0678681889763775
21
-2.3652918897637796
0
LINE
8
F.Cu
6
CONTINUOUS
10
6.0678681889763775
20
-2.3652918897637796
11
6.0678681889763775
21
-2.3591175590551181
0
LINE
8
F.Cu
6
CONTINUOUS
10
6.0678681889763775
20
-2.3591175590551181
11
6.0690727559055118
21
-2.3530618897637794
0
LINE
8
F.Cu
6
CONTINUOUS
10
6.0690727559055118
20
-2.3530618897637794
11
6.0714355511811018
21
-2.3473575984251966
0
LINE
8
F.Cu
6
CONTINUOUS
10
6.0714355511811018
20
-2.3473575984251966
11
6.0748658267716538
21
-2.3422238188976379
0
LINE
8
F.Cu
6
CONTINUOUS
10
6.0748658267716538
20
-2.3422238188976379
11
6.0792316929133854
21
-2.3378579527559054
0
LINE
8
F.Cu
6
CONTINUOUS
10
6.0792316929133854
20
-2.3378579527559054
11
6.0843654724409451
21
-2.3344276771653543
0
LINE
8
F.Cu
6
CONTINUOUS
10
6.0843654724409451
20
-2.3344276771653543
11
6.0900697637795274
21
-2.3320648818897638
0
LINE
8
F.Cu
6
CONTINUOUS
10
6.0900697637795274
20
-2.3320648818897638
11
6.0961254330708661
21
-2.33086031496063
0
LINE
8
F.Cu
6
CONTINUOUS
10
6.0961254330708661
20
-2.33086031496063
11
6.1022997637795271
21
-2.33086031496063
0
LINE
8
F.Cu
6
CONTINUOUS
10
6.1022997637795271
20
-2.33086031496063
11
6.1083554330708658
21
-2.3320648818897638
0
LINE
8
F.Cu
6
CONTINUOUS
10
6.4002066141732286
20
-2.7363888582677163
11
6.400207204724409
21
-2.7363888582677163
0
LINE
8
F.Cu
6
CONTINUOUS
10
6.400207204724409
20
-2.7363888582677163
11
6.4051709448818892
21
-2.7377188976377953
0
LINE
8
F.Cu
6
CONTINUOUS
10
6.4051709448818892
20
-2.7377188976377953
11
6.4096212992125983
21
-2.740288307086614
0
LINE
8
F.Cu
6
CONTINUOUS
10
6.4096212992125983
20
-2.740288307086614
11
6.4096218897637796
21
-2.7402888976377953
0
LINE
8
F.Cu
6
CONTINUOUS
10
6.4096218897637796
20
-2.7402888976377953
11
6.4115572047244092
21
-2.7419861023622047
0
LINE
8
F.Cu
6
CONTINUOUS
10
6.4115572047244092
20
-2.7419861023622047
11
6.492626811023622
21
-2.8230557086614172
0
LINE
8
F.Cu
6
CONTINUOUS
10
6.492626811023622
20
-2.8230557086614172
11
6.4929758267716533
21
-2.8229862992125985
0
LINE
8
F.Cu
6
CONTINUOUS
10
6.4929758267716533
20
-2.8229862992125985
11
6.4991501574803152
21
-2.8229862992125985
0
LINE
8
F.Cu
6
CONTINUOUS
10
6.4991501574803152
20
-2.8229862992125985
11
6.505205826771653
21
-2.8241908661417323
0
LINE
8
F.Cu
6
CONTINUOUS
10
6.505205826771653
20
-2.8241908661417323
11
6.5109101181102362
21
-2.8265536614173228
0
LINE
8
F.Cu
6
CONTINUOUS
10
6.5109101181102362
20
-2.8265536614173228
11
6.516043897637795
21
-2.8299839370078739
0
LINE
8
F.Cu
6
CONTINUOUS
10
6.516043897637795
20
-2.8299839370078739
11
6.5204097637795275
21
-2.8343498031496064
0
LINE
8
F.Cu
6
CONTINUOUS
10
6.5204097637795275
20
-2.8343498031496064
11
6.5238400393700786
21
-2.8394835826771652
0
LINE
8
F.Cu
6
CONTINUOUS
10
6.5238400393700786
20
-2.8394835826771652
11
6.5262028346456695
21
-2.8451878740157479
0
LINE
8
F.Cu
6
CONTINUOUS
10
6.5262028346456695
20
-2.8451878740157479
11
6.5274074015748029
21
-2.8512435433070866
0
LINE
8
F.Cu
6
CONTINUOUS
10
6.5274074015748029
20
-2.8512435433070866
11
6.5274074015748029
21
-2.8574178740157481
0
LINE
8
F.Cu
6
CONTINUOUS
10
6.5274074015748029
20
-2.8574178740157481
11
6.5262028346456695
21
-2.8634735433070864
0
LINE
8
F.Cu
6
CONTINUOUS
10
6.5262028346456695
20
-2.8634735433070864
11
6.5238400393700786
21
-2.8691778346456691
0
LINE
8
F.Cu
6
CONTINUOUS
10
6.5238400393700786
20
-2.8691778346456691
11
6.5204097637795275
21
-2.8743116141732283
0
LINE
8
F.Cu
6
CONTINUOUS
10
6.5204097637795275
20
-2.8743116141732283
11
6.516043897637795
21
-2.8786774803149604
0
LINE
8
F.Cu
6
CONTINUOUS
10
6.516043897637795
20
-2.8786774803149604
11
6.5109101181102362
21
-2.8821077559055119
0
LINE
8
F.Cu
6
CONTINUOUS
10
6.5109101181102362
20
-2.8821077559055119
11
6.505205826771653
21
-2.8844705511811024
0
LINE
8
F.Cu
6
CONTINUOUS
10
6.505205826771653
20
-2.8844705511811024
11
6.4991501574803152
21
-2.8856751181102362
0
LINE
8
F.Cu
6
CONTINUOUS
10
6.4991501574803152
20
-2.8856751181102362
11
6.4929758267716533
21
-2.8856751181102362
0
LINE
8
F.Cu
6
CONTINUOUS
10
6.4929758267716533
20
-2.8856751181102362
11
6.4869201574803146
21
-2.8844705511811024
0
LINE
8
F.Cu
6
CONTINUOUS
10
6.4869201574803146
20
-2.8844705511811024
11
6.4812158661417323
21
-2.8821077559055119
0
LINE
8
F.Cu
6
CONTINUOUS
10
6.4812158661417323
20
-2.8821077559055119
11
6.4760820866141735
21
-2.8786774803149604
0
LINE
8
F.Cu
6
CONTINUOUS
10
6.4760820866141735
20
-2.8786774803149604
11
6.471716220472441
21
-2.8743116141732283
0
LINE
8
F.Cu
6
CONTINUOUS
10
6.471716220472441
20
-2.8743116141732283
11
6.4682859448818899
21
-2.8691778346456691
0
LINE
8
F.Cu
6
CONTINUOUS
10
6.4682859448818899
20
-2.8691778346456691
11
6.465923149606299
21
-2.8634735433070864
0
LINE
8
F.Cu
6
CONTINUOUS
10
6.465923149606299
20
-2.8634735433070864
11
6.4647185826771656
21
-2.8574178740157481
0
LINE
8
F.Cu
6
CONTINUOUS
10
6.4647185826771656
20
-2.8574178740157481
11
6.4647185826771656
21
-2.8512435433070866
0
LINE
8
F.Cu
6
CONTINUOUS
10
6.4647185826771656
20
-2.8512435433070866
11
6.4647879921259843
21
-2.8508945275590549
0
LINE
8
F.Cu
6
CONTINUOUS
10
6.4647879921259843
20
-2.8508945275590549
11
6.3894840157480317
21
-2.7755905511811023
0
LINE
8
F.Cu
6
CONTINUOUS
10
6.3894840157480317
20
-2.7755905511811023
11
5.6254766141732286
21
-2.7755905511811023
0
LINE
8
F.Cu
6
CONTINUOUS
10
5.6254766141732286
20
-2.7755905511811023
11
5.5269298031496064
21
-2.8741373228346454
0
LINE
8
F.Cu
6
CONTINUOUS
10
5.5269298031496064
20
-2.8741373228346454
11
5.5275852755905515
21
-2.8774324803149605
0
LINE
8
F.Cu
6
CONTINUOUS
10
5.5275852755905515
20
-2.8774324803149605
11
5.5275852755905515
21
-2.8843785433070868
0
LINE
8
F.Cu
6
CONTINUOUS
10
5.5275852755905515
20
-2.8843785433070868
11
5.526230157480315
21
-2.8911911811023621
0
LINE
8
F.Cu
6
CONTINUOUS
10
5.526230157480315
20
-2.8911911811023621
11
5.5235720078740158
21
-2.8976085433070864
0
LINE
8
F.Cu
6
CONTINUOUS
10
5.5235720078740158
20
-2.8976085433070864
11
5.5197129527559055
21
-2.9033840157480313
0
LINE
8
F.Cu
6
CONTINUOUS
10
5.5197129527559055
20
-2.9033840157480313
11
5.5148013385826768
21
-2.9082956299212599
0
LINE
8
F.Cu
6
CONTINUOUS
10
5.5148013385826768
20
-2.9082956299212599
11
5.509025866141732
21
-2.9121546850393698
0
LINE
8
F.Cu
6
CONTINUOUS
10
5.509025866141732
20
-2.9121546850393698
11
5.5026085039370081
21
-2.9148128346456694
0
LINE
8
F.Cu
6
CONTINUOUS
10
5.5026085039370081
20
-2.9148128346456694
11
5.4957958661417319
21
-2.9161679527559055
0
LINE
8
F.Cu
6
CONTINUOUS
10
5.4957958661417319
20
-2.9161679527559055
11
5.4888498031496065
21
-2.9161679527559055
0
LINE
8
F.Cu
6
CONTINUOUS
10
5.4888498031496065
20
-2.9161679527559055
11
5.4820371653543303
21
-2.9148128346456694
0
LINE
8
F.Cu
6
CONTINUOUS
10
5.4820371653543303
20
-2.9148128346456694
11
5.4756198031496064
21
-2.9121546850393698
0
LINE
8
F.Cu
6
CONTINUOUS
10
5.4756198031496064
20
-2.9121546850393698
11
5.4698443307086615
21
-2.9082956299212599
0
LINE
8
F.Cu
6
CONTINUOUS
10
5.4698443307086615
20
-2.9082956299212599
11
5.4649327165354329
21
-2.9033840157480313
0
LINE
8
F.Cu
6
CONTINUOUS
10
5.4649327165354329
20
-2.9033840157480313
11
5.4610736614173225
21
-2.8976085433070864
0
LINE
8
F.Cu
6
CONTINUOUS
10
5.4610736614173225
20
-2.8976085433070864
11
5.4584155118110234
21
-2.8911911811023621
0
LINE
8
F.Cu
6
CONTINUOUS
10
5.4584155118110234
20
-2.8911911811023621
11
5.4570603937007869
21
-2.8843785433070868
0
LINE
8
F.Cu
6
CONTINUOUS
10
5.4570603937007869
20
-2.8843785433070868
11
5.4570603937007869
21
-2.8774324803149605
0
LINE
8
F.Cu
6
CONTINUOUS
10
5.4570603937007869
20
-2.8774324803149605
11
5.4584155118110234
21
-2.8706198425196852
0
LINE
8
F.Cu
6
CONTINUOUS
10
5.4584155118110234
20
-2.8706198425196852
11
5.4610736614173225
21
-2.8642024803149604
0
LINE
8
F.Cu
6
CONTINUOUS
10
5.4610736614173225
20
-2.8642024803149604
11
5.4649327165354329
21
-2.8584270078740155
0
LINE
8
F.Cu
6
CONTINUOUS
10
5.4649327165354329
20
-2.8584270078740155
11
5.4698443307086615
21
-2.8535153937007873
0
LINE
8
F.Cu
6
CONTINUOUS
10
5.4698443307086615
20
-2.8535153937007873
11
5.4756198031496064
21
-2.849656338582677
0
LINE
8
F.Cu
6
CONTINUOUS
10
5.4756198031496064
20
-2.849656338582677
11
5.4820371653543303
21
-2.8469981889763778
0
LINE
8
F.Cu
6
CONTINUOUS
10
5.4820371653543303
20
-2.8469981889763778
11
5.4888498031496065
21
-2.8456430708661418
0
LINE
8
F.Cu
6
CONTINUOUS
10
5.4888498031496065
20
-2.8456430708661418
11
5.4957958661417319
21
-2.8456430708661418
0
LINE
8
F.Cu
6
CONTINUOUS
10
5.4957958661417319
20
-2.8456430708661418
11
5.4990909842519686
21
-2.8462985039370077
0
LINE
8
F.Cu
6
CONTINUOUS
10
5.4990909842519686
20
-2.8462985039370077
11
5.6034034251968503
21
-2.7419861023622047
0
LINE
8
F.Cu
6
CONTINUOUS
10
5.6034034251968503
20
-2.7419861023622047
11
5.6053389763779524
21
-2.740288622047244
0
LINE
8
F.Cu
6
CONTINUOUS
10
5.6053389763779524
20
-2.740288622047244
11
5.6053393307086612
21
-2.740288307086614
0
LINE
8
F.Cu
6
CONTINUOUS
10
5.6053393307086612
20
-2.740288307086614
11
5.6097896850393703
21
-2.7377188976377953
0
LINE
8
F.Cu
6
CONTINUOUS
10
5.6097896850393703
20
-2.7377188976377953
11
5.6147534251968505
21
-2.7363888582677163
0
LINE
8
F.Cu
6
CONTINUOUS
10
5.6147534251968505
20
-2.7363888582677163
11
5.6147540157480318
21
-2.7363888582677163
0
LINE
8
F.Cu
6
CONTINUOUS
10
5.6147540157480318
20
-2.7363888582677163
11
5.6173228346456687
21
-2.7362204724409449
0
LINE
8
F.Cu
6
CONTINUOUS
10
5.6173228346456687
20
-2.7362204724409449
11
6.3976377952755907
21
-2.7362204724409449
0
LINE
8
F.Cu
6
CONTINUOUS
10
6.3976377952755907
20
-2.7362204724409449
11
6.4002066141732286
21
-2.7363888582677163
0
LINE
8
F.Cu
6
CONTINUOUS
10
6.1083554330708658
20
-1.9094270866141732
11
6.114059724409449
21
-1.9117898818897638
0
LINE
8
F.Cu
6
CONTINUOUS
10
6.114059724409449
20
-1.9117898818897638
11
6.1191935039370078
21
-1.9152201574803149
0
LINE
8
F.Cu
6
CONTINUOUS
10
6.1191935039370078
20
-1.9152201574803149
11
6.1235593700787403
21
-1.9195860236220472
0
LINE
8
F.Cu
6
CONTINUOUS
10
6.1235593700787403
20
-1.9195860236220472
11
6.1237570472440943
21
-1.9198818897637795
0
LINE
8
F.Cu
6
CONTINUOUS
10
6.1237570472440943
20
-1.9198818897637795
11
6.2702755905511811
21
-1.9198818897637795
0
LINE
8
F.Cu
6
CONTINUOUS
10
6.2702755905511811
20
-1.9198818897637795
11
6.2728444094488189
21
-1.9200502755905511
0
LINE
8
F.Cu
6
CONTINUOUS
10
6.2728444094488189
20
-1.9200502755905511
11
6.2728450000000002
21
-1.9200502755905511
0
LINE
8
F.Cu
6
CONTINUOUS
10
6.2728450000000002
20
-1.9200502755905511
11
6.2778087401574805
21
-1.9213803149606299
0
LINE
8
F.Cu
6
CONTINUOUS
10
6.2778087401574805
20
-1.9213803149606299
11
6.2822590944881886
21
-1.9239497244094488
0
LINE
8
F.Cu
6
CONTINUOUS
10
6.2822590944881886
20
-1.9239497244094488
11
6.2822596850393699
21
-1.9239503149606298
0
LINE
8
F.Cu
6
CONTINUOUS
10
6.2822596850393699
20
-1.9239503149606298
11
6.2841949999999995
21
-1.9256475196850393
0
LINE
8
F.Cu
6
CONTINUOUS
10
6.2841949999999995
20
-1.9256475196850393
11
6.4057915748031498
21
-2.0472440944881889
0
LINE
8
F.Cu
6
CONTINUOUS
10
6.4057915748031498
20
-2.0472440944881889
11
6.4960629921259843
21
-2.0472440944881889
0
LINE
8
F.Cu
6
CONTINUOUS
10
6.4960629921259843
20
-2.0472440944881889
11
6.4986318110236221
21
-2.0474124803149607
0
LINE
8
F.Cu
6
CONTINUOUS
10
6.4986318110236221
20
-2.0474124803149607
11
6.4986324015748034
21
-2.0474124803149607
0
LINE
8
F.Cu
6
CONTINUOUS
10
6.4986324015748034
20
-2.0474124803149607
11
6.5035961417322836
21
-2.0487425196850393
0
LINE
8
F.Cu
6
CONTINUOUS
10
6.5035961417322836
20
-2.0487425196850393
11
6.5080464960629918
21
-2.0513119291338584
0
LINE
8
F.Cu
6
CONTINUOUS
10
6.5080464960629918
20
-2.0513119291338584
11
6.5080470866141731
21
-2.0513125196850392
0
LINE
8
F.Cu
6
CONTINUOUS
10
6.5080470866141731
20
-2.0513125196850392
11
6.5099824015748027
21
-2.0530097244094487
0
LINE
8
F.Cu
6
CONTINUOUS
10
6.5099824015748027
20
-2.0530097244094487
11
7.00210842519685
21
-2.5451357086614173
0
LINE
8
F.Cu
6
CONTINUOUS
10
7.00210842519685
20
-2.5451357086614173
11
7.0038061811023624
21
-2.5470716535433069
0
LINE
8
F.Cu
6
CONTINUOUS
10
7.0038061811023624
20
-2.5470716535433069
11
7.0063755905511806
21
-2.5515220078740155
0
LINE
8
F.Cu
6
CONTINUOUS
10
7.0063755905511806
20
-2.5515220078740155
11
7.0077056299212597
21
-2.5564857086614174
0
LINE
8
F.Cu
6
CONTINUOUS
10
7.0077056299212597
20
-2.5564857086614174
11
7.0077056299212597
21
-2.5616245275590552
0
LINE
8
F.Cu
6
CONTINUOUS
10
7.0077056299212597
20
-2.5616245275590552
11
7.0063755905511806
21
-2.5665882677165355
0
LINE
8
F.Cu
6
CONTINUOUS
10
7.0063755905511806
20
-2.5665882677165355
11
7.0038061811023624
21
-2.5710386220472441
0
LINE
8
F.Cu
6
CONTINUOUS
10
7.0038061811023624
20
-2.5710386220472441
11
7.0001724803149603
21
-2.5746723228346458
0
LINE
8
F.Cu
6
CONTINUOUS
10
7.0001724803149603
20
-2.5746723228346458
11
6.9957221259842521
21
-2.5772417322834644
0
LINE
8
F.Cu
6
CONTINUOUS
10
6.9957221259842521
20
-2.5772417322834644
11
6.9907583858267719
21
-2.5785717716535435
0
LINE
8
F.Cu
6
CONTINUOUS
10
6.9907583858267719
20
-2.5785717716535435
11
6.9856195669291337
21
-2.5785717716535435
0
LINE
8
F.Cu
6
CONTINUOUS
10
6.9856195669291337
20
-2.5785717716535435
11
6.9806558661417322
21
-2.5772417322834644
0
LINE
8
F.Cu
6
CONTINUOUS
10
6.9806558661417322
20
-2.5772417322834644
11
6.9762055118110231
21
-2.5746723228346458
0
LINE
8
F.Cu
6
CONTINUOUS
10
6.9762055118110231
20
-2.5746723228346458
11
6.9742695669291335
21
-2.5729745669291337
0
LINE
8
F.Cu
6
CONTINUOUS
10
6.9742695669291335
20
-2.5729745669291337
11
6.4879092125984252
21
-2.0866141732283463
0
LINE
8
F.Cu
6
CONTINUOUS
10
6.4879092125984252
20
-2.0866141732283463
11
6.3976377952755907
21
-2.0866141732283463
0
LINE
8
F.Cu
6
CONTINUOUS
10
6.3976377952755907
20
-2.0866141732283463
11
6.3950689763779529
21
-2.0864457874015749
0
LINE
8
F.Cu
6
CONTINUOUS
10
6.3950689763779529
20
-2.0864457874015749
11
6.3950683858267716
21
-2.0864457874015749
0
LINE
8
F.Cu
6
CONTINUOUS
10
6.3950683858267716
20
-2.0864457874015749
11
6.3901046456692914
21
-2.0851157480314959
0
LINE
8
F.Cu
6
CONTINUOUS
10
6.3901046456692914
20
-2.0851157480314959
11
6.3856542913385823
21
-2.0825463385826772
0
LINE
8
F.Cu
6
CONTINUOUS
10
6.3856542913385823
20
-2.0825463385826772
11
6.3856536614173223
21
-2.0825457086614172
0
LINE
8
F.Cu
6
CONTINUOUS
10
6.3856536614173223
20
-2.0825457086614172
11
6.3837183858267714
21
-2.0808485433070865
0
LINE
8
F.Cu
6
CONTINUOUS
10
6.3837183858267714
20
-2.0808485433070865
11
6.2621218110236221
21
-1.9592519685039369
0
LINE
8
F.Cu
6
CONTINUOUS
10
6.2621218110236221
20
-1.9592519685039369
11
6.1237570472440943
21
-1.9592519685039369
0
LINE
8
F.Cu
6
CONTINUOUS
10
6.1237570472440943
20
-1.9592519685039369
11
6.1235593700787403
21
-1.9595478346456692
0
LINE
8
F.Cu
6
CONTINUOUS
10
6.1235593700787403
20
-1.9595478346456692
11
6.1191935039370078
21
-1.9639137007874015
0
LINE
8
F.Cu
6
CONTINUOUS
10
6.1191935039370078
20
-1.9639137007874015
11
6.114059724409449
21
-1.9673439763779528
0
LINE
8
F.Cu
6
CONTINUOUS
10
6.114059724409449
20
-1.9673439763779528
11
6.1083554330708658
21
-1.9697067716535432
0
LINE
8
F.Cu
6
CONTINUOUS
10
6.1083554330708658
20
-1.9697067716535432
11
6.1022997637795271
21
-1.9709113385826771
0
LINE
8
F.Cu
6
CONTINUOUS
10
6.1022997637795271
20
-1.9709113385826771
11
6.0961254330708661
21
-1.9709113385826771
0
LINE
8
F.Cu
6
CONTINUOUS
10
6.0961254330708661
20
-1.9709113385826771
11
6.0900697637795274
21
-1.9697067716535432
0
LINE
8
F.Cu
6
CONTINUOUS
10
6.0900697637795274
20
-1.9697067716535432
11
6.0843654724409451
21
-1.9673439763779528
0
LINE
8
F.Cu
6
CONTINUOUS
10
6.0843654724409451
20
-1.9673439763779528
11
6.0792316929133854
21
-1.9639137007874015
0
LINE
8
F.Cu
6
CONTINUOUS
10
6.0792316929133854
20
-1.9639137007874015
11
6.0748658267716538
21
-1.9595478346456692
0
LINE
8
F.Cu
6
CONTINUOUS
10
6.0748658267716538
20
-1.9595478346456692
11
6.0714355511811018
21
-1.9544140551181102
0
LINE
8
F.Cu
6
CONTINUOUS
10
6.0714355511811018
20
-1.9544140551181102
11
6.0690727559055118
21
-1.9487097637795274
0
LINE
8
F.Cu
6
CONTINUOUS
10
6.0690727559055118
20
-1.9487097637795274
11
6.0678681889763775
21
-1.9426540944881889
0
LINE
8
F.Cu
6
CONTINUOUS
10
6.0678681889763775
20
-1.9426540944881889
11
6.0678681889763775
21
-1.9364797637795275
0
LINE
8
F.Cu
6
CONTINUOUS
10
6.0678681889763775
20
-1.9364797637795275
11
6.0690727559055118
21
-1.930424094488189
0
LINE
8
F.Cu
6
CONTINUOUS
10
6.0690727559055118
20
-1.930424094488189
11
6.0714355511811018
21
-1.9247198031496062
0
LINE
8
F.Cu
6
CONTINUOUS
10
6.0714355511811018
20
-1.9247198031496062
11
6.0748658267716538
21
-1.9195860236220472
0
LINE
8
F.Cu
6
CONTINUOUS
10
6.0748658267716538
20
-1.9195860236220472
11
6.0792316929133854
21
-1.9152201574803149
0
LINE
8
F.Cu
6
CONTINUOUS
10
6.0792316929133854
20
-1.9152201574803149
11
6.0843654724409451
21
-1.9117898818897638
0
LINE
8
F.Cu
6
CONTINUOUS
10
6.0843654724409451
20
-1.9117898818897638
11
6.0900697637795274
21
-1.9094270866141732
0
LINE
8
F.Cu
6
CONTINUOUS
10
6.0900697637795274
20
-1.9094270866141732
11
6.0961254330708661
21
-1.9082225196850393
0
LINE
8
F.Cu
6
CONTINUOUS
10
6.0961254330708661
20
-1.9082225196850393
11
6.1022997637795271
21
-1.9082225196850393
0
LINE
8
F.Cu
6
CONTINUOUS
10
6.1022997637795271
20
-1.9082225196850393
11
6.1083554330708658
21
-1.9094270866141732
0
LINE
8
F.Cu
6
CONTINUOUS
10
6.4033562204724408
20
-2.2442628740157482
11
6.4033568110236221
21
-2.2442628740157482
0
LINE
8
F.Cu
6
CONTINUOUS
10
6.4033568110236221
20
-2.2442628740157482
11
6.4083205511811023
21
-2.2455929133858268
0
LINE
8
F.Cu
6
CONTINUOUS
10
6.4083205511811023
20
-2.2455929133858268
11
6.4127709055118105
21
-2.2481623228346455
0
LINE
8
F.Cu
6
CONTINUOUS
10
6.4127709055118105
20
-2.2481623228346455
11
6.4127714960629918
21
-2.2481629133858267
0
LINE
8
F.Cu
6
CONTINUOUS
10
6.4127714960629918
20
-2.2481629133858267
11
6.4147068110236223
21
-2.2498601181102362
0
LINE
8
F.Cu
6
CONTINUOUS
10
6.4147068110236223
20
-2.2498601181102362
11
6.4957764173228343
21
-2.3309297244094487
0
LINE
8
F.Cu
6
CONTINUOUS
10
6.4957764173228343
20
-2.3309297244094487
11
6.4961254330708664
21
-2.33086031496063
0
LINE
8
F.Cu
6
CONTINUOUS
10
6.4961254330708664
20
-2.33086031496063
11
6.5022997637795275
21
-2.33086031496063
0
LINE
8
F.Cu
6
CONTINUOUS
10
6.5022997637795275
20
-2.33086031496063
11
6.5083554330708662
21
-2.3320648818897638
0
LINE
8
F.Cu
6
CONTINUOUS
10
6.5083554330708662
20
-2.3320648818897638
11
6.5140597244094485
21
-2.3344276771653543
0
LINE
8
F.Cu
6
CONTINUOUS
10
6.5140597244094485
20
-2.3344276771653543
11
6.5191935039370081
21
-2.3378579527559054
0
LINE
8
F.Cu
6
CONTINUOUS
10
6.5191935039370081
20
-2.3378579527559054
11
6.5235593700787398
21
-2.3422238188976379
0
LINE
8
F.Cu
6
CONTINUOUS
10
6.5235593700787398
20
-2.3422238188976379
11
6.5269896456692909
21
-2.3473575984251966
0
LINE
8
F.Cu
6
CONTINUOUS
10
6.5269896456692909
20
-2.3473575984251966
11
6.5293524409448818
21
-2.3530618897637794
0
LINE
8
F.Cu
6
CONTINUOUS
10
6.5293524409448818
20
-2.3530618897637794
11
6.5305570078740152
21
-2.3591175590551181
0
LINE
8
F.Cu
6
CONTINUOUS
10
6.5305570078740152
20
-2.3591175590551181
11
6.5305570078740152
21
-2.3652918897637796
0
LINE
8
F.Cu
6
CONTINUOUS
10
6.5305570078740152
20
-2.3652918897637796
11
6.5293524409448818
21
-2.3713475590551178
0
LINE
8
F.Cu
6
CONTINUOUS
10
6.5293524409448818
20
-2.3713475590551178
11
6.5269896456692909
21
-2.3770518503937006
0
LINE
8
F.Cu
6
CONTINUOUS
10
6.5269896456692909
20
-2.3770518503937006
11
6.5235593700787398
21
-2.3821856299212598
0
LINE
8
F.Cu
6
CONTINUOUS
10
6.5235593700787398
20
-2.3821856299212598
11
6.5191935039370081
21
-2.3865514960629919
0
LINE
8
F.Cu
6
CONTINUOUS
10
6.5191935039370081
20
-2.3865514960629919
11
6.5140597244094485
21
-2.3899817716535434
0
LINE
8
F.Cu
6
CONTINUOUS
10
6.5140597244094485
20
-2.3899817716535434
11
6.5083554330708662
21
-2.3923445669291339
0
LINE
8
F.Cu
6
CONTINUOUS
10
6.5083554330708662
20
-2.3923445669291339
11
6.5022997637795275
21
-2.3935491338582677
0
LINE
8
F.Cu
6
CONTINUOUS
10
6.5022997637795275
20
-2.3935491338582677
11
6.4961254330708664
21
-2.3935491338582677
0
LINE
8
F.Cu
6
CONTINUOUS
10
6.4961254330708664
20
-2.3935491338582677
11
6.4900697637795277
21
-2.3923445669291339
0
LINE
8
F.Cu
6
CONTINUOUS
10
6.4900697637795277
20
-2.3923445669291339
11
6.4843654724409445
21
-2.3899817716535434
0
LINE
8
F.Cu
6
CONTINUOUS
10
6.4843654724409445
20
-2.3899817716535434
11
6.4792316929133857
21
-2.3865514960629919
0
LINE
8
F.Cu
6
CONTINUOUS
10
6.4792316929133857
20
-2.3865514960629919
11
6.4748658267716532
21
-2.3821856299212598
0
LINE
8
F.Cu
6
CONTINUOUS
10
6.4748658267716532
20
-2.3821856299212598
11
6.4714355511811021
21
-2.3770518503937006
0
LINE
8
F.Cu
6
CONTINUOUS
10
6.4714355511811021
20
-2.3770518503937006
11
6.4690727559055112
21
-2.3713475590551178
0
LINE
8
F.Cu
6
CONTINUOUS
10
6.4690727559055112
20
-2.3713475590551178
11
6.4678681889763778
21
-2.3652918897637796
0
LINE
8
F.Cu
6
CONTINUOUS
10
6.4678681889763778
20
-2.3652918897637796
11
6.4678681889763778
21
-2.3591175590551181
0
LINE
8
F.Cu
6
CONTINUOUS
10
6.4678681889763778
20
-2.3591175590551181
11
6.4679375984251966
21
-2.3587685433070864
0
LINE
8
F.Cu
6
CONTINUOUS
10
6.4679375984251966
20
-2.3587685433070864
11
6.3926336220472439
21
-2.2834645669291338
0
LINE
8
F.Cu
6
CONTINUOUS
10
6.3926336220472439
20
-2.2834645669291338
11
5.5989018110236222
21
-2.2834645669291338
0
LINE
8
F.Cu
6
CONTINUOUS
10
5.5989018110236222
20
-2.2834645669291338
11
5.5269298031496064
21
-2.3554365354330709
0
LINE
8
F.Cu
6
CONTINUOUS
10
5.5269298031496064
20
-2.3554365354330709
11
5.5275852755905515
21
-2.3587316929133859
0
LINE
8
F.Cu
6
CONTINUOUS
10
5.5275852755905515
20
-2.3587316929133859
11
5.5275852755905515
21
-2.3656777559055118
0
LINE
8
F.Cu
6
CONTINUOUS
10
5.5275852755905515
20
-2.3656777559055118
11
5.526230157480315
21
-2.3724903937007875
0
LINE
8
F.Cu
6
CONTINUOUS
10
5.526230157480315
20
-2.3724903937007875
11
5.5235720078740158
21
-2.3789077559055118
0
LINE
8
F.Cu
6
CONTINUOUS
10
5.5235720078740158
20
-2.3789077559055118
11
5.5197129527559055
21
-2.3846832283464567
0
LINE
8
F.Cu
6
CONTINUOUS
10
5.5197129527559055
20
-2.3846832283464567
11
5.5148013385826768
21
-2.3895948425196849
0
LINE
8
F.Cu
6
CONTINUOUS
10
5.5148013385826768
20
-2.3895948425196849
11
5.509025866141732
21
-2.3934538976377953
0
LINE
8
F.Cu
6
CONTINUOUS
10
5.509025866141732
20
-2.3934538976377953
11
5.5026085039370081
21
-2.3961120472440944
0
LINE
8
F.Cu
6
CONTINUOUS
10
5.5026085039370081
20
-2.3961120472440944
11
5.4957958661417319
21
-2.3974671653543305
0
LINE
8
F.Cu
6
CONTINUOUS
10
5.4957958661417319
20
-2.3974671653543305
11
5.4888498031496065
21
-2.3974671653543305
0
LINE
8
F.Cu
6
CONTINUOUS
10
5.4888498031496065
20
-2.3974671653543305
11
5.4820371653543303
21
-2.3961120472440944
0
LINE
8
F.Cu
6
CONTINUOUS
10
5.4820371653543303
20
-2.3961120472440944
11
5.4756198031496064
21
-2.3934538976377953
0
LINE
8
F.Cu
6
CONTINUOUS
10
5.4756198031496064
20
-2.3934538976377953
11
5.4698443307086615
21
-2.3895948425196849
0
LINE
8
F.Cu
6
CONTINUOUS
10
5.4698443307086615
20
-2.3895948425196849
11
5.4649327165354329
21
-2.3846832283464567
0
LINE
8
F.Cu
6
CONTINUOUS
10
5.4649327165354329
20
-2.3846832283464567
11
5.4610736614173225
21
-2.3789077559055118
0
LINE
8
F.Cu
6
CONTINUOUS
10
5.4610736614173225
20
-2.3789077559055118
11
5.4584155118110234
21
-2.3724903937007875
0
LINE
8
F.Cu
6
CONTINUOUS
10
5.4584155118110234
20
-2.3724903937007875
11
5.4570603937007869
21
-2.3656777559055118
0
LINE
8
F.Cu
6
CONTINUOUS
10
5.4570603937007869
20
-2.3656777559055118
11
5.4570603937007869
21
-2.3587316929133859
0
LINE
8
F.Cu
6
CONTINUOUS
10
5.4570603937007869
20
-2.3587316929133859
11
5.4584155118110234
21
-2.3519190551181102
0
LINE
8
F.Cu
6
CONTINUOUS
10
5.4584155118110234
20
-2.3519190551181102
11
5.4610736614173225
21
-2.3455016929133858
0
LINE
8
F.Cu
6
CONTINUOUS
10
5.4610736614173225
20
-2.3455016929133858
11
5.4649327165354329
21
-2.3397262204724409
0
LINE
8
F.Cu
6
CONTINUOUS
10
5.4649327165354329
20
-2.3397262204724409
11
5.4698443307086615
21
-2.3348146062992123
0
LINE
8
F.Cu
6
CONTINUOUS
10
5.4698443307086615
20
-2.3348146062992123
11
5.4756198031496064
21
-2.3309555511811024
0
LINE
8
F.Cu
6
CONTINUOUS
10
5.4756198031496064
20
-2.3309555511811024
11
5.4820371653543303
21
-2.3282974015748032
0
LINE
8
F.Cu
6
CONTINUOUS
10
5.4820371653543303
20
-2.3282974015748032
11
5.4888498031496065
21
-2.3269422834645668
0
LINE
8
F.Cu
6
CONTINUOUS
10
5.4888498031496065
20
-2.3269422834645668
11
5.4957958661417319
21
-2.3269422834645668
0
LINE
8
F.Cu
6
CONTINUOUS
10
5.4957958661417319
20
-2.3269422834645668
11
5.4990909842519686
21
-2.3275977165354331
0
LINE
8
F.Cu
6
CONTINUOUS
10
5.4990909842519686
20
-2.3275977165354331
11
5.5768286220472438
21
-2.2498601181102362
0
LINE
8
F.Cu
6
CONTINUOUS
10
5.5768286220472438
20
-2.2498601181102362
11
5.5787638976377956
21
-2.2481629133858267
0
LINE
8
F.Cu
6
CONTINUOUS
10
5.5787638976377956
20
-2.2481629133858267
11
5.5787645275590547
21
-2.2481623228346455
0
LINE
8
F.Cu
6
CONTINUOUS
10
5.5787645275590547
20
-2.2481623228346455
11
5.5832148818897638
21
-2.2455929133858268
0
LINE
8
F.Cu
6
CONTINUOUS
10
5.5832148818897638
20
-2.2455929133858268
11
5.588178622047244
21
-2.2442628740157482
0
LINE
8
F.Cu
6
CONTINUOUS
10
5.588178622047244
20
-2.2442628740157482
11
5.5881792125984253
21
-2.2442628740157482
0
LINE
8
F.Cu
6
CONTINUOUS
10
5.5881792125984253
20
-2.2442628740157482
11
5.5907480314960631
21
-2.2440944881889764
0
LINE
8
F.Cu
6
CONTINUOUS
10
5.5907480314960631
20
-2.2440944881889764
11
6.400787401574803
21
-2.2440944881889764
0
LINE
8
F.Cu
6
CONTINUOUS
10
6.400787401574803
20
-2.2440944881889764
11
6.4033562204724408
21
-2.2442628740157482
0
LINE
8
F.Cu
6
CONTINUOUS
10
5.5026085039370081
20
-1.8361714173228345
11
5.509025866141732
21
-1.8388295669291339
0
LINE
8
F.Cu
6
CONTINUOUS
10
5.509025866141732
20
-1.8388295669291339
11
5.5148013385826768
21
-1.842688622047244
0
LINE
8
F.Cu
6
CONTINUOUS
10
5.5148013385826768
20
-1.842688622047244
11
5.5197129527559055
21
-1.8476002362204724
0
LINE
8
F.Cu
6
CONTINUOUS
10
5.5197129527559055
20
-1.8476002362204724
11
5.5215794881889764
21
-1.8503937007874016
0
LINE
8
F.Cu
6
CONTINUOUS
10
5.5215794881889764
20
-1.8503937007874016
11
6.4297244094488191
21
-1.8503937007874016
0
LINE
8
F.Cu
6
CONTINUOUS
10
6.4297244094488191
20
-1.8503937007874016
11
6.4322932283464569
21
-1.8505620866141732
0
LINE
8
F.Cu
6
CONTINUOUS
10
6.4322932283464569
20
-1.8505620866141732
11
6.4322938188976373
21
-1.8505620866141732
0
LINE
8
F.Cu
6
CONTINUOUS
10
6.4322938188976373
20
-1.8505620866141732
11
6.4372575590551175
21
-1.851892125984252
0
LINE
8
F.Cu
6
CONTINUOUS
10
6.4372575590551175
20
-1.851892125984252
11
6.4417079133858266
21
-1.8544615354330709
0
LINE
8
F.Cu
6
CONTINUOUS
10
6.4417079133858266
20
-1.8544615354330709
11
6.4417085039370079
21
-1.854462125984252
0
LINE
8
F.Cu
6
CONTINUOUS
10
6.4417085039370079
20
-1.854462125984252
11
6.4436438188976375
21
-1.8561593307086615
0
LINE
8
F.Cu
6
CONTINUOUS
10
6.4436438188976375
20
-1.8561593307086615
11
6.4957764173228343
21
-1.9082919291338583
0
LINE
8
F.Cu
6
CONTINUOUS
10
6.4957764173228343
20
-1.9082919291338583
11
6.4961254330708664
21
-1.9082225196850393
0
LINE
8
F.Cu
6
CONTINUOUS
10
6.4961254330708664
20
-1.9082225196850393
11
6.5022997637795275
21
-1.9082225196850393
0
LINE
8
F.Cu
6
CONTINUOUS
10
6.5022997637795275
20
-1.9082225196850393
11
6.5083554330708662
21
-1.9094270866141732
0
LINE
8
F.Cu
6
CONTINUOUS
10
6.5083554330708662
20
-1.9094270866141732
11
6.5140597244094485
21
-1.9117898818897638
0
LINE
8
F.Cu
6
CONTINUOUS
10
6.5140597244094485
20
-1.9117898818897638
11
6.5191935039370081
21
-1.9152201574803149
0
LINE
8
F.Cu
6
CONTINUOUS
10
6.5191935039370081
20
-1.9152201574803149
11
6.5235593700787398
21
-1.9195860236220472
0
LINE
8
F.Cu
6
CONTINUOUS
10
6.5235593700787398
20
-1.9195860236220472
11
6.5269896456692909
21
-1.9247198031496062
0
LINE
8
F.Cu
6
CONTINUOUS
10
6.5269896456692909
20
-1.9247198031496062
11
6.5293524409448818
21
-1.930424094488189
0
LINE
8
F.Cu
6
CONTINUOUS
10
6.5293524409448818
20
-1.930424094488189
11
6.5305570078740152
21
-1.9364797637795275
0
LINE
8
F.Cu
6
CONTINUOUS
10
6.5305570078740152
20
-1.9364797637795275
11
6.5305570078740152
21
-1.9426540944881889
0
LINE
8
F.Cu
6
CONTINUOUS
10
6.5305570078740152
20
-1.9426540944881889
11
6.5293524409448818
21
-1.9487097637795274
0
LINE
8
F.Cu
6
CONTINUOUS
10
6.5293524409448818
20
-1.9487097637795274
11
6.5269896456692909
21
-1.9544140551181102
0
LINE
8
F.Cu
6
CONTINUOUS
10
6.5269896456692909
20
-1.9544140551181102
11
6.5235593700787398
21
-1.9595478346456692
0
LINE
8
F.Cu
6
CONTINUOUS
10
6.5235593700787398
20
-1.9595478346456692
11
6.5191935039370081
21
-1.9639137007874015
0
LINE
8
F.Cu
6
CONTINUOUS
10
6.5191935039370081
20
-1.9639137007874015
11
6.5140597244094485
21
-1.9673439763779528
0
LINE
8
F.Cu
6
CONTINUOUS
10
6.5140597244094485
20
-1.9673439763779528
11
6.5083554330708662
21
-1.9697067716535432
0
LINE
8
F.Cu
6
CONTINUOUS
10
6.5083554330708662
20
-1.9697067716535432
11
6.5022997637795275
21
-1.9709113385826771
0
LINE
8
F.Cu
6
CONTINUOUS
10
6.5022997637795275
20
-1.9709113385826771
11
6.4961254330708664
21
-1.9709113385826771
0
LINE
8
F.Cu
6
CONTINUOUS
10
6.4961254330708664
20
-1.9709113385826771
11
6.4900697637795277
21
-1.9697067716535432
0
LINE
8
F.Cu
6
CONTINUOUS
10
6.4900697637795277
20
-1.9697067716535432
11
6.4843654724409445
21
-1.9673439763779528
0
LINE
8
F.Cu
6
CONTINUOUS
10
6.4843654724409445
20
-1.9673439763779528
11
6.4792316929133857
21
-1.9639137007874015
0
LINE
8
F.Cu
6
CONTINUOUS
10
6.4792316929133857
20
-1.9639137007874015
11
6.4748658267716532
21
-1.9595478346456692
0
LINE
8
F.Cu
6
CONTINUOUS
10
6.4748658267716532
20
-1.9595478346456692
11
6.4714355511811021
21
-1.9544140551181102
0
LINE
8
F.Cu
6
CONTINUOUS
10
6.4714355511811021
20
-1.9544140551181102
11
6.4690727559055112
21
-1.9487097637795274
0
LINE
8
F.Cu
6
CONTINUOUS
10
6.4690727559055112
20
-1.9487097637795274
11
6.4678681889763778
21
-1.9426540944881889
0
LINE
8
F.Cu
6
CONTINUOUS
10
6.4678681889763778
20
-1.9426540944881889
11
6.4678681889763778
21
-1.9364797637795275
0
LINE
8
F.Cu
6
CONTINUOUS
10
6.4678681889763778
20
-1.9364797637795275
11
6.4679375984251966
21
-1.936130748031496
0
LINE
8
F.Cu
6
CONTINUOUS
10
6.4679375984251966
20
-1.936130748031496
11
6.42157062992126
21
-1.889763779527559
0
LINE
8
F.Cu
6
CONTINUOUS
10
6.42157062992126
20
-1.889763779527559
11
5.5215794881889764
21
-1.889763779527559
0
LINE
8
F.Cu
6
CONTINUOUS
10
5.5215794881889764
20
-1.889763779527559
11
5.5197129527559055
21
-1.8925572440944882
0
LINE
8
F.Cu
6
CONTINUOUS
10
5.5197129527559055
20
-1.8925572440944882
11
5.5148013385826768
21
-1.8974688582677164
0
LINE
8
F.Cu
6
CONTINUOUS
10
5.5148013385826768
20
-1.8974688582677164
11
5.509025866141732
21
-1.9013279133858267
0
LINE
8
F.Cu
6
CONTINUOUS
10
5.509025866141732
20
-1.9013279133858267
11
5.5026085039370081
21
-1.9039860629921259
0
LINE
8
F.Cu
6
CONTINUOUS
10
5.5026085039370081
20
-1.9039860629921259
11
5.4957958661417319
21
-1.9053411811023622
0
LINE
8
F.Cu
6
CONTINUOUS
10
5.4957958661417319
20
-1.9053411811023622
11
5.4888498031496065
21
-1.9053411811023622
0
LINE
8
F.Cu
6
CONTINUOUS
10
5.4888498031496065
20
-1.9053411811023622
11
5.4820371653543303
21
-1.9039860629921259
0
LINE
8
F.Cu
6
CONTINUOUS
10
5.4820371653543303
20
-1.9039860629921259
11
5.4756198031496064
21
-1.9013279133858267
0
LINE
8
F.Cu
6
CONTINUOUS
10
5.4756198031496064
20
-1.9013279133858267
11
5.4698443307086615
21
-1.8974688582677164
0
LINE
8
F.Cu
6
CONTINUOUS
10
5.4698443307086615
20
-1.8974688582677164
11
5.4649327165354329
21
-1.8925572440944882
0
LINE
8
F.Cu
6
CONTINUOUS
10
5.4649327165354329
20
-1.8925572440944882
11
5.4610736614173225
21
-1.8867817716535433
0
LINE
8
F.Cu
6
CONTINUOUS
10
5.4610736614173225
20
-1.8867817716535433
11
5.4584155118110234
21
-1.8803644094488188
0
LINE
8
F.Cu
6
CONTINUOUS
10
5.4584155118110234
20
-1.8803644094488188
11
5.4570603937007869
21
-1.8735517716535433
0
LINE
8
F.Cu
6
CONTINUOUS
10
5.4570603937007869
20
-1.8735517716535433
11
5.4570603937007869
21
-1.8666057086614172
0
LINE
8
F.Cu
6
CONTINUOUS
10
5.4570603937007869
20
-1.8666057086614172
11
5.4584155118110234
21
-1.8597930708661417
0
LINE
8
F.Cu
6
CONTINUOUS
10
5.4584155118110234
20
-1.8597930708661417
11
5.4610736614173225
21
-1.8533757086614173
0
LINE
8
F.Cu
6
CONTINUOUS
10
5.4610736614173225
20
-1.8533757086614173
11
5.4649327165354329
21
-1.8476002362204724
0
LINE
8
F.Cu
6
CONTINUOUS
10
5.4649327165354329
20
-1.8476002362204724
11
5.4698443307086615
21
-1.842688622047244
0
LINE
8
F.Cu
6
CONTINUOUS
10
5.4698443307086615
20
-1.842688622047244
11
5.4756198031496064
21
-1.8388295669291339
0
LINE
8
F.Cu
6
CONTINUOUS
10
5.4756198031496064
20
-1.8388295669291339
11
5.4820371653543303
21
-1.8361714173228345
0
LINE
8
F.Cu
6
CONTINUOUS
10
5.4820371653543303
20
-1.8361714173228345
11
5.4888498031496065
21
-1.8348162992125985
0
LINE
8
F.Cu
6
CONTINUOUS
10
5.4888498031496065
20
-1.8348162992125985
11
5.4957958661417319
21
-1.8348162992125985
0
LINE
8
F.Cu
6
CONTINUOUS
10
5.4957958661417319
20
-1.8348162992125985
11
5.5026085039370081
21
-1.8361714173228345
  0
ENDSEC
  0
EOF
