%TF.GenerationSoftware,KiCad,Pcbnew,10.0.3*%
%TF.CreationDate,2026-09-02T10:54:41+05:45*%
%TF.ProjectId,input,696e7075-742e-46b6-9963-61645f706362,rev?*%
%TF.SameCoordinates,Original*%
%TF.FileFunction,Copper,L1,Top*%
%TF.FilePolarity,Positive*%
%FSLAX46Y46*%
G04 Gerber Fmt 4.6, Leading zero omitted, Abs format (unit mm)*
G04 Created by KiCad (PCBNEW 10.0.3) date 2026-09-02 10:54:41*
%MOMM*%
%LPD*%
G01*
G04 APERTURE LIST*
G04 Aperture macros list*
%AMRoundRect*
0 Rectangle with rounded corners*
0 $1 Rounding radius*
0 $2 $3 $4 $5 $6 $7 $8 $9 X,Y pos of 4 corners*
0 Add a 4 corners polygon primitive as box body*
4,1,4,$2,$3,$4,$5,$6,$7,$8,$9,$2,$3,0*
0 Add four circle primitives for the rounded corners*
1,1,$1+$1,$2,$3*
1,1,$1+$1,$4,$5*
1,1,$1+$1,$6,$7*
1,1,$1+$1,$8,$9*
0 Add four rect primitives between the rounded corners*
20,1,$1+$1,$2,$3,$4,$5,0*
20,1,$1+$1,$4,$5,$6,$7,0*
20,1,$1+$1,$6,$7,$8,$9,0*
20,1,$1+$1,$8,$9,$2,$3,0*%
G04 Aperture macros list end*
%TA.AperFunction,ComponentPad*%
%ADD10C,1.600000*%
%TD*%
%TA.AperFunction,ComponentPad*%
%ADD11RoundRect,0.250000X-0.550000X-0.550000X0.550000X-0.550000X0.550000X0.550000X-0.550000X0.550000X0*%
%TD*%
%TA.AperFunction,ComponentPad*%
%ADD12RoundRect,0.250000X-1.050000X-1.050000X1.050000X-1.050000X1.050000X1.050000X-1.050000X1.050000X0*%
%TD*%
%TA.AperFunction,ComponentPad*%
%ADD13C,2.600000*%
%TD*%
%TA.AperFunction,ViaPad*%
%ADD14C,0.600000*%
%TD*%
%TA.AperFunction,Conductor*%
%ADD15C,1.000000*%
%TD*%
G04 APERTURE END LIST*
D10*
%TO.P,SW3,2,2_2*%
%TO.N,/SUB*%
X81310000Y-90000000D03*
D11*
%TO.P,SW3,1,1_1*%
%TO.N,/GND*%
X73690000Y-90000000D03*
%TD*%
%TO.P,U1,1*%
%TO.N,/SUB*%
X118690000Y-47380000D03*
D10*
%TO.P,U1,2*%
%TO.N,/B0*%
X118690000Y-49920000D03*
%TO.P,U1,3*%
%TO.N,/BX0*%
X118690000Y-52460000D03*
%TO.P,U1,4*%
%TO.N,/SUB*%
X118690000Y-55000000D03*
%TO.P,U1,5*%
%TO.N,/B1*%
X118690000Y-57540000D03*
%TO.P,U1,6*%
%TO.N,/BX1*%
X118690000Y-60080000D03*
%TO.P,U1,7,GND_7*%
%TO.N,/+5V*%
X118690000Y-62620000D03*
%TO.P,U1,8*%
%TO.N,/BX2*%
X126310000Y-62620000D03*
%TO.P,U1,9*%
%TO.N,/SUB*%
X126310000Y-60080000D03*
%TO.P,U1,10*%
%TO.N,/B2*%
X126310000Y-57540000D03*
%TO.P,U1,11*%
%TO.N,/BX3*%
X126310000Y-55000000D03*
%TO.P,U1,12*%
%TO.N,/SUB*%
X126310000Y-52460000D03*
%TO.P,U1,13*%
%TO.N,/B3*%
X126310000Y-49920000D03*
%TO.P,U1,14,VCC_14*%
%TO.N,/GND*%
X126310000Y-47380000D03*
%TD*%
D11*
%TO.P,SW2,1,SW1_1*%
%TO.N,/GND*%
X72500000Y-70000000D03*
D10*
%TO.P,SW2,2,SW2_2*%
X72500000Y-72540000D03*
%TO.P,SW2,3,SW3_3*%
X72500000Y-75080000D03*
%TO.P,SW2,4,SW4_4*%
X72500000Y-77620000D03*
%TO.P,SW2,5,SW4_5*%
%TO.N,/B0*%
X80120000Y-77620000D03*
%TO.P,SW2,6,SW3_6*%
%TO.N,/B1*%
X80120000Y-75080000D03*
%TO.P,SW2,7,SW2_7*%
%TO.N,/B2*%
X80120000Y-72540000D03*
%TO.P,SW2,8,SW1_8*%
%TO.N,/B3*%
X80120000Y-70000000D03*
%TD*%
D11*
%TO.P,SW1,1,SW1_1*%
%TO.N,/GND*%
X73732500Y-43702500D03*
D10*
%TO.P,SW1,2,SW2_2*%
X73732500Y-46242500D03*
%TO.P,SW1,3,SW3_3*%
X73732500Y-48782500D03*
%TO.P,SW1,4,SW4_4*%
X73732500Y-51322500D03*
%TO.P,SW1,5,SW4_5*%
%TO.N,/A0*%
X81352500Y-51322500D03*
%TO.P,SW1,6,SW3_6*%
%TO.N,/A1*%
X81352500Y-48782500D03*
%TO.P,SW1,7,SW2_7*%
%TO.N,/A2*%
X81352500Y-46242500D03*
%TO.P,SW1,8,SW1_8*%
%TO.N,/A3*%
X81352500Y-43702500D03*
%TD*%
D12*
%TO.P,J1,1,Pin_1_1*%
%TO.N,/GND*%
X75000000Y-22500000D03*
D13*
%TO.P,J1,2,Pin_2_2*%
%TO.N,/VIN_5V*%
X80000000Y-22500000D03*
%TD*%
D14*
%TO.N,/+5V*%
X115000000Y-62620000D03*
%TD*%
%TO.N,/+5V*%
D15*
X118690000Y-62620000D02*
X115000000Y-62620000D01*
%TO.N,/SUB*%
X94562692Y-90000000D02*
X81310000Y-90000000D01*
X122549315Y-62013377D02*
X94562692Y-90000000D01*
X122549315Y-57450685D02*
X122549315Y-62013377D01*
X122549315Y-57450685D02*
X125178630Y-60080000D01*
%TO.N,/B1*%
X80000000Y-82500000D02*
X104960000Y-57540000D01*
X77690000Y-76378630D02*
X77690000Y-82500000D01*
X77690000Y-82500000D02*
X80000000Y-82500000D01*
X78988630Y-75080000D02*
X77690000Y-76378630D01*
X80120000Y-75080000D02*
X78988630Y-75080000D01*
X104960000Y-57540000D02*
X118690000Y-57540000D01*
%TO.N,/B0*%
X108532692Y-49920000D02*
X118690000Y-49920000D01*
X80832692Y-77620000D02*
X108532692Y-49920000D01*
X80120000Y-77620000D02*
X80832692Y-77620000D01*
%TO.N,/B2*%
X75040000Y-72540000D02*
X80120000Y-72540000D01*
X75000000Y-72580000D02*
X75040000Y-72540000D01*
X75000000Y-79671573D02*
X75000000Y-72580000D01*
X75690000Y-80361572D02*
X75000000Y-79671573D01*
X75690000Y-88418198D02*
X75690000Y-80361572D01*
X75000000Y-92271802D02*
X75990000Y-91281802D01*
X130000000Y-97500000D02*
X75000000Y-97500000D01*
X130000000Y-60098630D02*
X130000000Y-97500000D01*
X75000000Y-97500000D02*
X75000000Y-92271802D01*
X75990000Y-91281802D02*
X75990000Y-88718198D01*
X127441370Y-57540000D02*
X130000000Y-60098630D01*
X126310000Y-57540000D02*
X127441370Y-57540000D01*
X75990000Y-88718198D02*
X75690000Y-88418198D01*
%TO.N,/SUB*%
X125178630Y-60080000D02*
X126310000Y-60080000D01*
X120990000Y-55891370D02*
X122549315Y-57450685D01*
X120990000Y-53831370D02*
X120990000Y-55891370D01*
X122361370Y-52460000D02*
X126310000Y-52460000D01*
X120990000Y-53831370D02*
X122361370Y-52460000D01*
X119821370Y-55000000D02*
X118690000Y-55000000D01*
X120990000Y-53831370D02*
X119821370Y-55000000D01*
X120990000Y-48967308D02*
X120990000Y-53831370D01*
X119402692Y-47380000D02*
X120990000Y-48967308D01*
X118690000Y-47380000D02*
X119402692Y-47380000D01*
X117890000Y-47380000D02*
X118690000Y-47380000D01*
%TO.N,/B3*%
X125178630Y-49920000D02*
X126310000Y-49920000D01*
X105040000Y-45080000D02*
X120338630Y-45080000D01*
X80120000Y-70000000D02*
X105040000Y-45080000D01*
X120338630Y-45080000D02*
X125178630Y-49920000D01*
%TO.N,/GND*%
X58757500Y-46242500D02*
X73732500Y-46242500D01*
X57500000Y-47500000D02*
X58757500Y-46242500D01*
X60000000Y-15000000D02*
X57500000Y-17500000D01*
X57500000Y-17500000D02*
X57500000Y-47500000D01*
X93930000Y-15000000D02*
X60000000Y-15000000D01*
X126310000Y-47380000D02*
X93930000Y-15000000D01*
X73690000Y-81190000D02*
X73690000Y-90000000D01*
X72500000Y-80000000D02*
X73690000Y-81190000D01*
X72500000Y-77620000D02*
X72500000Y-80000000D01*
X72500000Y-75080000D02*
X72500000Y-77620000D01*
X72500000Y-72540000D02*
X72500000Y-75080000D01*
X72500000Y-70000000D02*
X72500000Y-72540000D01*
X72500000Y-54965000D02*
X72500000Y-70000000D01*
X73732500Y-53732500D02*
X72500000Y-54965000D01*
X73732500Y-51322500D02*
X73732500Y-53732500D01*
X73732500Y-48782500D02*
X73732500Y-51322500D01*
X73732500Y-46242500D02*
X73732500Y-48782500D01*
X73732500Y-43702500D02*
X73732500Y-46242500D01*
X73732500Y-28732500D02*
X73732500Y-43702500D01*
X70000000Y-25000000D02*
X73732500Y-28732500D01*
X70000000Y-22500000D02*
X70000000Y-25000000D01*
X75000000Y-22500000D02*
X70000000Y-22500000D01*
%TD*%
M02*
