  0
SECTION
  2
HEADER
  9
$ANGBASE
  50
0.0
  9
$ANGDIR
  70
1
  9
$MEASUREMENT
  70
0
  9
$INSUNITS
  70
1
  0
ENDSEC
  0
SECTION
  2
TABLES
  0
TABLE
  2
LTYPE
  70
4
  0
LTYPE
  5
40F
  2
CONTINUOUS
  70
0
  3
Solid line
  72
65
  73
0
  40
0.0
  0
LTYPE
  5
410
  2
DASHDOT
 70
0
  3
Dash Dot ____ _ ____ _
 72
65
 73
4
 40
2.0
 49
1.25
 49
-0.25
 49
0.25
 49
-0.25
  0
LTYPE
  5
411
  2
DASHED
 70
0
  3
Dashed __ __ __ __ __
 72
65
 73
2
 40
0.75
 49
0.5
 49
-0.25
  0
LTYPE
  5
43B
  2
DOTTED
 70
0
  3
Dotted .  .  .  .
 72
65
 73
2
 40
0.2
 49
0.0
 49
-0.2
  0
ENDTAB
  0
TABLE
  2
STYLE
  70
4
  0
STYLE
  2
KICAD
  70
0
  40
0
  41
1
  42
1
  50
0
  71
0
  3
isocp.shx
  0
STYLE
  2
KICADB
  70
0
  40
0
  41
1
  42
1
  50
0
  71
0
  3
isocp.shx
  0
STYLE
  2
KICADI
  70
0
  40
0
  41
1
  42
1
  50
15
  71
0
  3
isocp.shx
  0
STYLE
  2
KICADBI
  70
0
  40
0
  41
1
  42
1
  50
15
  71
0
  3
isocp.shx
  0
ENDTAB
  0
TABLE
  2
LAYER
  70
2
  0
LAYER
  2
F.Cu
  70
0
  62
13
  420
13120564
  6
CONTINUOUS
  0
LAYER
  2
Edge.Cuts
  70
0
  62
254
  420
13685453
  6
CONTINUOUS
  0
ENDTAB
  0
ENDSEC
  0
SECTION
  2
ENTITIES
0
LINE
8
F.Cu
6
CONTINUOUS
10
4.9819774803149608
20
-2.2352144881889764
11
4.9876817716535431
21
-2.2375772834645669
0
LINE
8
F.Cu
6
CONTINUOUS
10
4.9876817716535431
20
-2.2375772834645669
11
4.9928155511811019
21
-2.2410075590551179
0
LINE
8
F.Cu
6
CONTINUOUS
10
4.9928155511811019
20
-2.2410075590551179
11
4.9971814173228344
21
-2.2453734251968505
0
LINE
8
F.Cu
6
CONTINUOUS
10
4.9971814173228344
20
-2.2453734251968505
11
4.9973790944881893
21
-2.2456692913385825
0
LINE
8
F.Cu
6
CONTINUOUS
10
4.9973790944881893
20
-2.2456692913385825
11
5.0173767716535433
21
-2.2456692913385825
0
LINE
8
F.Cu
6
CONTINUOUS
10
5.0173767716535433
20
-2.2456692913385825
11
5.0199455905511812
21
-2.2458376771653543
0
LINE
8
F.Cu
6
CONTINUOUS
10
5.0199455905511812
20
-2.2458376771653543
11
5.0199461811023625
21
-2.2458376771653543
0
LINE
8
F.Cu
6
CONTINUOUS
10
5.0199461811023625
20
-2.2458376771653543
11
5.0249099212598427
21
-2.2471677165354329
0
LINE
8
F.Cu
6
CONTINUOUS
10
5.0249099212598427
20
-2.2471677165354329
11
5.0293602755905509
21
-2.249737125984252
0
LINE
8
F.Cu
6
CONTINUOUS
10
5.0293602755905509
20
-2.249737125984252
11
5.0293608661417322
21
-2.2497377165354329
0
LINE
8
F.Cu
6
CONTINUOUS
10
5.0293608661417322
20
-2.2497377165354329
11
5.0312961811023618
21
-2.2514349212598423
0
LINE
8
F.Cu
6
CONTINUOUS
10
5.0312961811023618
20
-2.2514349212598423
11
5.1320296456692915
21
-2.3521683464566929
0
LINE
8
F.Cu
6
CONTINUOUS
10
5.1320296456692915
20
-2.3521683464566929
11
5.1337270866141731
21
-2.3541039370078738
0
LINE
8
F.Cu
6
CONTINUOUS
10
5.1337270866141731
20
-2.3541039370078738
11
5.1337274409448819
21
-2.3541042913385826
0
LINE
8
F.Cu
6
CONTINUOUS
10
5.1337274409448819
20
-2.3541042913385826
11
5.1349440157480313
21
-2.3562114960629921
0
LINE
8
F.Cu
6
CONTINUOUS
10
5.1349440157480313
20
-2.3562114960629921
11
5.136296850393701
21
-2.3585546456692912
0
LINE
8
F.Cu
6
CONTINUOUS
10
5.136296850393701
20
-2.3585546456692912
11
5.1376268897637791
21
-2.3635183858267714
0
LINE
8
F.Cu
6
CONTINUOUS
10
5.1376268897637791
20
-2.3635183858267714
11
5.1376268897637791
21
-2.3635189763779527
0
LINE
8
F.Cu
6
CONTINUOUS
10
5.1376268897637791
20
-2.3635189763779527
11
5.1377952755905509
21
-2.3660877952755905
0
LINE
8
F.Cu
6
CONTINUOUS
10
5.1377952755905509
20
-2.3660877952755905
11
5.1377952755905509
21
-3.8385826771653542
0
LINE
8
F.Cu
6
CONTINUOUS
10
5.1377952755905509
20
-3.8385826771653542
11
5.1376268503937004
21
-3.8411520866141733
0
LINE
8
F.Cu
6
CONTINUOUS
10
5.1376268503937004
20
-3.8411520866141733
11
5.136296850393701
21
-3.8461158267716535
0
LINE
8
F.Cu
6
CONTINUOUS
10
5.136296850393701
20
-3.8461158267716535
11
5.1337274409448819
21
-3.8505661811023622
0
LINE
8
F.Cu
6
CONTINUOUS
10
5.1337274409448819
20
-3.8505661811023622
11
5.1300937401574798
21
-3.8541998818897638
0
LINE
8
F.Cu
6
CONTINUOUS
10
5.1300937401574798
20
-3.8541998818897638
11
5.1256433858267716
21
-3.8567692913385825
0
LINE
8
F.Cu
6
CONTINUOUS
10
5.1256433858267716
20
-3.8567692913385825
11
5.1206796456692913
21
-3.8580992913385828
0
LINE
8
F.Cu
6
CONTINUOUS
10
5.1206796456692913
20
-3.8580992913385828
11
5.1181102362204722
21
-3.8582677165354329
0
LINE
8
F.Cu
6
CONTINUOUS
10
5.1181102362204722
20
-3.8582677165354329
11
2.9527559055118111
21
-3.8582677165354329
0
LINE
8
F.Cu
6
CONTINUOUS
10
2.9527559055118111
20
-3.8582677165354329
11
2.950186496062992
21
-3.8580992913385828
0
LINE
8
F.Cu
6
CONTINUOUS
10
2.950186496062992
20
-3.8580992913385828
11
2.9452227559055117
21
-3.8567692913385825
0
LINE
8
F.Cu
6
CONTINUOUS
10
2.9452227559055117
20
-3.8567692913385825
11
2.9407724015748031
21
-3.8541998818897638
0
LINE
8
F.Cu
6
CONTINUOUS
10
2.9407724015748031
20
-3.8541998818897638
11
2.9371387007874015
21
-3.8505661811023622
0
LINE
8
F.Cu
6
CONTINUOUS
10
2.9371387007874015
20
-3.8505661811023622
11
2.9345692913385828
21
-3.8461158267716535
0
LINE
8
F.Cu
6
CONTINUOUS
10
2.9345692913385828
20
-3.8461158267716535
11
2.9332392913385825
21
-3.8411520866141733
0
LINE
8
F.Cu
6
CONTINUOUS
10
2.9332392913385825
20
-3.8411520866141733
11
2.9330708661417324
21
-3.8385826771653542
0
LINE
8
F.Cu
6
CONTINUOUS
10
2.9330708661417324
20
-3.8385826771653542
11
2.9330708661417324
21
-3.6327481102362205
0
LINE
8
F.Cu
6
CONTINUOUS
10
2.9330708661417324
20
-3.6327481102362205
11
2.9332392519685038
21
-3.6301792913385826
0
LINE
8
F.Cu
6
CONTINUOUS
10
2.9332392519685038
20
-3.6301792913385826
11
2.9332392519685038
21
-3.6301787007874013
0
LINE
8
F.Cu
6
CONTINUOUS
10
2.9332392519685038
20
-3.6301787007874013
11
2.9345692913385828
21
-3.6252149606299211
0
LINE
8
F.Cu
6
CONTINUOUS
10
2.9345692913385828
20
-3.6252149606299211
11
2.9371387007874015
21
-3.6207646062992125
0
LINE
8
F.Cu
6
CONTINUOUS
10
2.9371387007874015
20
-3.6207646062992125
11
2.9371392913385828
21
-3.6207639763779529
0
LINE
8
F.Cu
6
CONTINUOUS
10
2.9371392913385828
20
-3.6207639763779529
11
2.9388364960629922
21
-3.6188287007874016
0
LINE
8
F.Cu
6
CONTINUOUS
10
2.9388364960629922
20
-3.6188287007874016
11
2.9720472440944881
21
-3.5856179133858266
0
LINE
8
F.Cu
6
CONTINUOUS
10
2.9720472440944881
20
-3.5856179133858266
11
2.9720472440944881
21
-3.500996220472441
0
LINE
8
F.Cu
6
CONTINUOUS
10
2.9720472440944881
20
-3.500996220472441
11
2.9660018503937007
21
-3.4949508267716536
0
LINE
8
F.Cu
6
CONTINUOUS
10
2.9660018503937007
20
-3.4949508267716536
11
2.9643046456692912
21
-3.4930155118110235
0
LINE
8
F.Cu
6
CONTINUOUS
10
2.9643046456692912
20
-3.4930155118110235
11
2.9643040551181103
21
-3.4930149212598423
0
LINE
8
F.Cu
6
CONTINUOUS
10
2.9643040551181103
20
-3.4930149212598423
11
2.9617346456692912
21
-3.4885645669291336
0
LINE
8
F.Cu
6
CONTINUOUS
10
2.9617346456692912
20
-3.4885645669291336
11
2.9608624015748033
21
-3.4853092913385826
0
LINE
8
F.Cu
6
CONTINUOUS
10
2.9608624015748033
20
-3.4853092913385826
11
2.9604046062992126
21
-3.4836008267716534
0
LINE
8
F.Cu
6
CONTINUOUS
10
2.9604046062992126
20
-3.4836008267716534
11
2.9604046062992126
21
-3.4836001968503938
0
LINE
8
F.Cu
6
CONTINUOUS
10
2.9604046062992126
20
-3.4836001968503938
11
2.9602362204724408
21
-3.4810314173228347
0
LINE
8
F.Cu
6
CONTINUOUS
10
2.9602362204724408
20
-3.4810314173228347
11
2.9602362204724408
21
-3.1719952362204724
0
LINE
8
F.Cu
6
CONTINUOUS
10
2.9602362204724408
20
-3.1719952362204724
11
2.9388364960629922
21
-3.1505955511811021
0
LINE
8
F.Cu
6
CONTINUOUS
10
2.9388364960629922
20
-3.1505955511811021
11
2.9371390157480315
21
-3.1486599212598425
0
LINE
8
F.Cu
6
CONTINUOUS
10
2.9371390157480315
20
-3.1486599212598425
11
2.9371387007874015
21
-3.1486596062992125
0
LINE
8
F.Cu
6
CONTINUOUS
10
2.9371387007874015
20
-3.1486596062992125
11
2.9345692913385828
21
-3.1442092519685039
0
LINE
8
F.Cu
6
CONTINUOUS
10
2.9345692913385828
20
-3.1442092519685039
11
2.9339969291338583
21
-3.1420731496062992
0
LINE
8
F.Cu
6
CONTINUOUS
10
2.9339969291338583
20
-3.1420731496062992
11
2.9332392519685038
21
-3.1392455118110236
0
LINE
8
F.Cu
6
CONTINUOUS
10
2.9332392519685038
20
-3.1392455118110236
11
2.9332392519685038
21
-3.1392448818897636
0
LINE
8
F.Cu
6
CONTINUOUS
10
2.9332392519685038
20
-3.1392448818897636
11
2.9330708661417324
21
-3.1366761023622045
0
LINE
8
F.Cu
6
CONTINUOUS
10
2.9330708661417324
20
-3.1366761023622045
11
2.9330708661417324
21
-2.8574803149606298
0
LINE
8
F.Cu
6
CONTINUOUS
10
2.9330708661417324
20
-2.8574803149606298
11
2.9332392519685038
21
-2.854911496062992
0
LINE
8
F.Cu
6
CONTINUOUS
10
2.9332392519685038
20
-2.854911496062992
11
2.9332392519685038
21
-2.8549109055118111
0
LINE
8
F.Cu
6
CONTINUOUS
10
2.9332392519685038
20
-2.8549109055118111
11
2.9345692913385828
21
-2.8499471653543305
0
LINE
8
F.Cu
6
CONTINUOUS
10
2.9345692913385828
20
-2.8499471653543305
11
2.9371387007874015
21
-2.8454968110236218
0
LINE
8
F.Cu
6
CONTINUOUS
10
2.9371387007874015
20
-2.8454968110236218
11
2.9371392913385828
21
-2.8454961811023622
0
LINE
8
F.Cu
6
CONTINUOUS
10
2.9371392913385828
20
-2.8454961811023622
11
2.9388364960629922
21
-2.843560905511811
0
LINE
8
F.Cu
6
CONTINUOUS
10
2.9388364960629922
20
-2.843560905511811
11
2.9404112992125984
21
-2.8419860629921261
0
LINE
8
F.Cu
6
CONTINUOUS
10
2.9404112992125984
20
-2.8419860629921261
11
2.9423468897637797
21
-2.8402885826771653
0
LINE
8
F.Cu
6
CONTINUOUS
10
2.9423468897637797
20
-2.8402885826771653
11
2.9423472047244092
21
-2.8402883070866141
0
LINE
8
F.Cu
6
CONTINUOUS
10
2.9423472047244092
20
-2.8402883070866141
11
2.9467975590551179
21
-2.8377188976377954
0
LINE
8
F.Cu
6
CONTINUOUS
10
2.9467975590551179
20
-2.8377188976377954
11
2.9478464960629922
21
-2.8374377952755907
0
LINE
8
F.Cu
6
CONTINUOUS
10
2.9478464960629922
20
-2.8374377952755907
11
2.9517612992125986
21
-2.8363888582677164
0
LINE
8
F.Cu
6
CONTINUOUS
10
2.9517612992125986
20
-2.8363888582677164
11
2.9517618897637794
21
-2.8363888582677164
0
LINE
8
F.Cu
6
CONTINUOUS
10
2.9517618897637794
20
-2.8363888582677164
11
2.9543307086614172
21
-2.836220472440945
0
LINE
8
F.Cu
6
CONTINUOUS
10
2.9543307086614172
20
-2.836220472440945
11
3.1297862598425197
21
-2.836220472440945
0
LINE
8
F.Cu
6
CONTINUOUS
10
3.1297862598425197
20
-2.836220472440945
11
3.1299839370078741
21
-2.8359246062992125
0
LINE
8
F.Cu
6
CONTINUOUS
10
3.1299839370078741
20
-2.8359246062992125
11
3.1343498031496062
21
-2.8315587401574804
0
LINE
8
F.Cu
6
CONTINUOUS
10
3.1343498031496062
20
-2.8315587401574804
11
3.1394835826771654
21
-2.8281284645669289
0
LINE
8
F.Cu
6
CONTINUOUS
10
3.1394835826771654
20
-2.8281284645669289
11
3.1451878740157482
21
-2.8257656692913384
0
LINE
8
F.Cu
6
CONTINUOUS
10
3.1451878740157482
20
-2.8257656692913384
11
3.1512435433070864
21
-2.8245611023622046
0
LINE
8
F.Cu
6
CONTINUOUS
10
3.1512435433070864
20
-2.8245611023622046
11
3.1574178740157479
21
-2.8245611023622046
0
LINE
8
F.Cu
6
CONTINUOUS
10
3.1574178740157479
20
-2.8245611023622046
11
3.1634735433070866
21
-2.8257656692913384
0
LINE
8
F.Cu
6
CONTINUOUS
10
3.1634735433070866
20
-2.8257656692913384
11
3.1691778346456694
21
-2.8281284645669289
0
LINE
8
F.Cu
6
CONTINUOUS
10
3.1691778346456694
20
-2.8281284645669289
11
3.1743116141732282
21
-2.8315587401574804
0
LINE
8
F.Cu
6
CONTINUOUS
10
3.1743116141732282
20
-2.8315587401574804
11
3.1786774803149607
21
-2.8359246062992125
0
LINE
8
F.Cu
6
CONTINUOUS
10
3.1786774803149607
20
-2.8359246062992125
11
3.1821077559055118
21
-2.8410583858267717
0
LINE
8
F.Cu
6
CONTINUOUS
10
3.1821077559055118
20
-2.8410583858267717
11
3.1844705511811022
21
-2.8467626771653545
0
LINE
8
F.Cu
6
CONTINUOUS
10
3.1844705511811022
20
-2.8467626771653545
11
3.1856751181102361
21
-2.8528183464566927
0
LINE
8
F.Cu
6
CONTINUOUS
10
3.1856751181102361
20
-2.8528183464566927
11
3.1856751181102361
21
-2.8589926771653542
0
LINE
8
F.Cu
6
CONTINUOUS
10
3.1856751181102361
20
-2.8589926771653542
11
3.1844705511811022
21
-2.8650483464566929
0
LINE
8
F.Cu
6
CONTINUOUS
10
3.1844705511811022
20
-2.8650483464566929
11
3.1821077559055118
21
-2.8707526377952757
0
LINE
8
F.Cu
6
CONTINUOUS
10
3.1821077559055118
20
-2.8707526377952757
11
3.1786774803149607
21
-2.8758864173228345
0
LINE
8
F.Cu
6
CONTINUOUS
10
3.1786774803149607
20
-2.8758864173228345
11
3.1743116141732282
21
-2.880252283464567
0
LINE
8
F.Cu
6
CONTINUOUS
10
3.1743116141732282
20
-2.880252283464567
11
3.1691778346456694
21
-2.8836825590551181
0
LINE
8
F.Cu
6
CONTINUOUS
10
3.1691778346456694
20
-2.8836825590551181
11
3.1634735433070866
21
-2.8860453543307085
0
LINE
8
F.Cu
6
CONTINUOUS
10
3.1634735433070866
20
-2.8860453543307085
11
3.1574178740157479
21
-2.8872499212598424
0
LINE
8
F.Cu
6
CONTINUOUS
10
3.1574178740157479
20
-2.8872499212598424
11
3.1512435433070864
21
-2.8872499212598424
0
LINE
8
F.Cu
6
CONTINUOUS
10
3.1512435433070864
20
-2.8872499212598424
11
3.1451878740157482
21
-2.8860453543307085
0
LINE
8
F.Cu
6
CONTINUOUS
10
3.1451878740157482
20
-2.8860453543307085
11
3.1394835826771654
21
-2.8836825590551181
0
LINE
8
F.Cu
6
CONTINUOUS
10
3.1394835826771654
20
-2.8836825590551181
11
3.1343498031496062
21
-2.880252283464567
0
LINE
8
F.Cu
6
CONTINUOUS
10
3.1343498031496062
20
-2.880252283464567
11
3.1299839370078741
21
-2.8758864173228345
0
LINE
8
F.Cu
6
CONTINUOUS
10
3.1299839370078741
20
-2.8758864173228345
11
3.1297862598425197
21
-2.8755905511811024
0
LINE
8
F.Cu
6
CONTINUOUS
10
3.1297862598425197
20
-2.8755905511811024
11
2.9724409448818898
21
-2.8755905511811024
0
LINE
8
F.Cu
6
CONTINUOUS
10
2.9724409448818898
20
-2.8755905511811024
11
2.9724409448818898
21
-3.1285222834645667
0
LINE
8
F.Cu
6
CONTINUOUS
10
2.9724409448818898
20
-3.1285222834645667
11
2.9938406692913384
21
-3.1499220078740158
0
LINE
8
F.Cu
6
CONTINUOUS
10
2.9938406692913384
20
-3.1499220078740158
11
2.9955381102362204
21
-3.1518575590551179
0
LINE
8
F.Cu
6
CONTINUOUS
10
2.9955381102362204
20
-3.1518575590551179
11
2.9955384645669292
21
-3.1518579133858267
0
LINE
8
F.Cu
6
CONTINUOUS
10
2.9955384645669292
20
-3.1518579133858267
11
2.9972732677165355
21
-3.1548627165354328
0
LINE
8
F.Cu
6
CONTINUOUS
10
2.9972732677165355
20
-3.1548627165354328
11
2.9981078740157479
21
-3.1563082677165353
0
LINE
8
F.Cu
6
CONTINUOUS
10
2.9981078740157479
20
-3.1563082677165353
11
2.9994379133858269
21
-3.1612720078740155
0
LINE
8
F.Cu
6
CONTINUOUS
10
2.9994379133858269
20
-3.1612720078740155
11
2.9994379133858269
21
-3.1612725984251968
0
LINE
8
F.Cu
6
CONTINUOUS
10
2.9994379133858269
20
-3.1612725984251968
11
2.9996062992125982
21
-3.1638414173228346
0
LINE
8
F.Cu
6
CONTINUOUS
10
2.9996062992125982
20
-3.1638414173228346
11
2.9996062992125982
21
-3.4728776377952757
0
LINE
8
F.Cu
6
CONTINUOUS
10
2.9996062992125982
20
-3.4728776377952757
11
3.0056516929133856
21
-3.4789230314960631
0
LINE
8
F.Cu
6
CONTINUOUS
10
3.0056516929133856
20
-3.4789230314960631
11
3.0073491338582676
21
-3.4808585826771652
0
LINE
8
F.Cu
6
CONTINUOUS
10
3.0073491338582676
20
-3.4808585826771652
11
3.0073494881889764
21
-3.480858937007874
0
LINE
8
F.Cu
6
CONTINUOUS
10
3.0073494881889764
20
-3.480858937007874
11
3.0089325196850392
21
-3.4836008267716534
0
LINE
8
F.Cu
6
CONTINUOUS
10
3.0089325196850392
20
-3.4836008267716534
11
3.0099188976377951
21
-3.4853092913385826
0
LINE
8
F.Cu
6
CONTINUOUS
10
3.0099188976377951
20
-3.4853092913385826
11
3.0112489370078741
21
-3.4902730314960628
0
LINE
8
F.Cu
6
CONTINUOUS
10
3.0112489370078741
20
-3.4902730314960628
11
3.0112489370078741
21
-3.4902736220472441
0
LINE
8
F.Cu
6
CONTINUOUS
10
3.0112489370078741
20
-3.4902736220472441
11
3.0114173228346455
21
-3.4928424409448819
0
LINE
8
F.Cu
6
CONTINUOUS
10
3.0114173228346455
20
-3.4928424409448819
11
3.0114173228346455
21
-3.5937717322834644
0
LINE
8
F.Cu
6
CONTINUOUS
10
3.0114173228346455
20
-3.5937717322834644
11
3.0112489370078741
21
-3.5963405118110234
0
LINE
8
F.Cu
6
CONTINUOUS
10
3.0112489370078741
20
-3.5963405118110234
11
3.0112489370078741
21
-3.5963411417322835
0
LINE
8
F.Cu
6
CONTINUOUS
10
3.0112489370078741
20
-3.5963411417322835
11
3.0099188976377951
21
-3.6013048818897637
0
LINE
8
F.Cu
6
CONTINUOUS
10
3.0099188976377951
20
-3.6013048818897637
11
3.0073494881889764
21
-3.6057552362204723
0
LINE
8
F.Cu
6
CONTINUOUS
10
3.0073494881889764
20
-3.6057552362204723
11
3.0073491338582676
21
-3.6057555511811024
0
LINE
8
F.Cu
6
CONTINUOUS
10
3.0073491338582676
20
-3.6057555511811024
11
3.0056516929133856
21
-3.607691181102362
0
LINE
8
F.Cu
6
CONTINUOUS
10
3.0056516929133856
20
-3.607691181102362
11
2.9724409448818898
21
-3.6409018897637795
0
LINE
8
F.Cu
6
CONTINUOUS
10
2.9724409448818898
20
-3.6409018897637795
11
2.9724409448818898
21
-3.8188976377952755
0
LINE
8
F.Cu
6
CONTINUOUS
10
2.9724409448818898
20
-3.8188976377952755
11
5.0984251968503935
21
-3.8188976377952755
0
LINE
8
F.Cu
6
CONTINUOUS
10
5.0984251968503935
20
-3.8188976377952755
11
5.0984251968503935
21
-2.3742415748031496
0
LINE
8
F.Cu
6
CONTINUOUS
10
5.0984251968503935
20
-2.3742415748031496
11
5.0092229921259843
21
-2.2850393700787399
0
LINE
8
F.Cu
6
CONTINUOUS
10
5.0092229921259843
20
-2.2850393700787399
11
4.9973790944881893
21
-2.2850393700787399
0
LINE
8
F.Cu
6
CONTINUOUS
10
4.9973790944881893
20
-2.2850393700787399
11
4.9971814173228344
21
-2.2853352362204724
0
LINE
8
F.Cu
6
CONTINUOUS
10
4.9971814173228344
20
-2.2853352362204724
11
4.9928155511811019
21
-2.2897011023622045
0
LINE
8
F.Cu
6
CONTINUOUS
10
4.9928155511811019
20
-2.2897011023622045
11
4.9876817716535431
21
-2.293131377952756
0
LINE
8
F.Cu
6
CONTINUOUS
10
4.9876817716535431
20
-2.293131377952756
11
4.9819774803149608
21
-2.2954941732283465
0
LINE
8
F.Cu
6
CONTINUOUS
10
4.9819774803149608
20
-2.2954941732283465
11
4.9759218110236221
21
-2.2966987401574803
0
LINE
8
F.Cu
6
CONTINUOUS
10
4.9759218110236221
20
-2.2966987401574803
11
4.9697474803149602
21
-2.2966987401574803
0
LINE
8
F.Cu
6
CONTINUOUS
10
4.9697474803149602
20
-2.2966987401574803
11
4.9636918110236223
21
-2.2954941732283465
0
LINE
8
F.Cu
6
CONTINUOUS
10
4.9636918110236223
20
-2.2954941732283465
11
4.9579875196850391
21
-2.293131377952756
0
LINE
8
F.Cu
6
CONTINUOUS
10
4.9579875196850391
20
-2.293131377952756
11
4.9528537401574804
21
-2.2897011023622045
0
LINE
8
F.Cu
6
CONTINUOUS
10
4.9528537401574804
20
-2.2897011023622045
11
4.9484878740157479
21
-2.2853352362204724
0
LINE
8
F.Cu
6
CONTINUOUS
10
4.9484878740157479
20
-2.2853352362204724
11
4.9450575984251968
21
-2.2802014566929132
0
LINE
8
F.Cu
6
CONTINUOUS
10
4.9450575984251968
20
-2.2802014566929132
11
4.9426948031496059
21
-2.2744971653543304
0
LINE
8
F.Cu
6
CONTINUOUS
10
4.9426948031496059
20
-2.2744971653543304
11
4.9414902362204725
21
-2.2684414960629922
0
LINE
8
F.Cu
6
CONTINUOUS
10
4.9414902362204725
20
-2.2684414960629922
11
4.9414902362204725
21
-2.2622671653543307
0
LINE
8
F.Cu
6
CONTINUOUS
10
4.9414902362204725
20
-2.2622671653543307
11
4.9426948031496059
21
-2.256211496062992
0
LINE
8
F.Cu
6
CONTINUOUS
10
4.9426948031496059
20
-2.256211496062992
11
4.9450575984251968
21
-2.2505072047244092
0
LINE
8
F.Cu
6
CONTINUOUS
10
4.9450575984251968
20
-2.2505072047244092
11
4.9484878740157479
21
-2.2453734251968505
0
LINE
8
F.Cu
6
CONTINUOUS
10
4.9484878740157479
20
-2.2453734251968505
11
4.9528537401574804
21
-2.2410075590551179
0
LINE
8
F.Cu
6
CONTINUOUS
10
4.9528537401574804
20
-2.2410075590551179
11
4.9579875196850391
21
-2.2375772834645669
0
LINE
8
F.Cu
6
CONTINUOUS
10
4.9579875196850391
20
-2.2375772834645669
11
4.9636918110236223
21
-2.2352144881889764
0
LINE
8
F.Cu
6
CONTINUOUS
10
4.9636918110236223
20
-2.2352144881889764
11
4.9697474803149602
21
-2.2340099212598425
0
LINE
8
F.Cu
6
CONTINUOUS
10
4.9697474803149602
20
-2.2340099212598425
11
4.9759218110236221
21
-2.2340099212598425
0
LINE
8
F.Cu
6
CONTINUOUS
10
4.9759218110236221
20
-2.2340099212598425
11
4.9819774803149608
21
-2.2352144881889764
0
LINE
8
F.Cu
6
CONTINUOUS
10
3.7006003149606297
20
-0.5710345275590551
11
3.700600905511811
21
-0.5710345275590551
0
LINE
8
F.Cu
6
CONTINUOUS
10
3.700600905511811
20
-0.5710345275590551
11
3.7055646456692912
21
-0.5723645669291338
0
LINE
8
F.Cu
6
CONTINUOUS
10
3.7055646456692912
20
-0.5723645669291338
11
3.7100149999999998
21
-0.5749339763779527
0
LINE
8
F.Cu
6
CONTINUOUS
10
3.7100149999999998
20
-0.5749339763779527
11
3.7100155905511811
21
-0.5749345669291338
0
LINE
8
F.Cu
6
CONTINUOUS
10
3.7100155905511811
20
-0.5749345669291338
11
3.7119509055118107
21
-0.5766317716535433
0
LINE
8
F.Cu
6
CONTINUOUS
10
3.7119509055118107
20
-0.5766317716535433
11
4.9693984645669289
21
-1.8340793307086614
0
LINE
8
F.Cu
6
CONTINUOUS
10
4.9693984645669289
20
-1.8340793307086614
11
4.9697474803149602
21
-1.8340099212598424
0
LINE
8
F.Cu
6
CONTINUOUS
10
4.9697474803149602
20
-1.8340099212598424
11
4.9759218110236221
21
-1.8340099212598424
0
LINE
8
F.Cu
6
CONTINUOUS
10
4.9759218110236221
20
-1.8340099212598424
11
4.9819774803149608
21
-1.8352144881889763
0
LINE
8
F.Cu
6
CONTINUOUS
10
4.9819774803149608
20
-1.8352144881889763
11
4.9876817716535431
21
-1.8375772834645669
0
LINE
8
F.Cu
6
CONTINUOUS
10
4.9876817716535431
20
-1.8375772834645669
11
4.9928155511811019
21
-1.841007559055118
0
LINE
8
F.Cu
6
CONTINUOUS
10
4.9928155511811019
20
-1.841007559055118
11
4.9971814173228344
21
-1.8453734251968503
0
LINE
8
F.Cu
6
CONTINUOUS
10
4.9971814173228344
20
-1.8453734251968503
11
5.0006116929133855
21
-1.8505072047244093
0
LINE
8
F.Cu
6
CONTINUOUS
10
5.0006116929133855
20
-1.8505072047244093
11
5.0029744881889764
21
-1.8562114960629921
0
LINE
8
F.Cu
6
CONTINUOUS
10
5.0029744881889764
20
-1.8562114960629921
11
5.0041790551181098
21
-1.8622671653543306
0
LINE
8
F.Cu
6
CONTINUOUS
10
5.0041790551181098
20
-1.8622671653543306
11
5.0041790551181098
21
-1.868441496062992
0
LINE
8
F.Cu
6
CONTINUOUS
10
5.0041790551181098
20
-1.868441496062992
11
5.0029744881889764
21
-1.8744971653543308
0
LINE
8
F.Cu
6
CONTINUOUS
10
5.0029744881889764
20
-1.8744971653543308
11
5.0006116929133855
21
-1.8802014566929133
0
LINE
8
F.Cu
6
CONTINUOUS
10
5.0006116929133855
20
-1.8802014566929133
11
4.9971814173228344
21
-1.8853352362204725
0
LINE
8
F.Cu
6
CONTINUOUS
10
4.9971814173228344
20
-1.8853352362204725
11
4.9928155511811019
21
-1.8897011023622048
0
LINE
8
F.Cu
6
CONTINUOUS
10
4.9928155511811019
20
-1.8897011023622048
11
4.9876817716535431
21
-1.8931313779527559
0
LINE
8
F.Cu
6
CONTINUOUS
10
4.9876817716535431
20
-1.8931313779527559
11
4.9819774803149608
21
-1.8954941732283463
0
LINE
8
F.Cu
6
CONTINUOUS
10
4.9819774803149608
20
-1.8954941732283463
11
4.9759218110236221
21
-1.8966987401574802
0
LINE
8
F.Cu
6
CONTINUOUS
10
4.9759218110236221
20
-1.8966987401574802
11
4.9697474803149602
21
-1.8966987401574802
0
LINE
8
F.Cu
6
CONTINUOUS
10
4.9697474803149602
20
-1.8966987401574802
11
4.9636918110236223
21
-1.8954941732283463
0
LINE
8
F.Cu
6
CONTINUOUS
10
4.9636918110236223
20
-1.8954941732283463
11
4.9579875196850391
21
-1.8931313779527559
0
LINE
8
F.Cu
6
CONTINUOUS
10
4.9579875196850391
20
-1.8931313779527559
11
4.9528537401574804
21
-1.8897011023622048
0
LINE
8
F.Cu
6
CONTINUOUS
10
4.9528537401574804
20
-1.8897011023622048
11
4.9484878740157479
21
-1.8853352362204725
0
LINE
8
F.Cu
6
CONTINUOUS
10
4.9484878740157479
20
-1.8853352362204725
11
4.9450575984251968
21
-1.8802014566929133
0
LINE
8
F.Cu
6
CONTINUOUS
10
4.9450575984251968
20
-1.8802014566929133
11
4.9426948031496059
21
-1.8744971653543308
0
LINE
8
F.Cu
6
CONTINUOUS
10
4.9426948031496059
20
-1.8744971653543308
11
4.9414902362204725
21
-1.868441496062992
0
LINE
8
F.Cu
6
CONTINUOUS
10
4.9414902362204725
20
-1.868441496062992
11
4.9414902362204725
21
-1.8622671653543306
0
LINE
8
F.Cu
6
CONTINUOUS
10
4.9414902362204725
20
-1.8622671653543306
11
4.9415596456692912
21
-1.8619181496062991
0
LINE
8
F.Cu
6
CONTINUOUS
10
4.9415596456692912
20
-1.8619181496062991
11
3.6898777165354328
21
-0.610236220472441
0
LINE
8
F.Cu
6
CONTINUOUS
10
3.6898777165354328
20
-0.610236220472441
11
2.3703585039370076
21
-0.610236220472441
0
LINE
8
F.Cu
6
CONTINUOUS
10
2.3703585039370076
20
-0.610236220472441
11
2.2834645669291338
21
-0.6971301574803149
0
LINE
8
F.Cu
6
CONTINUOUS
10
2.2834645669291338
20
-0.6971301574803149
11
2.2834645669291338
21
-1.8225548425196849
0
LINE
8
F.Cu
6
CONTINUOUS
10
2.2834645669291338
20
-1.8225548425196849
11
2.2993679921259842
21
-1.8066514173228345
0
LINE
8
F.Cu
6
CONTINUOUS
10
2.2993679921259842
20
-1.8066514173228345
11
2.3013035826771655
21
-1.804953937007874
0
LINE
8
F.Cu
6
CONTINUOUS
10
2.3013035826771655
20
-1.804953937007874
11
2.3013038976377951
21
-1.8049536614173227
0
LINE
8
F.Cu
6
CONTINUOUS
10
2.3013038976377951
20
-1.8049536614173227
11
2.3057542519685037
21
-1.8023842519685038
0
LINE
8
F.Cu
6
CONTINUOUS
10
2.3057542519685037
20
-1.8023842519685038
11
2.306803188976378
21
-1.8021031496062991
0
LINE
8
F.Cu
6
CONTINUOUS
10
2.306803188976378
20
-1.8021031496062991
11
2.3107179921259844
21
-1.8010542125984252
0
LINE
8
F.Cu
6
CONTINUOUS
10
2.3107179921259844
20
-1.8010542125984252
11
2.3107185826771652
21
-1.8010542125984252
0
LINE
8
F.Cu
6
CONTINUOUS
10
2.3107185826771652
20
-1.8010542125984252
11
2.3132874015748031
21
-1.8008858267716534
0
LINE
8
F.Cu
6
CONTINUOUS
10
2.3132874015748031
20
-1.8008858267716534
11
2.8783098818897637
21
-1.8008858267716534
0
LINE
8
F.Cu
6
CONTINUOUS
10
2.8783098818897637
20
-1.8008858267716534
11
2.8785075590551181
21
-1.8005899606299212
0
LINE
8
F.Cu
6
CONTINUOUS
10
2.8785075590551181
20
-1.8005899606299212
11
2.8828734251968502
21
-1.7962240944881889
0
LINE
8
F.Cu
6
CONTINUOUS
10
2.8828734251968502
20
-1.7962240944881889
11
2.8831692913385827
21
-1.7960263779527559
0
LINE
8
F.Cu
6
CONTINUOUS
10
2.8831692913385827
20
-1.7960263779527559
11
2.8831692913385827
21
-1.7520669291338582
0
LINE
8
F.Cu
6
CONTINUOUS
10
2.8831692913385827
20
-1.7520669291338582
11
2.8812007874015748
21
-1.7520669291338582
0
LINE
8
F.Cu
6
CONTINUOUS
10
2.8812007874015748
20
-1.7520669291338582
11
2.8774342125984251
21
-1.751317716535433
0
LINE
8
F.Cu
6
CONTINUOUS
10
2.8774342125984251
20
-1.751317716535433
11
2.8742410629921258
21
-1.7491841338582677
0
LINE
8
F.Cu
6
CONTINUOUS
10
2.8742410629921258
20
-1.7491841338582677
11
2.8721074803149604
21
-1.7459909842519685
0
LINE
8
F.Cu
6
CONTINUOUS
10
2.8721074803149604
20
-1.7459909842519685
11
2.8713582677165355
21
-1.7422244094488188
0
LINE
8
F.Cu
6
CONTINUOUS
10
2.8713582677165355
20
-1.7422244094488188
11
2.8713582677165355
21
-1.6989173228346457
0
LINE
8
F.Cu
6
CONTINUOUS
10
2.8713582677165355
20
-1.6989173228346457
11
2.8721074803149604
21
-1.695150748031496
0
LINE
8
F.Cu
6
CONTINUOUS
10
2.8721074803149604
20
-1.695150748031496
11
2.8742410629921258
21
-1.6919575984251969
0
LINE
8
F.Cu
6
CONTINUOUS
10
2.8742410629921258
20
-1.6919575984251969
11
2.8774342125984251
21
-1.6898240157480315
0
LINE
8
F.Cu
6
CONTINUOUS
10
2.8774342125984251
20
-1.6898240157480315
11
2.8812007874015748
21
-1.6890748031496063
0
LINE
8
F.Cu
6
CONTINUOUS
10
2.8812007874015748
20
-1.6890748031496063
11
2.8831692913385827
21
-1.6890748031496063
0
LINE
8
F.Cu
6
CONTINUOUS
10
2.8831692913385827
20
-1.6890748031496063
11
2.8831692913385827
21
-1.1393545669291338
0
LINE
8
F.Cu
6
CONTINUOUS
10
2.8831692913385827
20
-1.1393545669291338
11
2.7419861023622047
21
-0.9981713779527559
0
LINE
8
F.Cu
6
CONTINUOUS
10
2.7419861023622047
20
-0.9981713779527559
11
2.7402888976377953
21
-0.996236062992126
0
LINE
8
F.Cu
6
CONTINUOUS
10
2.7402888976377953
20
-0.996236062992126
11
2.740288307086614
21
-0.9962354724409449
0
LINE
8
F.Cu
6
CONTINUOUS
10
2.740288307086614
20
-0.9962354724409449
11
2.7377188976377953
21
-0.9917851181102362
0
LINE
8
F.Cu
6
CONTINUOUS
10
2.7377188976377953
20
-0.9917851181102362
11
2.7363888582677163
21
-0.9868213779527559
0
LINE
8
F.Cu
6
CONTINUOUS
10
2.7363888582677163
20
-0.9868213779527559
11
2.7363888582677163
21
-0.986820748031496
0
LINE
8
F.Cu
6
CONTINUOUS
10
2.7363888582677163
20
-0.986820748031496
11
2.7362204724409449
21
-0.984251968503937
0
LINE
8
F.Cu
6
CONTINUOUS
10
2.7362204724409449
20
-0.984251968503937
11
2.7362204724409449
21
-0.8858267716535433
0
LINE
8
F.Cu
6
CONTINUOUS
10
2.7362204724409449
20
-0.8858267716535433
11
2.736388897637795
21
-0.8832573622047244
0
LINE
8
F.Cu
6
CONTINUOUS
10
2.736388897637795
20
-0.8832573622047244
11
2.7377188976377953
21
-0.878293622047244
0
LINE
8
F.Cu
6
CONTINUOUS
10
2.7377188976377953
20
-0.878293622047244
11
2.740288307086614
21
-0.8738432677165354
0
LINE
8
F.Cu
6
CONTINUOUS
10
2.740288307086614
20
-0.8738432677165354
11
2.7439220078740156
21
-0.8702095669291339
0
LINE
8
F.Cu
6
CONTINUOUS
10
2.7439220078740156
20
-0.8702095669291339
11
2.7483723622047243
21
-0.867640157480315
0
LINE
8
F.Cu
6
CONTINUOUS
10
2.7483723622047243
20
-0.867640157480315
11
2.7533361023622045
21
-0.8663101574803149
0
LINE
8
F.Cu
6
CONTINUOUS
10
2.7533361023622045
20
-0.8663101574803149
11
2.7559055118110236
21
-0.8661417322834646
0
LINE
8
F.Cu
6
CONTINUOUS
10
2.7559055118110236
20
-0.8661417322834646
11
2.901574803149606
21
-0.8661417322834646
0
LINE
8
F.Cu
6
CONTINUOUS
10
2.901574803149606
20
-0.8661417322834646
11
2.901574803149606
21
-0.8444881889763779
0
LINE
8
F.Cu
6
CONTINUOUS
10
2.901574803149606
20
-0.8444881889763779
11
2.9023240157480314
21
-0.8407216141732283
0
LINE
8
F.Cu
6
CONTINUOUS
10
2.9023240157480314
20
-0.8407216141732283
11
2.9044575984251968
21
-0.8375284645669291
0
LINE
8
F.Cu
6
CONTINUOUS
10
2.9044575984251968
20
-0.8375284645669291
11
2.9076507480314961
21
-0.8353948818897637
0
LINE
8
F.Cu
6
CONTINUOUS
10
2.9076507480314961
20
-0.8353948818897637
11
2.9114173228346454
21
-0.8346456692913385
0
LINE
8
F.Cu
6
CONTINUOUS
10
2.9114173228346454
20
-0.8346456692913385
11
2.9940944881889764
21
-0.8346456692913385
0
LINE
8
F.Cu
6
CONTINUOUS
10
2.9940944881889764
20
-0.8346456692913385
11
2.9978610629921261
21
-0.8353948818897637
0
LINE
8
F.Cu
6
CONTINUOUS
10
2.9978610629921261
20
-0.8353948818897637
11
3.001054212598425
21
-0.8375284645669291
0
LINE
8
F.Cu
6
CONTINUOUS
10
3.001054212598425
20
-0.8375284645669291
11
3.0031877952755903
21
-0.8407216141732283
0
LINE
8
F.Cu
6
CONTINUOUS
10
3.0031877952755903
20
-0.8407216141732283
11
3.0039370078740157
21
-0.8444881889763779
0
LINE
8
F.Cu
6
CONTINUOUS
10
3.0039370078740157
20
-0.8444881889763779
11
3.0039370078740157
21
-0.9271653543307087
0
LINE
8
F.Cu
6
CONTINUOUS
10
3.0039370078740157
20
-0.9271653543307087
11
3.0031877952755903
21
-0.9309319291338582
0
LINE
8
F.Cu
6
CONTINUOUS
10
3.0031877952755903
20
-0.9309319291338582
11
3.001054212598425
21
-0.9341250787401575
0
LINE
8
F.Cu
6
CONTINUOUS
10
3.001054212598425
20
-0.9341250787401575
11
2.9978610629921261
21
-0.9362586614173228
0
LINE
8
F.Cu
6
CONTINUOUS
10
2.9978610629921261
20
-0.9362586614173228
11
2.9940944881889764
21
-0.937007874015748
0
LINE
8
F.Cu
6
CONTINUOUS
10
2.9940944881889764
20
-0.937007874015748
11
2.9114173228346454
21
-0.937007874015748
0
LINE
8
F.Cu
6
CONTINUOUS
10
2.9114173228346454
20
-0.937007874015748
11
2.9076507480314961
21
-0.9362586614173228
0
LINE
8
F.Cu
6
CONTINUOUS
10
2.9076507480314961
20
-0.9362586614173228
11
2.9044575984251968
21
-0.9341250787401575
0
LINE
8
F.Cu
6
CONTINUOUS
10
2.9044575984251968
20
-0.9341250787401575
11
2.9023240157480314
21
-0.9309319291338582
0
LINE
8
F.Cu
6
CONTINUOUS
10
2.9023240157480314
20
-0.9309319291338582
11
2.901574803149606
21
-0.9271653543307087
0
LINE
8
F.Cu
6
CONTINUOUS
10
2.901574803149606
20
-0.9271653543307087
11
2.901574803149606
21
-0.905511811023622
0
LINE
8
F.Cu
6
CONTINUOUS
10
2.901574803149606
20
-0.905511811023622
11
2.7755905511811023
21
-0.905511811023622
0
LINE
8
F.Cu
6
CONTINUOUS
10
2.7755905511811023
20
-0.905511811023622
11
2.7755905511811023
21
-0.9760981889763779
0
LINE
8
F.Cu
6
CONTINUOUS
10
2.7755905511811023
20
-0.9760981889763779
11
2.9167737401574803
21
-1.1172813779527559
0
LINE
8
F.Cu
6
CONTINUOUS
10
2.9167737401574803
20
-1.1172813779527559
11
2.9184711811023623
21
-1.1192169291338583
0
LINE
8
F.Cu
6
CONTINUOUS
10
2.9184711811023623
20
-1.1192169291338583
11
2.9184715354330706
21
-1.1192172834645668
0
LINE
8
F.Cu
6
CONTINUOUS
10
2.9184715354330706
20
-1.1192172834645668
11
2.9210409448818897
21
-1.1236676377952757
0
LINE
8
F.Cu
6
CONTINUOUS
10
2.9210409448818897
20
-1.1236676377952757
11
2.9223709842519683
21
-1.1286313779527559
0
LINE
8
F.Cu
6
CONTINUOUS
10
2.9223709842519683
20
-1.1286313779527559
11
2.9223709842519683
21
-1.128631968503937
0
LINE
8
F.Cu
6
CONTINUOUS
10
2.9223709842519683
20
-1.128631968503937
11
2.9225393700787401
21
-1.1312007874015748
0
LINE
8
F.Cu
6
CONTINUOUS
10
2.9225393700787401
20
-1.1312007874015748
11
2.9225393700787401
21
-1.6890748031496063
0
LINE
8
F.Cu
6
CONTINUOUS
10
2.9225393700787401
20
-1.6890748031496063
11
2.924507874015748
21
-1.6890748031496063
0
LINE
8
F.Cu
6
CONTINUOUS
10
2.924507874015748
20
-1.6890748031496063
11
2.9282744488188976
21
-1.6898240157480315
0
LINE
8
F.Cu
6
CONTINUOUS
10
2.9282744488188976
20
-1.6898240157480315
11
2.931467598425197
21
-1.6919575984251969
0
LINE
8
F.Cu
6
CONTINUOUS
10
2.931467598425197
20
-1.6919575984251969
11
2.9336011811023623
21
-1.695150748031496
0
LINE
8
F.Cu
6
CONTINUOUS
10
2.9336011811023623
20
-1.695150748031496
11
2.9343503937007873
21
-1.6989173228346457
0
LINE
8
F.Cu
6
CONTINUOUS
10
2.9343503937007873
20
-1.6989173228346457
11
2.9343503937007873
21
-1.7422244094488188
0
LINE
8
F.Cu
6
CONTINUOUS
10
2.9343503937007873
20
-1.7422244094488188
11
2.9336011811023623
21
-1.7459909842519685
0
LINE
8
F.Cu
6
CONTINUOUS
10
2.9336011811023623
20
-1.7459909842519685
11
2.931467598425197
21
-1.7491841338582677
0
LINE
8
F.Cu
6
CONTINUOUS
10
2.931467598425197
20
-1.7491841338582677
11
2.9282744488188976
21
-1.751317716535433
0
LINE
8
F.Cu
6
CONTINUOUS
10
2.9282744488188976
20
-1.751317716535433
11
2.924507874015748
21
-1.7520669291338582
0
LINE
8
F.Cu
6
CONTINUOUS
10
2.924507874015748
20
-1.7520669291338582
11
2.9225393700787401
21
-1.7520669291338582
0
LINE
8
F.Cu
6
CONTINUOUS
10
2.9225393700787401
20
-1.7520669291338582
11
2.9225393700787401
21
-1.7960263779527559
0
LINE
8
F.Cu
6
CONTINUOUS
10
2.9225393700787401
20
-1.7960263779527559
11
2.9228352362204726
21
-1.7962240944881889
0
LINE
8
F.Cu
6
CONTINUOUS
10
2.9228352362204726
20
-1.7962240944881889
11
2.9272011023622047
21
-1.8005899606299212
0
LINE
8
F.Cu
6
CONTINUOUS
10
2.9272011023622047
20
-1.8005899606299212
11
2.9306313779527557
21
-1.8057237401574804
0
LINE
8
F.Cu
6
CONTINUOUS
10
2.9306313779527557
20
-1.8057237401574804
11
2.9329941732283462
21
-1.8114280314960629
0
LINE
8
F.Cu
6
CONTINUOUS
10
2.9329941732283462
20
-1.8114280314960629
11
2.9341987401574801
21
-1.8174837007874016
0
LINE
8
F.Cu
6
CONTINUOUS
10
2.9341987401574801
20
-1.8174837007874016
11
2.9341987401574801
21
-1.8236580314960629
0
LINE
8
F.Cu
6
CONTINUOUS
10
2.9341987401574801
20
-1.8236580314960629
11
2.9329941732283462
21
-1.8297137007874016
0
LINE
8
F.Cu
6
CONTINUOUS
10
2.9329941732283462
20
-1.8297137007874016
11
2.9306313779527557
21
-1.8354179921259841
0
LINE
8
F.Cu
6
CONTINUOUS
10
2.9306313779527557
20
-1.8354179921259841
11
2.9272011023622047
21
-1.8405517716535433
0
LINE
8
F.Cu
6
CONTINUOUS
10
2.9272011023622047
20
-1.8405517716535433
11
2.9228352362204726
21
-1.8449176377952756
0
LINE
8
F.Cu
6
CONTINUOUS
10
2.9228352362204726
20
-1.8449176377952756
11
2.9225393700787401
21
-1.8451153149606299
0
LINE
8
F.Cu
6
CONTINUOUS
10
2.9225393700787401
20
-1.8451153149606299
11
2.9225393700787401
21
-1.896026377952756
0
LINE
8
F.Cu
6
CONTINUOUS
10
2.9225393700787401
20
-1.896026377952756
11
2.9228352362204726
21
-1.896224094488189
0
LINE
8
F.Cu
6
CONTINUOUS
10
2.9228352362204726
20
-1.896224094488189
11
2.9272011023622047
21
-1.9005899606299212
0
LINE
8
F.Cu
6
CONTINUOUS
10
2.9272011023622047
20
-1.9005899606299212
11
2.9306313779527557
21
-1.9057237401574803
0
LINE
8
F.Cu
6
CONTINUOUS
10
2.9306313779527557
20
-1.9057237401574803
11
2.9329941732283462
21
-1.911428031496063
0
LINE
8
F.Cu
6
CONTINUOUS
10
2.9329941732283462
20
-1.911428031496063
11
2.9341987401574801
21
-1.9174837007874015
0
LINE
8
F.Cu
6
CONTINUOUS
10
2.9341987401574801
20
-1.9174837007874015
11
2.9341987401574801
21
-1.923658031496063
0
LINE
8
F.Cu
6
CONTINUOUS
10
2.9341987401574801
20
-1.923658031496063
11
2.9329941732283462
21
-1.9297137007874015
0
LINE
8
F.Cu
6
CONTINUOUS
10
2.9329941732283462
20
-1.9297137007874015
11
2.9306313779527557
21
-1.9354179921259842
0
LINE
8
F.Cu
6
CONTINUOUS
10
2.9306313779527557
20
-1.9354179921259842
11
2.9272011023622047
21
-1.9405517716535432
0
LINE
8
F.Cu
6
CONTINUOUS
10
2.9272011023622047
20
-1.9405517716535432
11
2.9228352362204726
21
-1.9449176377952755
0
LINE
8
F.Cu
6
CONTINUOUS
10
2.9228352362204726
20
-1.9449176377952755
11
2.9225393700787401
21
-1.9451153149606299
0
LINE
8
F.Cu
6
CONTINUOUS
10
2.9225393700787401
20
-1.9451153149606299
11
2.9225393700787401
21
-1.9960263779527558
0
LINE
8
F.Cu
6
CONTINUOUS
10
2.9225393700787401
20
-1.9960263779527558
11
2.9228352362204726
21
-1.9962240944881888
0
LINE
8
F.Cu
6
CONTINUOUS
10
2.9228352362204726
20
-1.9962240944881888
11
2.9272011023622047
21
-2.0005899606299211
0
LINE
8
F.Cu
6
CONTINUOUS
10
2.9272011023622047
20
-2.0005899606299211
11
2.9306313779527557
21
-2.0057237401574803
0
LINE
8
F.Cu
6
CONTINUOUS
10
2.9306313779527557
20
-2.0057237401574803
11
2.9329941732283462
21
-2.0114280314960631
0
LINE
8
F.Cu
6
CONTINUOUS
10
2.9329941732283462
20
-2.0114280314960631
11
2.9341987401574801
21
-2.0174837007874014
0
LINE
8
F.Cu
6
CONTINUOUS
10
2.9341987401574801
20
-2.0174837007874014
11
2.9341987401574801
21
-2.0236580314960628
0
LINE
8
F.Cu
6
CONTINUOUS
10
2.9341987401574801
20
-2.0236580314960628
11
2.9329941732283462
21
-2.0297137007874015
0
LINE
8
F.Cu
6
CONTINUOUS
10
2.9329941732283462
20
-2.0297137007874015
11
2.9306313779527557
21
-2.0354179921259843
0
LINE
8
F.Cu
6
CONTINUOUS
10
2.9306313779527557
20
-2.0354179921259843
11
2.9272011023622047
21
-2.0405517716535431
0
LINE
8
F.Cu
6
CONTINUOUS
10
2.9272011023622047
20
-2.0405517716535431
11
2.9228352362204726
21
-2.0449176377952756
0
LINE
8
F.Cu
6
CONTINUOUS
10
2.9228352362204726
20
-2.0449176377952756
11
2.9225393700787401
21
-2.04511531496063
0
LINE
8
F.Cu
6
CONTINUOUS
10
2.9225393700787401
20
-2.04511531496063
11
2.9225393700787401
21
-2.1154527559055119
0
LINE
8
F.Cu
6
CONTINUOUS
10
2.9225393700787401
20
-2.1154527559055119
11
2.9223709842519683
21
-2.1180215354330709
0
LINE
8
F.Cu
6
CONTINUOUS
10
2.9223709842519683
20
-2.1180215354330709
11
2.9223709842519683
21
-2.1180221653543305
0
LINE
8
F.Cu
6
CONTINUOUS
10
2.9223709842519683
20
-2.1180221653543305
11
2.9210409448818897
21
-2.1229859055118108
0
LINE
8
F.Cu
6
CONTINUOUS
10
2.9210409448818897
20
-2.1229859055118108
11
2.9184715354330706
21
-2.1274362598425198
0
LINE
8
F.Cu
6
CONTINUOUS
10
2.9184715354330706
20
-2.1274362598425198
11
2.9184711811023623
21
-2.1274365748031494
0
LINE
8
F.Cu
6
CONTINUOUS
10
2.9184711811023623
20
-2.1274365748031494
11
2.9167737401574803
21
-2.1293722047244095
0
LINE
8
F.Cu
6
CONTINUOUS
10
2.9167737401574803
20
-2.1293722047244095
11
2.8740157480314958
21
-2.1721301574803151
0
LINE
8
F.Cu
6
CONTINUOUS
10
2.8740157480314958
20
-2.1721301574803151
11
2.8740157480314958
21
-2.7244094488188977
0
LINE
8
F.Cu
6
CONTINUOUS
10
2.8740157480314958
20
-2.7244094488188977
11
2.8759842519685037
21
-2.7244094488188977
0
LINE
8
F.Cu
6
CONTINUOUS
10
2.8759842519685037
20
-2.7244094488188977
11
2.8797508267716534
21
-2.7251586614173227
0
LINE
8
F.Cu
6
CONTINUOUS
10
2.8797508267716534
20
-2.7251586614173227
11
2.8829439763779527
21
-2.727292244094488
0
LINE
8
F.Cu
6
CONTINUOUS
10
2.8829439763779527
20
-2.727292244094488
11
2.8850775590551181
21
-2.7304853937007874
0
LINE
8
F.Cu
6
CONTINUOUS
10
2.8850775590551181
20
-2.7304853937007874
11
2.8858267716535431
21
-2.734251968503937
0
LINE
8
F.Cu
6
CONTINUOUS
10
2.8858267716535431
20
-2.734251968503937
11
2.8858267716535431
21
-2.7775590551181102
0
LINE
8
F.Cu
6
CONTINUOUS
10
2.8858267716535431
20
-2.7775590551181102
11
2.8850775590551181
21
-2.7813256299212599
0
LINE
8
F.Cu
6
CONTINUOUS
10
2.8850775590551181
20
-2.7813256299212599
11
2.8829439763779527
21
-2.7845187795275588
0
LINE
8
F.Cu
6
CONTINUOUS
10
2.8829439763779527
20
-2.7845187795275588
11
2.8797508267716534
21
-2.7866523622047246
0
LINE
8
F.Cu
6
CONTINUOUS
10
2.8797508267716534
20
-2.7866523622047246
11
2.8759842519685037
21
-2.7874015748031495
0
LINE
8
F.Cu
6
CONTINUOUS
10
2.8759842519685037
20
-2.7874015748031495
11
2.8740157480314958
21
-2.7874015748031495
0
LINE
8
F.Cu
6
CONTINUOUS
10
2.8740157480314958
20
-2.7874015748031495
11
2.8740157480314958
21
-2.8313610236220472
0
LINE
8
F.Cu
6
CONTINUOUS
10
2.8740157480314958
20
-2.8313610236220472
11
2.8743116141732283
21
-2.8315587401574804
0
LINE
8
F.Cu
6
CONTINUOUS
10
2.8743116141732283
20
-2.8315587401574804
11
2.8786774803149604
21
-2.8359246062992125
0
LINE
8
F.Cu
6
CONTINUOUS
10
2.8786774803149604
20
-2.8359246062992125
11
2.8821077559055119
21
-2.8410583858267717
0
LINE
8
F.Cu
6
CONTINUOUS
10
2.8821077559055119
20
-2.8410583858267717
11
2.8844705511811024
21
-2.8467626771653545
0
LINE
8
F.Cu
6
CONTINUOUS
10
2.8844705511811024
20
-2.8467626771653545
11
2.8856751181102362
21
-2.8528183464566927
0
LINE
8
F.Cu
6
CONTINUOUS
10
2.8856751181102362
20
-2.8528183464566927
11
2.8856751181102362
21
-2.8589926771653542
0
LINE
8
F.Cu
6
CONTINUOUS
10
2.8856751181102362
20
-2.8589926771653542
11
2.8844705511811024
21
-2.8650483464566929
0
LINE
8
F.Cu
6
CONTINUOUS
10
2.8844705511811024
20
-2.8650483464566929
11
2.8821077559055119
21
-2.8707526377952757
0
LINE
8
F.Cu
6
CONTINUOUS
10
2.8821077559055119
20
-2.8707526377952757
11
2.8786774803149604
21
-2.8758864173228345
0
LINE
8
F.Cu
6
CONTINUOUS
10
2.8786774803149604
20
-2.8758864173228345
11
2.8743116141732283
21
-2.880252283464567
0
LINE
8
F.Cu
6
CONTINUOUS
10
2.8743116141732283
20
-2.880252283464567
11
2.8740157480314958
21
-2.880449960629921
0
LINE
8
F.Cu
6
CONTINUOUS
10
2.8740157480314958
20
-2.880449960629921
11
2.8740157480314958
21
-2.9313610236220473
0
LINE
8
F.Cu
6
CONTINUOUS
10
2.8740157480314958
20
-2.9313610236220473
11
2.8743116141732283
21
-2.9315587401574801
0
LINE
8
F.Cu
6
CONTINUOUS
10
2.8743116141732283
20
-2.9315587401574801
11
2.8786774803149604
21
-2.9359246062992126
0
LINE
8
F.Cu
6
CONTINUOUS
10
2.8786774803149604
20
-2.9359246062992126
11
2.8821077559055119
21
-2.9410583858267714
0
LINE
8
F.Cu
6
CONTINUOUS
10
2.8821077559055119
20
-2.9410583858267714
11
2.8844705511811024
21
-2.9467626771653541
0
LINE
8
F.Cu
6
CONTINUOUS
10
2.8844705511811024
20
-2.9467626771653541
11
2.8856751181102362
21
-2.9528183464566928
0
LINE
8
F.Cu
6
CONTINUOUS
10
2.8856751181102362
20
-2.9528183464566928
11
2.8856751181102362
21
-2.9589926771653543
0
LINE
8
F.Cu
6
CONTINUOUS
10
2.8856751181102362
20
-2.9589926771653543
11
2.8844705511811024
21
-2.965048346456693
0
LINE
8
F.Cu
6
CONTINUOUS
10
2.8844705511811024
20
-2.965048346456693
11
2.8821077559055119
21
-2.9707526377952753
0
LINE
8
F.Cu
6
CONTINUOUS
10
2.8821077559055119
20
-2.9707526377952753
11
2.8786774803149604
21
-2.9758864173228345
0
LINE
8
F.Cu
6
CONTINUOUS
10
2.8786774803149604
20
-2.9758864173228345
11
2.8743116141732283
21
-2.9802522834645671
0
LINE
8
F.Cu
6
CONTINUOUS
10
2.8743116141732283
20
-2.9802522834645671
11
2.8740157480314958
21
-2.9804499606299211
0
LINE
8
F.Cu
6
CONTINUOUS
10
2.8740157480314958
20
-2.9804499606299211
11
2.8740157480314958
21
-3.031361023622047
0
LINE
8
F.Cu
6
CONTINUOUS
10
2.8740157480314958
20
-3.031361023622047
11
2.8743116141732283
21
-3.0315587401574802
0
LINE
8
F.Cu
6
CONTINUOUS
10
2.8743116141732283
20
-3.0315587401574802
11
2.8786774803149604
21
-3.0359246062992127
0
LINE
8
F.Cu
6
CONTINUOUS
10
2.8786774803149604
20
-3.0359246062992127
11
2.8821077559055119
21
-3.0410583858267715
0
LINE
8
F.Cu
6
CONTINUOUS
10
2.8821077559055119
20
-3.0410583858267715
11
2.8844705511811024
21
-3.0467626771653542
0
LINE
8
F.Cu
6
CONTINUOUS
10
2.8844705511811024
20
-3.0467626771653542
11
2.8856751181102362
21
-3.0528183464566929
0
LINE
8
F.Cu
6
CONTINUOUS
10
2.8856751181102362
20
-3.0528183464566929
11
2.8856751181102362
21
-3.0589926771653544
0
LINE
8
F.Cu
6
CONTINUOUS
10
2.8856751181102362
20
-3.0589926771653544
11
2.8844705511811024
21
-3.0650483464566927
0
LINE
8
F.Cu
6
CONTINUOUS
10
2.8844705511811024
20
-3.0650483464566927
11
2.8821077559055119
21
-3.0707526377952754
0
LINE
8
F.Cu
6
CONTINUOUS
10
2.8821077559055119
20
-3.0707526377952754
11
2.8786774803149604
21
-3.0758864173228346
0
LINE
8
F.Cu
6
CONTINUOUS
10
2.8786774803149604
20
-3.0758864173228346
11
2.8743116141732283
21
-3.0802522834645667
0
LINE
8
F.Cu
6
CONTINUOUS
10
2.8743116141732283
20
-3.0802522834645667
11
2.8740157480314958
21
-3.0804499606299212
0
LINE
8
F.Cu
6
CONTINUOUS
10
2.8740157480314958
20
-3.0804499606299212
11
2.8740157480314958
21
-3.1414525196850391
0
LINE
8
F.Cu
6
CONTINUOUS
10
2.8740157480314958
20
-3.1414525196850391
11
2.9151005118110236
21
-3.1825372834645669
0
LINE
8
F.Cu
6
CONTINUOUS
10
2.9151005118110236
20
-3.1825372834645669
11
2.9167979527559056
21
-3.1844728346456694
0
LINE
8
F.Cu
6
CONTINUOUS
10
2.9167979527559056
20
-3.1844728346456694
11
2.9167983070866139
21
-3.1844731889763778
0
LINE
8
F.Cu
6
CONTINUOUS
10
2.9167983070866139
20
-3.1844731889763778
11
2.919367716535433
21
-3.1889235433070864
0
LINE
8
F.Cu
6
CONTINUOUS
10
2.919367716535433
20
-3.1889235433070864
11
2.9206977559055116
21
-3.1938872834645671
0
LINE
8
F.Cu
6
CONTINUOUS
10
2.9206977559055116
20
-3.1938872834645671
11
2.9206977559055116
21
-3.1938878740157479
0
LINE
8
F.Cu
6
CONTINUOUS
10
2.9206977559055116
20
-3.1938878740157479
11
2.9208661417322834
21
-3.1964566929133857
0
LINE
8
F.Cu
6
CONTINUOUS
10
2.9208661417322834
20
-3.1964566929133857
11
2.9208661417322834
21
-3.5118110236220472
0
LINE
8
F.Cu
6
CONTINUOUS
10
2.9208661417322834
20
-3.5118110236220472
11
2.9228346456692913
21
-3.5118110236220472
0
LINE
8
F.Cu
6
CONTINUOUS
10
2.9228346456692913
20
-3.5118110236220472
11
2.926601220472441
21
-3.5125602362204722
0
LINE
8
F.Cu
6
CONTINUOUS
10
2.926601220472441
20
-3.5125602362204722
11
2.9297943700787399
21
-3.5146938188976375
0
LINE
8
F.Cu
6
CONTINUOUS
10
2.9297943700787399
20
-3.5146938188976375
11
2.9319279527559052
21
-3.5178869685039369
0
LINE
8
F.Cu
6
CONTINUOUS
10
2.9319279527559052
20
-3.5178869685039369
11
2.9326771653543307
21
-3.5216535433070866
0
LINE
8
F.Cu
6
CONTINUOUS
10
2.9326771653543307
20
-3.5216535433070866
11
2.9326771653543307
21
-3.5649606299212597
0
LINE
8
F.Cu
6
CONTINUOUS
10
2.9326771653543307
20
-3.5649606299212597
11
2.9319279527559052
21
-3.5687272047244094
0
LINE
8
F.Cu
6
CONTINUOUS
10
2.9319279527559052
20
-3.5687272047244094
11
2.9297943700787399
21
-3.5719203543307088
0
LINE
8
F.Cu
6
CONTINUOUS
10
2.9297943700787399
20
-3.5719203543307088
11
2.926601220472441
21
-3.5740539370078741
0
LINE
8
F.Cu
6
CONTINUOUS
10
2.926601220472441
20
-3.5740539370078741
11
2.9228346456692913
21
-3.5748031496062991
0
LINE
8
F.Cu
6
CONTINUOUS
10
2.9228346456692913
20
-3.5748031496062991
11
2.8795275590551181
21
-3.5748031496062991
0
LINE
8
F.Cu
6
CONTINUOUS
10
2.8795275590551181
20
-3.5748031496062991
11
2.8757609842519685
21
-3.5740539370078741
0
LINE
8
F.Cu
6
CONTINUOUS
10
2.8757609842519685
20
-3.5740539370078741
11
2.8725678346456691
21
-3.5719203543307088
0
LINE
8
F.Cu
6
CONTINUOUS
10
2.8725678346456691
20
-3.5719203543307088
11
2.8704342519685038
21
-3.5687272047244094
0
LINE
8
F.Cu
6
CONTINUOUS
10
2.8704342519685038
20
-3.5687272047244094
11
2.8696850393700788
21
-3.5649606299212597
0
LINE
8
F.Cu
6
CONTINUOUS
10
2.8696850393700788
20
-3.5649606299212597
11
2.8696850393700788
21
-3.5216535433070866
0
LINE
8
F.Cu
6
CONTINUOUS
10
2.8696850393700788
20
-3.5216535433070866
11
2.8704342519685038
21
-3.5178869685039369
0
LINE
8
F.Cu
6
CONTINUOUS
10
2.8704342519685038
20
-3.5178869685039369
11
2.8725678346456691
21
-3.5146938188976375
0
LINE
8
F.Cu
6
CONTINUOUS
10
2.8725678346456691
20
-3.5146938188976375
11
2.8757609842519685
21
-3.5125602362204722
0
LINE
8
F.Cu
6
CONTINUOUS
10
2.8757609842519685
20
-3.5125602362204722
11
2.8795275590551181
21
-3.5118110236220472
0
LINE
8
F.Cu
6
CONTINUOUS
10
2.8795275590551181
20
-3.5118110236220472
11
2.881496062992126
21
-3.5118110236220472
0
LINE
8
F.Cu
6
CONTINUOUS
10
2.881496062992126
20
-3.5118110236220472
11
2.881496062992126
21
-3.2046104724409448
0
LINE
8
F.Cu
6
CONTINUOUS
10
2.881496062992126
20
-3.2046104724409448
11
2.8404112992125983
21
-3.1635257086614175
0
LINE
8
F.Cu
6
CONTINUOUS
10
2.8404112992125983
20
-3.1635257086614175
11
2.8387140944881888
21
-3.1615903937007874
0
LINE
8
F.Cu
6
CONTINUOUS
10
2.8387140944881888
20
-3.1615903937007874
11
2.8387135039370079
21
-3.1615898031496061
0
LINE
8
F.Cu
6
CONTINUOUS
10
2.8387135039370079
20
-3.1615898031496061
11
2.8361440944881888
21
-3.1571394488188975
0
LINE
8
F.Cu
6
CONTINUOUS
10
2.8361440944881888
20
-3.1571394488188975
11
2.8355340551181101
21
-3.1548627165354328
0
LINE
8
F.Cu
6
CONTINUOUS
10
2.8355340551181101
20
-3.1548627165354328
11
2.8348140551181102
21
-3.1521757086614173
0
LINE
8
F.Cu
6
CONTINUOUS
10
2.8348140551181102
20
-3.1521757086614173
11
2.8348140551181102
21
-3.1521750787401572
0
LINE
8
F.Cu
6
CONTINUOUS
10
2.8348140551181102
20
-3.1521750787401572
11
2.8346456692913384
21
-3.1496062992125982
0
LINE
8
F.Cu
6
CONTINUOUS
10
2.8346456692913384
20
-3.1496062992125982
11
2.8346456692913384
21
-3.0804499606299212
0
LINE
8
F.Cu
6
CONTINUOUS
10
2.8346456692913384
20
-3.0804499606299212
11
2.8343498031496064
21
-3.0802522834645667
0
LINE
8
F.Cu
6
CONTINUOUS
10
2.8343498031496064
20
-3.0802522834645667
11
2.8299839370078739
21
-3.0758864173228346
0
LINE
8
F.Cu
6
CONTINUOUS
10
2.8299839370078739
20
-3.0758864173228346
11
2.8265536614173228
21
-3.0707526377952754
0
LINE
8
F.Cu
6
CONTINUOUS
10
2.8265536614173228
20
-3.0707526377952754
11
2.8241908661417323
21
-3.0650483464566927
0
LINE
8
F.Cu
6
CONTINUOUS
10
2.8241908661417323
20
-3.0650483464566927
11
2.8229862992125985
21
-3.0589926771653544
0
LINE
8
F.Cu
6
CONTINUOUS
10
2.8229862992125985
20
-3.0589926771653544
11
2.8229862992125985
21
-3.0528183464566929
0
LINE
8
F.Cu
6
CONTINUOUS
10
2.8229862992125985
20
-3.0528183464566929
11
2.8241908661417323
21
-3.0467626771653542
0
LINE
8
F.Cu
6
CONTINUOUS
10
2.8241908661417323
20
-3.0467626771653542
11
2.8265536614173228
21
-3.0410583858267715
0
LINE
8
F.Cu
6
CONTINUOUS
10
2.8265536614173228
20
-3.0410583858267715
11
2.8299839370078739
21
-3.0359246062992127
0
LINE
8
F.Cu
6
CONTINUOUS
10
2.8299839370078739
20
-3.0359246062992127
11
2.8343498031496064
21
-3.0315587401574802
0
LINE
8
F.Cu
6
CONTINUOUS
10
2.8343498031496064
20
-3.0315587401574802
11
2.8346456692913384
21
-3.031361023622047
0
LINE
8
F.Cu
6
CONTINUOUS
10
2.8346456692913384
20
-3.031361023622047
11
2.8346456692913384
21
-2.9804499606299211
0
LINE
8
F.Cu
6
CONTINUOUS
10
2.8346456692913384
20
-2.9804499606299211
11
2.8343498031496064
21
-2.9802522834645671
0
LINE
8
F.Cu
6
CONTINUOUS
10
2.8343498031496064
20
-2.9802522834645671
11
2.8299839370078739
21
-2.9758864173228345
0
LINE
8
F.Cu
6
CONTINUOUS
10
2.8299839370078739
20
-2.9758864173228345
11
2.8265536614173228
21
-2.9707526377952753
0
LINE
8
F.Cu
6
CONTINUOUS
10
2.8265536614173228
20
-2.9707526377952753
11
2.8241908661417323
21
-2.965048346456693
0
LINE
8
F.Cu
6
CONTINUOUS
10
2.8241908661417323
20
-2.965048346456693
11
2.8229862992125985
21
-2.9589926771653543
0
LINE
8
F.Cu
6
CONTINUOUS
10
2.8229862992125985
20
-2.9589926771653543
11
2.8229862992125985
21
-2.9528183464566928
0
LINE
8
F.Cu
6
CONTINUOUS
10
2.8229862992125985
20
-2.9528183464566928
11
2.8241908661417323
21
-2.9467626771653541
0
LINE
8
F.Cu
6
CONTINUOUS
10
2.8241908661417323
20
-2.9467626771653541
11
2.8265536614173228
21
-2.9410583858267714
0
LINE
8
F.Cu
6
CONTINUOUS
10
2.8265536614173228
20
-2.9410583858267714
11
2.8299839370078739
21
-2.9359246062992126
0
LINE
8
F.Cu
6
CONTINUOUS
10
2.8299839370078739
20
-2.9359246062992126
11
2.8343498031496064
21
-2.9315587401574801
0
LINE
8
F.Cu
6
CONTINUOUS
10
2.8343498031496064
20
-2.9315587401574801
11
2.8346456692913384
21
-2.9313610236220473
0
LINE
8
F.Cu
6
CONTINUOUS
10
2.8346456692913384
20
-2.9313610236220473
11
2.8346456692913384
21
-2.880449960629921
0
LINE
8
F.Cu
6
CONTINUOUS
10
2.8346456692913384
20
-2.880449960629921
11
2.8343498031496064
21
-2.880252283464567
0
LINE
8
F.Cu
6
CONTINUOUS
10
2.8343498031496064
20
-2.880252283464567
11
2.8299839370078739
21
-2.8758864173228345
0
LINE
8
F.Cu
6
CONTINUOUS
10
2.8299839370078739
20
-2.8758864173228345
11
2.8265536614173228
21
-2.8707526377952757
0
LINE
8
F.Cu
6
CONTINUOUS
10
2.8265536614173228
20
-2.8707526377952757
11
2.8241908661417323
21
-2.8650483464566929
0
LINE
8
F.Cu
6
CONTINUOUS
10
2.8241908661417323
20
-2.8650483464566929
11
2.8229862992125985
21
-2.8589926771653542
0
LINE
8
F.Cu
6
CONTINUOUS
10
2.8229862992125985
20
-2.8589926771653542
11
2.8229862992125985
21
-2.8528183464566927
0
LINE
8
F.Cu
6
CONTINUOUS
10
2.8229862992125985
20
-2.8528183464566927
11
2.8241908661417323
21
-2.8467626771653545
0
LINE
8
F.Cu
6
CONTINUOUS
10
2.8241908661417323
20
-2.8467626771653545
11
2.8265536614173228
21
-2.8410583858267717
0
LINE
8
F.Cu
6
CONTINUOUS
10
2.8265536614173228
20
-2.8410583858267717
11
2.8299839370078739
21
-2.8359246062992125
0
LINE
8
F.Cu
6
CONTINUOUS
10
2.8299839370078739
20
-2.8359246062992125
11
2.8343498031496064
21
-2.8315587401574804
0
LINE
8
F.Cu
6
CONTINUOUS
10
2.8343498031496064
20
-2.8315587401574804
11
2.8346456692913384
21
-2.8313610236220472
0
LINE
8
F.Cu
6
CONTINUOUS
10
2.8346456692913384
20
-2.8313610236220472
11
2.8346456692913384
21
-2.7874015748031495
0
LINE
8
F.Cu
6
CONTINUOUS
10
2.8346456692913384
20
-2.7874015748031495
11
2.8326771653543306
21
-2.7874015748031495
0
LINE
8
F.Cu
6
CONTINUOUS
10
2.8326771653543306
20
-2.7874015748031495
11
2.8289105905511809
21
-2.7866523622047246
0
LINE
8
F.Cu
6
CONTINUOUS
10
2.8289105905511809
20
-2.7866523622047246
11
2.825717440944882
21
-2.7845187795275588
0
LINE
8
F.Cu
6
CONTINUOUS
10
2.825717440944882
20
-2.7845187795275588
11
2.8235838582677166
21
-2.7813256299212599
0
LINE
8
F.Cu
6
CONTINUOUS
10
2.8235838582677166
20
-2.7813256299212599
11
2.8228346456692912
21
-2.7775590551181102
0
LINE
8
F.Cu
6
CONTINUOUS
10
2.8228346456692912
20
-2.7775590551181102
11
2.8228346456692912
21
-2.734251968503937
0
LINE
8
F.Cu
6
CONTINUOUS
10
2.8228346456692912
20
-2.734251968503937
11
2.8235838582677166
21
-2.7304853937007874
0
LINE
8
F.Cu
6
CONTINUOUS
10
2.8235838582677166
20
-2.7304853937007874
11
2.825717440944882
21
-2.727292244094488
0
LINE
8
F.Cu
6
CONTINUOUS
10
2.825717440944882
20
-2.727292244094488
11
2.8289105905511809
21
-2.7251586614173227
0
LINE
8
F.Cu
6
CONTINUOUS
10
2.8289105905511809
20
-2.7251586614173227
11
2.8326771653543306
21
-2.7244094488188977
0
LINE
8
F.Cu
6
CONTINUOUS
10
2.8326771653543306
20
-2.7244094488188977
11
2.8346456692913384
21
-2.7244094488188977
0
LINE
8
F.Cu
6
CONTINUOUS
10
2.8346456692913384
20
-2.7244094488188977
11
2.8346456692913384
21
-2.1639763779527557
0
LINE
8
F.Cu
6
CONTINUOUS
10
2.8346456692913384
20
-2.1639763779527557
11
2.8348140551181102
21
-2.1614075590551183
0
LINE
8
F.Cu
6
CONTINUOUS
10
2.8348140551181102
20
-2.1614075590551183
11
2.8348140551181102
21
-2.161406968503937
0
LINE
8
F.Cu
6
CONTINUOUS
10
2.8348140551181102
20
-2.161406968503937
11
2.8361440944881888
21
-2.1564432283464567
0
LINE
8
F.Cu
6
CONTINUOUS
10
2.8361440944881888
20
-2.1564432283464567
11
2.8362778740157482
21
-2.1562114960629919
0
LINE
8
F.Cu
6
CONTINUOUS
10
2.8362778740157482
20
-2.1562114960629919
11
2.8387135039370079
21
-2.1519928740157481
0
LINE
8
F.Cu
6
CONTINUOUS
10
2.8387135039370079
20
-2.1519928740157481
11
2.8387140944881888
21
-2.1519922440944881
0
LINE
8
F.Cu
6
CONTINUOUS
10
2.8387140944881888
20
-2.1519922440944881
11
2.8404112992125983
21
-2.1500569685039368
0
LINE
8
F.Cu
6
CONTINUOUS
10
2.8404112992125983
20
-2.1500569685039368
11
2.8831692913385827
21
-2.1072989370078741
0
LINE
8
F.Cu
6
CONTINUOUS
10
2.8831692913385827
20
-2.1072989370078741
11
2.8831692913385827
21
-2.04511531496063
0
LINE
8
F.Cu
6
CONTINUOUS
10
2.8831692913385827
20
-2.04511531496063
11
2.8828734251968502
21
-2.0449176377952756
0
LINE
8
F.Cu
6
CONTINUOUS
10
2.8828734251968502
20
-2.0449176377952756
11
2.8785075590551181
21
-2.0405517716535431
0
LINE
8
F.Cu
6
CONTINUOUS
10
2.8785075590551181
20
-2.0405517716535431
11
2.875077283464567
21
-2.0354179921259843
0
LINE
8
F.Cu
6
CONTINUOUS
10
2.875077283464567
20
-2.0354179921259843
11
2.8727144881889761
21
-2.0297137007874015
0
LINE
8
F.Cu
6
CONTINUOUS
10
2.8727144881889761
20
-2.0297137007874015
11
2.8715099212598423
21
-2.0236580314960628
0
LINE
8
F.Cu
6
CONTINUOUS
10
2.8715099212598423
20
-2.0236580314960628
11
2.8715099212598423
21
-2.0174837007874014
0
LINE
8
F.Cu
6
CONTINUOUS
10
2.8715099212598423
20
-2.0174837007874014
11
2.8727144881889761
21
-2.0114280314960631
0
LINE
8
F.Cu
6
CONTINUOUS
10
2.8727144881889761
20
-2.0114280314960631
11
2.875077283464567
21
-2.0057237401574803
0
LINE
8
F.Cu
6
CONTINUOUS
10
2.875077283464567
20
-2.0057237401574803
11
2.8785075590551181
21
-2.0005899606299211
0
LINE
8
F.Cu
6
CONTINUOUS
10
2.8785075590551181
20
-2.0005899606299211
11
2.8828734251968502
21
-1.9962240944881888
0
LINE
8
F.Cu
6
CONTINUOUS
10
2.8828734251968502
20
-1.9962240944881888
11
2.8831692913385827
21
-1.9960263779527558
0
LINE
8
F.Cu
6
CONTINUOUS
10
2.8831692913385827
20
-1.9960263779527558
11
2.8831692913385827
21
-1.9451153149606299
0
LINE
8
F.Cu
6
CONTINUOUS
10
2.8831692913385827
20
-1.9451153149606299
11
2.8828734251968502
21
-1.9449176377952755
0
LINE
8
F.Cu
6
CONTINUOUS
10
2.8828734251968502
20
-1.9449176377952755
11
2.8785075590551181
21
-1.9405517716535432
0
LINE
8
F.Cu
6
CONTINUOUS
10
2.8785075590551181
20
-1.9405517716535432
11
2.875077283464567
21
-1.9354179921259842
0
LINE
8
F.Cu
6
CONTINUOUS
10
2.875077283464567
20
-1.9354179921259842
11
2.8727144881889761
21
-1.9297137007874015
0
LINE
8
F.Cu
6
CONTINUOUS
10
2.8727144881889761
20
-1.9297137007874015
11
2.8715099212598423
21
-1.923658031496063
0
LINE
8
F.Cu
6
CONTINUOUS
10
2.8715099212598423
20
-1.923658031496063
11
2.8715099212598423
21
-1.9174837007874015
0
LINE
8
F.Cu
6
CONTINUOUS
10
2.8715099212598423
20
-1.9174837007874015
11
2.8727144881889761
21
-1.911428031496063
0
LINE
8
F.Cu
6
CONTINUOUS
10
2.8727144881889761
20
-1.911428031496063
11
2.875077283464567
21
-1.9057237401574803
0
LINE
8
F.Cu
6
CONTINUOUS
10
2.875077283464567
20
-1.9057237401574803
11
2.8785075590551181
21
-1.9005899606299212
0
LINE
8
F.Cu
6
CONTINUOUS
10
2.8785075590551181
20
-1.9005899606299212
11
2.8828734251968502
21
-1.896224094488189
0
LINE
8
F.Cu
6
CONTINUOUS
10
2.8828734251968502
20
-1.896224094488189
11
2.8831692913385827
21
-1.896026377952756
0
LINE
8
F.Cu
6
CONTINUOUS
10
2.8831692913385827
20
-1.896026377952756
11
2.8831692913385827
21
-1.8451153149606299
0
LINE
8
F.Cu
6
CONTINUOUS
10
2.8831692913385827
20
-1.8451153149606299
11
2.8828734251968502
21
-1.8449176377952756
0
LINE
8
F.Cu
6
CONTINUOUS
10
2.8828734251968502
20
-1.8449176377952756
11
2.8785075590551181
21
-1.8405517716535433
0
LINE
8
F.Cu
6
CONTINUOUS
10
2.8785075590551181
20
-1.8405517716535433
11
2.8783098818897637
21
-1.8402559055118111
0
LINE
8
F.Cu
6
CONTINUOUS
10
2.8783098818897637
20
-1.8402559055118111
11
2.3214412204724408
21
-1.8402559055118111
0
LINE
8
F.Cu
6
CONTINUOUS
10
2.3214412204724408
20
-1.8402559055118111
11
2.277698937007874
21
-1.8839981496062992
0
LINE
8
F.Cu
6
CONTINUOUS
10
2.277698937007874
20
-1.8839981496062992
11
2.2757636220472439
21
-1.8856953149606299
0
LINE
8
F.Cu
6
CONTINUOUS
10
2.2757636220472439
20
-1.8856953149606299
11
2.2757630314960631
21
-1.8856959448818897
0
LINE
8
F.Cu
6
CONTINUOUS
10
2.2757630314960631
20
-1.8856959448818897
11
2.2713126771653545
21
-1.8882653543307086
0
LINE
8
F.Cu
6
CONTINUOUS
10
2.2713126771653545
20
-1.8882653543307086
11
2.2663489370078738
21
-1.8895953937007874
0
LINE
8
F.Cu
6
CONTINUOUS
10
2.2663489370078738
20
-1.8895953937007874
11
2.261210118110236
21
-1.8895953937007874
0
LINE
8
F.Cu
6
CONTINUOUS
10
2.261210118110236
20
-1.8895953937007874
11
2.2562463779527557
21
-1.8882653543307086
0
LINE
8
F.Cu
6
CONTINUOUS
10
2.2562463779527557
20
-1.8882653543307086
11
2.2517960236220471
21
-1.8856959448818897
0
LINE
8
F.Cu
6
CONTINUOUS
10
2.2517960236220471
20
-1.8856959448818897
11
2.2481623228346455
21
-1.8820622440944881
0
LINE
8
F.Cu
6
CONTINUOUS
10
2.2481623228346455
20
-1.8820622440944881
11
2.2455929133858268
21
-1.8776118897637795
0
LINE
8
F.Cu
6
CONTINUOUS
10
2.2455929133858268
20
-1.8776118897637795
11
2.2455194881889762
21
-1.8773377952755905
0
LINE
8
F.Cu
6
CONTINUOUS
10
2.2455194881889762
20
-1.8773377952755905
11
2.2442628740157482
21
-1.8726481496062992
0
LINE
8
F.Cu
6
CONTINUOUS
10
2.2442628740157482
20
-1.8726481496062992
11
2.2442628740157482
21
-1.8726475196850394
0
LINE
8
F.Cu
6
CONTINUOUS
10
2.2442628740157482
20
-1.8726475196850394
11
2.2440944881889764
21
-1.8700787401574803
0
LINE
8
F.Cu
6
CONTINUOUS
10
2.2440944881889764
20
-1.8700787401574803
11
2.2440944881889764
21
-0.6889763779527559
0
LINE
8
F.Cu
6
CONTINUOUS
10
2.2440944881889764
20
-0.6889763779527559
11
2.2442628740157482
21
-0.6864075590551181
0
LINE
8
F.Cu
6
CONTINUOUS
10
2.2442628740157482
20
-0.6864075590551181
11
2.2442628740157482
21
-0.686406968503937
0
LINE
8
F.Cu
6
CONTINUOUS
10
2.2442628740157482
20
-0.686406968503937
11
2.2455929133858268
21
-0.6814432283464567
0
LINE
8
F.Cu
6
CONTINUOUS
10
2.2455929133858268
20
-0.6814432283464567
11
2.2481623228346455
21
-0.676992874015748
0
LINE
8
F.Cu
6
CONTINUOUS
10
2.2481623228346455
20
-0.676992874015748
11
2.2481629133858267
21
-0.6769922440944882
0
LINE
8
F.Cu
6
CONTINUOUS
10
2.2481629133858267
20
-0.6769922440944882
11
2.2498601181102362
21
-0.675056968503937
0
LINE
8
F.Cu
6
CONTINUOUS
10
2.2498601181102362
20
-0.675056968503937
11
2.3482853149606298
21
-0.5766317716535433
0
LINE
8
F.Cu
6
CONTINUOUS
10
2.3482853149606298
20
-0.5766317716535433
11
2.350220590551181
21
-0.5749345669291338
0
LINE
8
F.Cu
6
CONTINUOUS
10
2.350220590551181
20
-0.5749345669291338
11
2.3502212204724411
21
-0.5749339763779527
0
LINE
8
F.Cu
6
CONTINUOUS
10
2.3502212204724411
20
-0.5749339763779527
11
2.3546715748031497
21
-0.5723645669291338
0
LINE
8
F.Cu
6
CONTINUOUS
10
2.3546715748031497
20
-0.5723645669291338
11
2.3596353149606299
21
-0.5710345275590551
0
LINE
8
F.Cu
6
CONTINUOUS
10
2.3596353149606299
20
-0.5710345275590551
11
2.3596359055118108
21
-0.5710345275590551
0
LINE
8
F.Cu
6
CONTINUOUS
10
2.3596359055118108
20
-0.5710345275590551
11
2.3622047244094486
21
-0.5708661417322834
0
LINE
8
F.Cu
6
CONTINUOUS
10
2.3622047244094486
20
-0.5708661417322834
11
3.6980314960629919
21
-0.5708661417322834
0
LINE
8
F.Cu
6
CONTINUOUS
10
3.6980314960629919
20
-0.5708661417322834
11
3.7006003149606297
21
-0.5710345275590551
0
LINE
8
F.Cu
6
CONTINUOUS
10
4.6982547637795271
20
-1.8346074803149606
11
4.7014479133858265
21
-1.8367410629921259
0
LINE
8
F.Cu
6
CONTINUOUS
10
4.7014479133858265
20
-1.8367410629921259
11
4.7035814960629923
21
-1.839934212598425
0
LINE
8
F.Cu
6
CONTINUOUS
10
4.7035814960629923
20
-1.839934212598425
11
4.7043307086614172
21
-1.8437007874015747
0
LINE
8
F.Cu
6
CONTINUOUS
10
4.7043307086614172
20
-1.8437007874015747
11
4.7043307086614172
21
-1.8460701968503936
0
LINE
8
F.Cu
6
CONTINUOUS
10
4.7043307086614172
20
-1.8460701968503936
11
4.7084265354330705
21
-1.847167716535433
0
LINE
8
F.Cu
6
CONTINUOUS
10
4.7084265354330705
20
-1.847167716535433
11
4.7128768897637796
21
-1.8497371259842519
0
LINE
8
F.Cu
6
CONTINUOUS
10
4.7128768897637796
20
-1.8497371259842519
11
4.7128774803149609
21
-1.849737716535433
0
LINE
8
F.Cu
6
CONTINUOUS
10
4.7128774803149609
20
-1.849737716535433
11
4.7148127952755905
21
-1.8514349212598424
0
LINE
8
F.Cu
6
CONTINUOUS
10
4.7148127952755905
20
-1.8514349212598424
11
4.7773052755905514
21
-1.9139273622047244
0
LINE
8
F.Cu
6
CONTINUOUS
10
4.7773052755905514
20
-1.9139273622047244
11
4.779002716535433
21
-1.9158629527559055
0
LINE
8
F.Cu
6
CONTINUOUS
10
4.779002716535433
20
-1.9158629527559055
11
4.779003031496063
21
-1.9158632677165355
0
LINE
8
F.Cu
6
CONTINUOUS
10
4.779003031496063
20
-1.9158632677165355
11
4.7815724409448821
21
-1.9203136220472441
0
LINE
8
F.Cu
6
CONTINUOUS
10
4.7815724409448821
20
-1.9203136220472441
11
4.7815724409448821
21
-1.9203136614173228
0
LINE
8
F.Cu
6
CONTINUOUS
10
4.7815724409448821
20
-1.9203136614173228
11
4.7829024803149602
21
-1.9252773622047243
0
LINE
8
F.Cu
6
CONTINUOUS
10
4.7829024803149602
20
-1.9252773622047243
11
4.7829024803149602
21
-1.9252779527559054
0
LINE
8
F.Cu
6
CONTINUOUS
10
4.7829024803149602
20
-1.9252779527559054
11
4.783070866141732
21
-1.9278467716535432
0
LINE
8
F.Cu
6
CONTINUOUS
10
4.783070866141732
20
-1.9278467716535432
11
4.783070866141732
21
-2.0718214173228344
0
LINE
8
F.Cu
6
CONTINUOUS
10
4.783070866141732
20
-2.0718214173228344
11
4.8034573622047239
21
-2.0514349212598426
0
LINE
8
F.Cu
6
CONTINUOUS
10
4.8034573622047239
20
-2.0514349212598426
11
4.8053929133858269
21
-2.0497374409448819
0
LINE
8
F.Cu
6
CONTINUOUS
10
4.8053929133858269
20
-2.0497374409448819
11
4.8053932677165356
21
-2.0497371259842518
0
LINE
8
F.Cu
6
CONTINUOUS
10
4.8053932677165356
20
-2.0497371259842518
11
4.8098436220472438
21
-2.0471677165354332
0
LINE
8
F.Cu
6
CONTINUOUS
10
4.8098436220472438
20
-2.0471677165354332
11
4.8148073622047241
21
-2.0458376771653541
0
LINE
8
F.Cu
6
CONTINUOUS
10
4.8148073622047241
20
-2.0458376771653541
11
4.8148079527559053
21
-2.0458376771653541
0
LINE
8
F.Cu
6
CONTINUOUS
10
4.8148079527559053
20
-2.0458376771653541
11
4.8173767716535432
21
-2.0456692913385828
0
LINE
8
F.Cu
6
CONTINUOUS
10
4.8173767716535432
20
-2.0456692913385828
11
4.9482901968503938
21
-2.0456692913385828
0
LINE
8
F.Cu
6
CONTINUOUS
10
4.9482901968503938
20
-2.0456692913385828
11
4.9484878740157479
21
-2.0453734251968503
0
LINE
8
F.Cu
6
CONTINUOUS
10
4.9484878740157479
20
-2.0453734251968503
11
4.9528537401574804
21
-2.0410075590551182
0
LINE
8
F.Cu
6
CONTINUOUS
10
4.9528537401574804
20
-2.0410075590551182
11
4.9579875196850391
21
-2.0375772834645667
0
LINE
8
F.Cu
6
CONTINUOUS
10
4.9579875196850391
20
-2.0375772834645667
11
4.9636918110236223
21
-2.0352144881889762
0
LINE
8
F.Cu
6
CONTINUOUS
10
4.9636918110236223
20
-2.0352144881889762
11
4.9697474803149602
21
-2.0340099212598424
0
LINE
8
F.Cu
6
CONTINUOUS
10
4.9697474803149602
20
-2.0340099212598424
11
4.9759218110236221
21
-2.0340099212598424
0
LINE
8
F.Cu
6
CONTINUOUS
10
4.9759218110236221
20
-2.0340099212598424
11
4.9819774803149608
21
-2.0352144881889762
0
LINE
8
F.Cu
6
CONTINUOUS
10
4.9819774803149608
20
-2.0352144881889762
11
4.9876817716535431
21
-2.0375772834645667
0
LINE
8
F.Cu
6
CONTINUOUS
10
4.9876817716535431
20
-2.0375772834645667
11
4.9928155511811019
21
-2.0410075590551182
0
LINE
8
F.Cu
6
CONTINUOUS
10
4.9928155511811019
20
-2.0410075590551182
11
4.9971814173228344
21
-2.0453734251968503
0
LINE
8
F.Cu
6
CONTINUOUS
10
4.9971814173228344
20
-2.0453734251968503
11
5.0006116929133855
21
-2.0505072047244095
0
LINE
8
F.Cu
6
CONTINUOUS
10
5.0006116929133855
20
-2.0505072047244095
11
5.0029744881889764
21
-2.0562114960629922
0
LINE
8
F.Cu
6
CONTINUOUS
10
5.0029744881889764
20
-2.0562114960629922
11
5.0041790551181098
21
-2.0622671653543305
0
LINE
8
F.Cu
6
CONTINUOUS
10
5.0041790551181098
20
-2.0622671653543305
11
5.0041790551181098
21
-2.068441496062992
0
LINE
8
F.Cu
6
CONTINUOUS
10
5.0041790551181098
20
-2.068441496062992
11
5.0029744881889764
21
-2.0744971653543307
0
LINE
8
F.Cu
6
CONTINUOUS
10
5.0029744881889764
20
-2.0744971653543307
11
5.0006116929133855
21
-2.0802014566929135
0
LINE
8
F.Cu
6
CONTINUOUS
10
5.0006116929133855
20
-2.0802014566929135
11
4.9971814173228344
21
-2.0853352362204722
0
LINE
8
F.Cu
6
CONTINUOUS
10
4.9971814173228344
20
-2.0853352362204722
11
4.9928155511811019
21
-2.0897011023622047
0
LINE
8
F.Cu
6
CONTINUOUS
10
4.9928155511811019
20
-2.0897011023622047
11
4.9876817716535431
21
-2.0931313779527558
0
LINE
8
F.Cu
6
CONTINUOUS
10
4.9876817716535431
20
-2.0931313779527558
11
4.9819774803149608
21
-2.0954941732283463
0
LINE
8
F.Cu
6
CONTINUOUS
10
4.9819774803149608
20
-2.0954941732283463
11
4.9759218110236221
21
-2.0966987401574801
0
LINE
8
F.Cu
6
CONTINUOUS
10
4.9759218110236221
20
-2.0966987401574801
11
4.9697474803149602
21
-2.0966987401574801
0
LINE
8
F.Cu
6
CONTINUOUS
10
4.9697474803149602
20
-2.0966987401574801
11
4.9636918110236223
21
-2.0954941732283463
0
LINE
8
F.Cu
6
CONTINUOUS
10
4.9636918110236223
20
-2.0954941732283463
11
4.9579875196850391
21
-2.0931313779527558
0
LINE
8
F.Cu
6
CONTINUOUS
10
4.9579875196850391
20
-2.0931313779527558
11
4.9528537401574804
21
-2.0897011023622047
0
LINE
8
F.Cu
6
CONTINUOUS
10
4.9528537401574804
20
-2.0897011023622047
11
4.9484878740157479
21
-2.0853352362204722
0
LINE
8
F.Cu
6
CONTINUOUS
10
4.9484878740157479
20
-2.0853352362204722
11
4.9482901968503938
21
-2.0850393700787402
0
LINE
8
F.Cu
6
CONTINUOUS
10
4.9482901968503938
20
-2.0850393700787402
11
4.8255305511811022
21
-2.0850393700787402
0
LINE
8
F.Cu
6
CONTINUOUS
10
4.8255305511811022
20
-2.0850393700787402
11
4.783070866141732
21
-2.1274990551181103
0
LINE
8
F.Cu
6
CONTINUOUS
10
4.783070866141732
20
-2.1274990551181103
11
4.783070866141732
21
-2.1922938188976375
0
LINE
8
F.Cu
6
CONTINUOUS
10
4.783070866141732
20
-2.1922938188976375
11
4.8386955905511808
21
-2.2479185433070867
0
LINE
8
F.Cu
6
CONTINUOUS
10
4.8386955905511808
20
-2.2479185433070867
11
4.8386958661417321
21
-2.2479188582677163
0
LINE
8
F.Cu
6
CONTINUOUS
10
4.8386958661417321
20
-2.2479188582677163
11
4.9364462992125979
21
-2.3456692913385826
0
LINE
8
F.Cu
6
CONTINUOUS
10
4.9364462992125979
20
-2.3456692913385826
11
4.9482901968503938
21
-2.3456692913385826
0
LINE
8
F.Cu
6
CONTINUOUS
10
4.9482901968503938
20
-2.3456692913385826
11
4.9484878740157479
21
-2.3453734251968505
0
LINE
8
F.Cu
6
CONTINUOUS
10
4.9484878740157479
20
-2.3453734251968505
11
4.9528537401574804
21
-2.341007559055118
0
LINE
8
F.Cu
6
CONTINUOUS
10
4.9528537401574804
20
-2.341007559055118
11
4.9579875196850391
21
-2.3375772834645669
0
LINE
8
F.Cu
6
CONTINUOUS
10
4.9579875196850391
20
-2.3375772834645669
11
4.9636918110236223
21
-2.3352144881889765
0
LINE
8
F.Cu
6
CONTINUOUS
10
4.9636918110236223
20
-2.3352144881889765
11
4.9697474803149602
21
-2.3340099212598426
0
LINE
8
F.Cu
6
CONTINUOUS
10
4.9697474803149602
20
-2.3340099212598426
11
4.9759218110236221
21
-2.3340099212598426
0
LINE
8
F.Cu
6
CONTINUOUS
10
4.9759218110236221
20
-2.3340099212598426
11
4.9819774803149608
21
-2.3352144881889765
0
LINE
8
F.Cu
6
CONTINUOUS
10
4.9819774803149608
20
-2.3352144881889765
11
4.9876817716535431
21
-2.3375772834645669
0
LINE
8
F.Cu
6
CONTINUOUS
10
4.9876817716535431
20
-2.3375772834645669
11
4.9928155511811019
21
-2.341007559055118
0
LINE
8
F.Cu
6
CONTINUOUS
10
4.9928155511811019
20
-2.341007559055118
11
4.9971814173228344
21
-2.3453734251968505
0
LINE
8
F.Cu
6
CONTINUOUS
10
4.9971814173228344
20
-2.3453734251968505
11
5.0006116929133855
21
-2.3505072047244093
0
LINE
8
F.Cu
6
CONTINUOUS
10
5.0006116929133855
20
-2.3505072047244093
11
5.0029744881889764
21
-2.3562114960629921
0
LINE
8
F.Cu
6
CONTINUOUS
10
5.0029744881889764
20
-2.3562114960629921
11
5.0041790551181098
21
-2.3622671653543308
0
LINE
8
F.Cu
6
CONTINUOUS
10
5.0041790551181098
20
-2.3622671653543308
11
5.0041790551181098
21
-2.3684414960629923
0
LINE
8
F.Cu
6
CONTINUOUS
10
5.0041790551181098
20
-2.3684414960629923
11
5.0029744881889764
21
-2.3744971653543305
0
LINE
8
F.Cu
6
CONTINUOUS
10
5.0029744881889764
20
-2.3744971653543305
11
5.0006116929133855
21
-2.3802014566929133
0
LINE
8
F.Cu
6
CONTINUOUS
10
5.0006116929133855
20
-2.3802014566929133
11
4.9971814173228344
21
-2.3853352362204725
0
LINE
8
F.Cu
6
CONTINUOUS
10
4.9971814173228344
20
-2.3853352362204725
11
4.9928155511811019
21
-2.3897011023622046
0
LINE
8
F.Cu
6
CONTINUOUS
10
4.9928155511811019
20
-2.3897011023622046
11
4.9876817716535431
21
-2.3931313779527557
0
LINE
8
F.Cu
6
CONTINUOUS
10
4.9876817716535431
20
-2.3931313779527557
11
4.9819774803149608
21
-2.3954941732283466
0
LINE
8
F.Cu
6
CONTINUOUS
10
4.9819774803149608
20
-2.3954941732283466
11
4.9759218110236221
21
-2.3966987401574804
0
LINE
8
F.Cu
6
CONTINUOUS
10
4.9759218110236221
20
-2.3966987401574804
11
4.9697474803149602
21
-2.3966987401574804
0
LINE
8
F.Cu
6
CONTINUOUS
10
4.9697474803149602
20
-2.3966987401574804
11
4.9636918110236223
21
-2.3954941732283466
0
LINE
8
F.Cu
6
CONTINUOUS
10
4.9636918110236223
20
-2.3954941732283466
11
4.9579875196850391
21
-2.3931313779527557
0
LINE
8
F.Cu
6
CONTINUOUS
10
4.9579875196850391
20
-2.3931313779527557
11
4.9528537401574804
21
-2.3897011023622046
0
LINE
8
F.Cu
6
CONTINUOUS
10
4.9528537401574804
20
-2.3897011023622046
11
4.9484878740157479
21
-2.3853352362204725
0
LINE
8
F.Cu
6
CONTINUOUS
10
4.9484878740157479
20
-2.3853352362204725
11
4.9482901968503938
21
-2.38503937007874
0
LINE
8
F.Cu
6
CONTINUOUS
10
4.9482901968503938
20
-2.38503937007874
11
4.9282925196850389
21
-2.38503937007874
0
LINE
8
F.Cu
6
CONTINUOUS
10
4.9282925196850389
20
-2.38503937007874
11
4.9257237007874011
21
-2.3848709842519686
0
LINE
8
F.Cu
6
CONTINUOUS
10
4.9257237007874011
20
-2.3848709842519686
11
4.9257231102362207
21
-2.3848709842519686
0
LINE
8
F.Cu
6
CONTINUOUS
10
4.9257231102362207
20
-2.3848709842519686
11
4.9207593700787404
21
-2.3835409448818896
0
LINE
8
F.Cu
6
CONTINUOUS
10
4.9207593700787404
20
-2.3835409448818896
11
4.9163090157480314
21
-2.3809715354330709
0
LINE
8
F.Cu
6
CONTINUOUS
10
4.9163090157480314
20
-2.3809715354330709
11
4.9163083858267713
21
-2.3809709055118109
0
LINE
8
F.Cu
6
CONTINUOUS
10
4.9163083858267713
20
-2.3809709055118109
11
4.9143731102362205
21
-2.3792737401574802
0
LINE
8
F.Cu
6
CONTINUOUS
10
4.9143731102362205
20
-2.3792737401574802
11
4.8444612204724411
21
-2.3093618503937008
0
LINE
8
F.Cu
6
CONTINUOUS
10
4.8444612204724411
20
-2.3093618503937008
11
4.8444612204724411
21
-2.4414715354330707
0
LINE
8
F.Cu
6
CONTINUOUS
10
4.8444612204724411
20
-2.4414715354330707
11
4.8442928346456693
21
-2.4440403149606298
0
LINE
8
F.Cu
6
CONTINUOUS
10
4.8442928346456693
20
-2.4440403149606298
11
4.8442928346456693
21
-2.4440409448818898
0
LINE
8
F.Cu
6
CONTINUOUS
10
4.8442928346456693
20
-2.4440409448818898
11
4.8438113779527558
21
-2.4458377165354328
0
LINE
8
F.Cu
6
CONTINUOUS
10
4.8438113779527558
20
-2.4458377165354328
11
4.8429627952755903
21
-2.4490046850393701
0
LINE
8
F.Cu
6
CONTINUOUS
10
4.8429627952755903
20
-2.4490046850393701
11
4.8403933858267711
21
-2.4534550393700787
0
LINE
8
F.Cu
6
CONTINUOUS
10
4.8403933858267711
20
-2.4534550393700787
11
4.840392755905512
21
-2.45345562992126
0
LINE
8
F.Cu
6
CONTINUOUS
10
4.840392755905512
20
-2.45345562992126
11
4.8386956299212596
21
-2.4553909448818896
0
LINE
8
F.Cu
6
CONTINUOUS
10
4.8386956299212596
20
-2.4553909448818896
11
3.7368600393700788
21
-3.557226496062992
0
LINE
8
F.Cu
6
CONTINUOUS
10
3.7368600393700788
20
-3.557226496062992
11
3.7349247244094488
21
-3.5589236614173227
0
LINE
8
F.Cu
6
CONTINUOUS
10
3.7349247244094488
20
-3.5589236614173227
11
3.7349241338582675
21
-3.5589242913385828
0
LINE
8
F.Cu
6
CONTINUOUS
10
3.7349241338582675
20
-3.5589242913385828
11
3.7304737795275589
21
-3.5614937007874015
0
LINE
8
F.Cu
6
CONTINUOUS
10
3.7304737795275589
20
-3.5614937007874015
11
3.7255100393700786
21
-3.56282374015748
0
LINE
8
F.Cu
6
CONTINUOUS
10
3.7255100393700786
20
-3.56282374015748
11
3.7255094488188973
21
-3.56282374015748
0
LINE
8
F.Cu
6
CONTINUOUS
10
3.7255094488188973
20
-3.56282374015748
11
3.72294062992126
21
-3.5629921259842519
0
LINE
8
F.Cu
6
CONTINUOUS
10
3.72294062992126
20
-3.5629921259842519
11
3.2257255511811023
21
-3.5629921259842519
0
LINE
8
F.Cu
6
CONTINUOUS
10
3.2257255511811023
20
-3.5629921259842519
11
3.2255278740157478
21
-3.5632879921259843
0
LINE
8
F.Cu
6
CONTINUOUS
10
3.2255278740157478
20
-3.5632879921259843
11
3.2211620078740157
21
-3.5676538582677164
0
LINE
8
F.Cu
6
CONTINUOUS
10
3.2211620078740157
20
-3.5676538582677164
11
3.2160282283464565
21
-3.5710841338582675
0
LINE
8
F.Cu
6
CONTINUOUS
10
3.2160282283464565
20
-3.5710841338582675
11
3.2103239370078738
21
-3.573446929133858
0
LINE
8
F.Cu
6
CONTINUOUS
10
3.2103239370078738
20
-3.573446929133858
11
3.2042682677165355
21
-3.5746514960629923
0
LINE
8
F.Cu
6
CONTINUOUS
10
3.2042682677165355
20
-3.5746514960629923
11
3.198093937007874
21
-3.5746514960629923
0
LINE
8
F.Cu
6
CONTINUOUS
10
3.198093937007874
20
-3.5746514960629923
11
3.1920382677165353
21
-3.573446929133858
0
LINE
8
F.Cu
6
CONTINUOUS
10
3.1920382677165353
20
-3.573446929133858
11
3.1863339763779526
21
-3.5710841338582675
0
LINE
8
F.Cu
6
CONTINUOUS
10
3.1863339763779526
20
-3.5710841338582675
11
3.1812001968503938
21
-3.5676538582677164
0
LINE
8
F.Cu
6
CONTINUOUS
10
3.1812001968503938
20
-3.5676538582677164
11
3.1768343307086613
21
-3.5632879921259843
0
LINE
8
F.Cu
6
CONTINUOUS
10
3.1768343307086613
20
-3.5632879921259843
11
3.1734040551181102
21
-3.5581542125984251
0
LINE
8
F.Cu
6
CONTINUOUS
10
3.1734040551181102
20
-3.5581542125984251
11
3.1710412598425197
21
-3.5524499212598424
0
LINE
8
F.Cu
6
CONTINUOUS
10
3.1710412598425197
20
-3.5524499212598424
11
3.1698366929133859
21
-3.5463942519685037
0
LINE
8
F.Cu
6
CONTINUOUS
10
3.1698366929133859
20
-3.5463942519685037
11
3.1698366929133859
21
-3.5402199212598426
0
LINE
8
F.Cu
6
CONTINUOUS
10
3.1698366929133859
20
-3.5402199212598426
11
3.1710412598425197
21
-3.5341642519685039
0
LINE
8
F.Cu
6
CONTINUOUS
10
3.1710412598425197
20
-3.5341642519685039
11
3.1734040551181102
21
-3.5284599606299212
0
LINE
8
F.Cu
6
CONTINUOUS
10
3.1734040551181102
20
-3.5284599606299212
11
3.1768343307086613
21
-3.523326181102362
0
LINE
8
F.Cu
6
CONTINUOUS
10
3.1768343307086613
20
-3.523326181102362
11
3.1812001968503938
21
-3.5189603149606299
0
LINE
8
F.Cu
6
CONTINUOUS
10
3.1812001968503938
20
-3.5189603149606299
11
3.1863339763779526
21
-3.5155300393700788
0
LINE
8
F.Cu
6
CONTINUOUS
10
3.1863339763779526
20
-3.5155300393700788
11
3.1920382677165353
21
-3.5131672440944883
0
LINE
8
F.Cu
6
CONTINUOUS
10
3.1920382677165353
20
-3.5131672440944883
11
3.198093937007874
21
-3.511962677165354
0
LINE
8
F.Cu
6
CONTINUOUS
10
3.198093937007874
20
-3.511962677165354
11
3.2042682677165355
21
-3.511962677165354
0
LINE
8
F.Cu
6
CONTINUOUS
10
3.2042682677165355
20
-3.511962677165354
11
3.2103239370078738
21
-3.5131672440944883
0
LINE
8
F.Cu
6
CONTINUOUS
10
3.2103239370078738
20
-3.5131672440944883
11
3.2160282283464565
21
-3.5155300393700788
0
LINE
8
F.Cu
6
CONTINUOUS
10
3.2160282283464565
20
-3.5155300393700788
11
3.2211620078740157
21
-3.5189603149606299
0
LINE
8
F.Cu
6
CONTINUOUS
10
3.2211620078740157
20
-3.5189603149606299
11
3.2255278740157478
21
-3.523326181102362
0
LINE
8
F.Cu
6
CONTINUOUS
10
3.2255278740157478
20
-3.523326181102362
11
3.2257255511811023
21
-3.5236220472440944
0
LINE
8
F.Cu
6
CONTINUOUS
10
3.2257255511811023
20
-3.5236220472440944
11
3.7147868503937005
21
-3.5236220472440944
0
LINE
8
F.Cu
6
CONTINUOUS
10
3.7147868503937005
20
-3.5236220472440944
11
4.8050911417322837
21
-2.4333177165354329
0
LINE
8
F.Cu
6
CONTINUOUS
10
4.8050911417322837
20
-2.4333177165354329
11
4.8050911417322837
21
-2.2699917716535434
0
LINE
8
F.Cu
6
CONTINUOUS
10
4.8050911417322837
20
-2.2699917716535434
11
4.7494664173228349
21
-2.2143670472440946
0
LINE
8
F.Cu
6
CONTINUOUS
10
4.7494664173228349
20
-2.2143670472440946
11
4.747769212598425
21
-2.2124317322834646
0
LINE
8
F.Cu
6
CONTINUOUS
10
4.747769212598425
20
-2.2124317322834646
11
4.7477686220472437
21
-2.2124311417322833
0
LINE
8
F.Cu
6
CONTINUOUS
10
4.7477686220472437
20
-2.2124311417322833
11
4.7451992125984255
21
-2.2079807874015747
0
LINE
8
F.Cu
6
CONTINUOUS
10
4.7451992125984255
20
-2.2079807874015747
11
4.7438691732283464
21
-2.2030170472440944
0
LINE
8
F.Cu
6
CONTINUOUS
10
4.7438691732283464
20
-2.2030170472440944
11
4.7438691732283464
21
-2.2030164173228344
0
LINE
8
F.Cu
6
CONTINUOUS
10
4.7438691732283464
20
-2.2030164173228344
11
4.7437007874015746
21
-2.2004476377952757
0
LINE
8
F.Cu
6
CONTINUOUS
10
4.7437007874015746
20
-2.2004476377952757
11
4.7437007874015746
21
-2.1668691338582677
0
LINE
8
F.Cu
6
CONTINUOUS
10
4.7437007874015746
20
-2.1668691338582677
11
4.7312961811023619
21
-2.1792737401574804
0
LINE
8
F.Cu
6
CONTINUOUS
10
4.7312961811023619
20
-2.1792737401574804
11
4.7293608661417323
21
-2.1809709055118112
0
LINE
8
F.Cu
6
CONTINUOUS
10
4.7293608661417323
20
-2.1809709055118112
11
4.7293602755905511
21
-2.1809715354330708
0
LINE
8
F.Cu
6
CONTINUOUS
10
4.7293602755905511
20
-2.1809715354330708
11
4.7249929133858268
21
-2.183493031496063
0
LINE
8
F.Cu
6
CONTINUOUS
10
4.7249929133858268
20
-2.183493031496063
11
4.724909921259842
21
-2.1835409448818899
0
LINE
8
F.Cu
6
CONTINUOUS
10
4.724909921259842
20
-2.1835409448818899
11
4.7199461811023617
21
-2.1848709842519685
0
LINE
8
F.Cu
6
CONTINUOUS
10
4.7199461811023617
20
-2.1848709842519685
11
4.7199455905511813
21
-2.1848709842519685
0
LINE
8
F.Cu
6
CONTINUOUS
10
4.7199455905511813
20
-2.1848709842519685
11
4.7173767716535435
21
-2.1850393700787403
0
LINE
8
F.Cu
6
CONTINUOUS
10
4.7173767716535435
20
-2.1850393700787403
11
4.6973790944881886
21
-2.1850393700787403
0
LINE
8
F.Cu
6
CONTINUOUS
10
4.6973790944881886
20
-2.1850393700787403
11
4.6971814173228346
21
-2.1853352362204723
0
LINE
8
F.Cu
6
CONTINUOUS
10
4.6971814173228346
20
-2.1853352362204723
11
4.6928155511811021
21
-2.1897011023622048
0
LINE
8
F.Cu
6
CONTINUOUS
10
4.6928155511811021
20
-2.1897011023622048
11
4.6876817716535433
21
-2.1931313779527559
0
LINE
8
F.Cu
6
CONTINUOUS
10
4.6876817716535433
20
-2.1931313779527559
11
4.6819774803149601
21
-2.1954941732283464
0
LINE
8
F.Cu
6
CONTINUOUS
10
4.6819774803149601
20
-2.1954941732283464
11
4.6759218110236223
21
-2.1966987401574802
0
LINE
8
F.Cu
6
CONTINUOUS
10
4.6759218110236223
20
-2.1966987401574802
11
4.6697474803149603
21
-2.1966987401574802
0
LINE
8
F.Cu
6
CONTINUOUS
10
4.6697474803149603
20
-2.1966987401574802
11
4.6636918110236216
21
-2.1954941732283464
0
LINE
8
F.Cu
6
CONTINUOUS
10
4.6636918110236216
20
-2.1954941732283464
11
4.6579875196850393
21
-2.1931313779527559
0
LINE
8
F.Cu
6
CONTINUOUS
10
4.6579875196850393
20
-2.1931313779527559
11
4.6528537401574805
21
-2.1897011023622048
0
LINE
8
F.Cu
6
CONTINUOUS
10
4.6528537401574805
20
-2.1897011023622048
11
4.648487874015748
21
-2.1853352362204723
0
LINE
8
F.Cu
6
CONTINUOUS
10
4.648487874015748
20
-2.1853352362204723
11
4.6450575984251969
21
-2.1802014566929135
0
LINE
8
F.Cu
6
CONTINUOUS
10
4.6450575984251969
20
-2.1802014566929135
11
4.642694803149606
21
-2.1744971653543308
0
LINE
8
F.Cu
6
CONTINUOUS
10
4.642694803149606
20
-2.1744971653543308
11
4.6414902362204726
21
-2.1684414960629921
0
LINE
8
F.Cu
6
CONTINUOUS
10
4.6414902362204726
20
-2.1684414960629921
11
4.6414902362204726
21
-2.1622671653543306
0
LINE
8
F.Cu
6
CONTINUOUS
10
4.6414902362204726
20
-2.1622671653543306
11
4.642694803149606
21
-2.1562114960629919
0
LINE
8
F.Cu
6
CONTINUOUS
10
4.642694803149606
20
-2.1562114960629919
11
4.6450575984251969
21
-2.1505072047244096
0
LINE
8
F.Cu
6
CONTINUOUS
10
4.6450575984251969
20
-2.1505072047244096
11
4.648487874015748
21
-2.1453734251968504
0
LINE
8
F.Cu
6
CONTINUOUS
10
4.648487874015748
20
-2.1453734251968504
11
4.6528537401574805
21
-2.1410075590551179
0
LINE
8
F.Cu
6
CONTINUOUS
10
4.6528537401574805
20
-2.1410075590551179
11
4.6579875196850393
21
-2.1375772834645668
0
LINE
8
F.Cu
6
CONTINUOUS
10
4.6579875196850393
20
-2.1375772834645668
11
4.6636918110236216
21
-2.1352144881889763
0
LINE
8
F.Cu
6
CONTINUOUS
10
4.6636918110236216
20
-2.1352144881889763
11
4.6697474803149603
21
-2.1340099212598425
0
LINE
8
F.Cu
6
CONTINUOUS
10
4.6697474803149603
20
-2.1340099212598425
11
4.6759218110236223
21
-2.1340099212598425
0
LINE
8
F.Cu
6
CONTINUOUS
10
4.6759218110236223
20
-2.1340099212598425
11
4.6819774803149601
21
-2.1352144881889763
0
LINE
8
F.Cu
6
CONTINUOUS
10
4.6819774803149601
20
-2.1352144881889763
11
4.6876817716535433
21
-2.1375772834645668
0
LINE
8
F.Cu
6
CONTINUOUS
10
4.6876817716535433
20
-2.1375772834645668
11
4.6928155511811021
21
-2.1410075590551179
0
LINE
8
F.Cu
6
CONTINUOUS
10
4.6928155511811021
20
-2.1410075590551179
11
4.6971814173228346
21
-2.1453734251968504
0
LINE
8
F.Cu
6
CONTINUOUS
10
4.6971814173228346
20
-2.1453734251968504
11
4.6973790944881886
21
-2.1456692913385824
0
LINE
8
F.Cu
6
CONTINUOUS
10
4.6973790944881886
20
-2.1456692913385824
11
4.7092229921259845
21
-2.1456692913385824
0
LINE
8
F.Cu
6
CONTINUOUS
10
4.7092229921259845
20
-2.1456692913385824
11
4.7437007874015746
21
-2.1111914566929135
0
LINE
8
F.Cu
6
CONTINUOUS
10
4.7437007874015746
20
-2.1111914566929135
11
4.7437007874015746
21
-1.9360005511811023
0
LINE
8
F.Cu
6
CONTINUOUS
10
4.7437007874015746
20
-1.9360005511811023
11
4.7015359842519686
21
-1.893835748031496
0
LINE
8
F.Cu
6
CONTINUOUS
10
4.7015359842519686
20
-1.893835748031496
11
4.7014479133858265
21
-1.8939675984251969
0
LINE
8
F.Cu
6
CONTINUOUS
10
4.7014479133858265
20
-1.8939675984251969
11
4.6982547637795271
21
-1.8961011811023623
0
LINE
8
F.Cu
6
CONTINUOUS
10
4.6982547637795271
20
-1.8961011811023623
11
4.6944881889763774
21
-1.8968503937007875
0
LINE
8
F.Cu
6
CONTINUOUS
10
4.6944881889763774
20
-1.8968503937007875
11
4.6511811023622043
21
-1.8968503937007875
0
LINE
8
F.Cu
6
CONTINUOUS
10
4.6511811023622043
20
-1.8968503937007875
11
4.6474145275590546
21
-1.8961011811023623
0
LINE
8
F.Cu
6
CONTINUOUS
10
4.6474145275590546
20
-1.8961011811023623
11
4.6442213779527561
21
-1.8939675984251969
0
LINE
8
F.Cu
6
CONTINUOUS
10
4.6442213779527561
20
-1.8939675984251969
11
4.6420877952755903
21
-1.8907744488188976
0
LINE
8
F.Cu
6
CONTINUOUS
10
4.6420877952755903
20
-1.8907744488188976
11
4.6413385826771654
21
-1.8870078740157481
0
LINE
8
F.Cu
6
CONTINUOUS
10
4.6413385826771654
20
-1.8870078740157481
11
4.6413385826771654
21
-1.88503937007874
0
LINE
8
F.Cu
6
CONTINUOUS
10
4.6413385826771654
20
-1.88503937007874
11
4.6387691732283463
21
-1.8848709448818897
0
LINE
8
F.Cu
6
CONTINUOUS
10
4.6387691732283463
20
-1.8848709448818897
11
4.633805433070866
21
-1.8835409448818896
0
LINE
8
F.Cu
6
CONTINUOUS
10
4.633805433070866
20
-1.8835409448818896
11
4.6293550787401569
21
-1.8809715354330707
0
LINE
8
F.Cu
6
CONTINUOUS
10
4.6293550787401569
20
-1.8809715354330707
11
4.6257213779527557
21
-1.8773378346456693
0
LINE
8
F.Cu
6
CONTINUOUS
10
4.6257213779527557
20
-1.8773378346456693
11
4.6231519685039366
21
-1.8728874803149607
0
LINE
8
F.Cu
6
CONTINUOUS
10
4.6231519685039366
20
-1.8728874803149607
11
4.6218219685039372
21
-1.8679237401574802
0
LINE
8
F.Cu
6
CONTINUOUS
10
4.6218219685039372
20
-1.8679237401574802
11
4.6218219685039372
21
-1.8627849212598424
0
LINE
8
F.Cu
6
CONTINUOUS
10
4.6218219685039372
20
-1.8627849212598424
11
4.6231519685039366
21
-1.8578211811023622
0
LINE
8
F.Cu
6
CONTINUOUS
10
4.6231519685039366
20
-1.8578211811023622
11
4.6257213779527557
21
-1.8533708267716535
0
LINE
8
F.Cu
6
CONTINUOUS
10
4.6257213779527557
20
-1.8533708267716535
11
4.6293550787401569
21
-1.8497371259842519
0
LINE
8
F.Cu
6
CONTINUOUS
10
4.6293550787401569
20
-1.8497371259842519
11
4.633805433070866
21
-1.847167716535433
0
LINE
8
F.Cu
6
CONTINUOUS
10
4.633805433070866
20
-1.847167716535433
11
4.6387691732283463
21
-1.8458377165354329
0
LINE
8
F.Cu
6
CONTINUOUS
10
4.6387691732283463
20
-1.8458377165354329
11
4.6413385826771654
21
-1.8456692913385826
0
LINE
8
F.Cu
6
CONTINUOUS
10
4.6413385826771654
20
-1.8456692913385826
11
4.6413385826771654
21
-1.8437007874015747
0
LINE
8
F.Cu
6
CONTINUOUS
10
4.6413385826771654
20
-1.8437007874015747
11
4.6420877952755903
21
-1.839934212598425
0
LINE
8
F.Cu
6
CONTINUOUS
10
4.6420877952755903
20
-1.839934212598425
11
4.6442213779527561
21
-1.8367410629921259
0
LINE
8
F.Cu
6
CONTINUOUS
10
4.6442213779527561
20
-1.8367410629921259
11
4.6474145275590546
21
-1.8346074803149606
0
LINE
8
F.Cu
6
CONTINUOUS
10
4.6474145275590546
20
-1.8346074803149606
11
4.6511811023622043
21
-1.8338582677165354
0
LINE
8
F.Cu
6
CONTINUOUS
10
4.6511811023622043
20
-1.8338582677165354
11
4.6944881889763774
21
-1.8338582677165354
0
LINE
8
F.Cu
6
CONTINUOUS
10
4.6944881889763774
20
-1.8338582677165354
11
4.6982547637795271
21
-1.8346074803149606
0
LINE
8
F.Cu
6
CONTINUOUS
10
4.6819774803149601
20
-2.2352144881889764
11
4.6876817716535433
21
-2.2375772834645669
0
LINE
8
F.Cu
6
CONTINUOUS
10
4.6876817716535433
20
-2.2375772834645669
11
4.6928155511811021
21
-2.2410075590551179
0
LINE
8
F.Cu
6
CONTINUOUS
10
4.6928155511811021
20
-2.2410075590551179
11
4.6971814173228346
21
-2.2453734251968505
0
LINE
8
F.Cu
6
CONTINUOUS
10
4.6971814173228346
20
-2.2453734251968505
11
4.7006116929133857
21
-2.2505072047244092
0
LINE
8
F.Cu
6
CONTINUOUS
10
4.7006116929133857
20
-2.2505072047244092
11
4.7029744881889766
21
-2.256211496062992
0
LINE
8
F.Cu
6
CONTINUOUS
10
4.7029744881889766
20
-2.256211496062992
11
4.70417905511811
21
-2.2622671653543307
0
LINE
8
F.Cu
6
CONTINUOUS
10
4.70417905511811
20
-2.2622671653543307
11
4.70417905511811
21
-2.2684414960629922
0
LINE
8
F.Cu
6
CONTINUOUS
10
4.70417905511811
20
-2.2684414960629922
11
4.7029744881889766
21
-2.2744971653543304
0
LINE
8
F.Cu
6
CONTINUOUS
10
4.7029744881889766
20
-2.2744971653543304
11
4.7006116929133857
21
-2.2802014566929132
0
LINE
8
F.Cu
6
CONTINUOUS
10
4.7006116929133857
20
-2.2802014566929132
11
4.6971814173228346
21
-2.2853352362204724
0
LINE
8
F.Cu
6
CONTINUOUS
10
4.6971814173228346
20
-2.2853352362204724
11
4.6928155511811021
21
-2.2897011023622045
0
LINE
8
F.Cu
6
CONTINUOUS
10
4.6928155511811021
20
-2.2897011023622045
11
4.6876817716535433
21
-2.293131377952756
0
LINE
8
F.Cu
6
CONTINUOUS
10
4.6876817716535433
20
-2.293131377952756
11
4.6819774803149601
21
-2.2954941732283465
0
LINE
8
F.Cu
6
CONTINUOUS
10
4.6819774803149601
20
-2.2954941732283465
11
4.6759218110236223
21
-2.2966987401574803
0
LINE
8
F.Cu
6
CONTINUOUS
10
4.6759218110236223
20
-2.2966987401574803
11
4.6697474803149603
21
-2.2966987401574803
0
LINE
8
F.Cu
6
CONTINUOUS
10
4.6697474803149603
20
-2.2966987401574803
11
4.6636918110236216
21
-2.2954941732283465
0
LINE
8
F.Cu
6
CONTINUOUS
10
4.6636918110236216
20
-2.2954941732283465
11
4.6579875196850393
21
-2.293131377952756
0
LINE
8
F.Cu
6
CONTINUOUS
10
4.6579875196850393
20
-2.293131377952756
11
4.6528537401574805
21
-2.2897011023622045
0
LINE
8
F.Cu
6
CONTINUOUS
10
4.6528537401574805
20
-2.2897011023622045
11
4.648487874015748
21
-2.2853352362204724
0
LINE
8
F.Cu
6
CONTINUOUS
10
4.648487874015748
20
-2.2853352362204724
11
4.648290196850394
21
-2.2850393700787399
0
LINE
8
F.Cu
6
CONTINUOUS
10
4.648290196850394
20
-2.2850393700787399
11
4.1404372834645669
21
-2.2850393700787399
0
LINE
8
F.Cu
6
CONTINUOUS
10
4.1404372834645669
20
-2.2850393700787399
11
3.1635257086614175
21
-3.261950905511811
0
LINE
8
F.Cu
6
CONTINUOUS
10
3.1635257086614175
20
-3.261950905511811
11
3.1615903937007874
21
-3.2636480708661417
0
LINE
8
F.Cu
6
CONTINUOUS
10
3.1615903937007874
20
-3.2636480708661417
11
3.1615898031496061
21
-3.2636487007874013
0
LINE
8
F.Cu
6
CONTINUOUS
10
3.1615898031496061
20
-3.2636487007874013
11
3.1571394488188975
21
-3.2662181102362204
0
LINE
8
F.Cu
6
CONTINUOUS
10
3.1571394488188975
20
-3.2662181102362204
11
3.1521757086614173
21
-3.267548149606299
0
LINE
8
F.Cu
6
CONTINUOUS
10
3.1521757086614173
20
-3.267548149606299
11
3.152175118110236
21
-3.267548149606299
0
LINE
8
F.Cu
6
CONTINUOUS
10
3.152175118110236
20
-3.267548149606299
11
3.1496062992125982
21
-3.2677165354330708
0
LINE
8
F.Cu
6
CONTINUOUS
10
3.1496062992125982
20
-3.2677165354330708
11
3.0586614173228344
21
-3.2677165354330708
0
LINE
8
F.Cu
6
CONTINUOUS
10
3.0586614173228344
20
-3.2677165354330708
11
3.0560920078740157
21
-3.2675481102362203
0
LINE
8
F.Cu
6
CONTINUOUS
10
3.0560920078740157
20
-3.2675481102362203
11
3.0511282677165354
21
-3.2662181102362204
0
LINE
8
F.Cu
6
CONTINUOUS
10
3.0511282677165354
20
-3.2662181102362204
11
3.0466779133858268
21
-3.2636487007874013
0
LINE
8
F.Cu
6
CONTINUOUS
10
3.0466779133858268
20
-3.2636487007874013
11
3.0430442125984252
21
-3.2600150000000001
0
LINE
8
F.Cu
6
CONTINUOUS
10
3.0430442125984252
20
-3.2600150000000001
11
3.0404748031496061
21
-3.255564645669291
0
LINE
8
F.Cu
6
CONTINUOUS
10
3.0404748031496061
20
-3.255564645669291
11
3.0391448031496062
21
-3.2506009055118108
0
LINE
8
F.Cu
6
CONTINUOUS
10
3.0391448031496062
20
-3.2506009055118108
11
3.0389763779527557
21
-3.2480314960629921
0
LINE
8
F.Cu
6
CONTINUOUS
10
3.0389763779527557
20
-3.2480314960629921
11
3.0389763779527557
21
-3.0070326771653542
0
LINE
8
F.Cu
6
CONTINUOUS
10
3.0389763779527557
20
-3.0070326771653542
11
3.0391447637795275
21
-3.0044638582677163
0
LINE
8
F.Cu
6
CONTINUOUS
10
3.0391447637795275
20
-3.0044638582677163
11
3.0391447637795275
21
-3.0044632677165355
0
LINE
8
F.Cu
6
CONTINUOUS
10
3.0391447637795275
20
-3.0044632677165355
11
3.0404748031496061
21
-2.9994995275590552
0
LINE
8
F.Cu
6
CONTINUOUS
10
3.0404748031496061
20
-2.9994995275590552
11
3.0430442125984252
21
-2.9950491732283462
0
LINE
8
F.Cu
6
CONTINUOUS
10
3.0430442125984252
20
-2.9950491732283462
11
3.043044803149606
21
-2.9950485433070866
0
LINE
8
F.Cu
6
CONTINUOUS
10
3.043044803149606
20
-2.9950485433070866
11
3.0447420078740155
21
-2.9931132677165353
0
LINE
8
F.Cu
6
CONTINUOUS
10
3.0447420078740155
20
-2.9931132677165353
11
3.0958691338582676
21
-2.9419861023622045
0
LINE
8
F.Cu
6
CONTINUOUS
10
3.0958691338582676
20
-2.9419861023622045
11
3.0978047244094489
21
-2.9402886220472442
0
LINE
8
F.Cu
6
CONTINUOUS
10
3.0978047244094489
20
-2.9402886220472442
11
3.0978050787401572
21
-2.9402883070866142
0
LINE
8
F.Cu
6
CONTINUOUS
10
3.0978050787401572
20
-2.9402883070866142
11
3.1022554330708663
21
-2.937718897637795
0
LINE
8
F.Cu
6
CONTINUOUS
10
3.1022554330708663
20
-2.937718897637795
11
3.1072191732283465
21
-2.9363888582677165
0
LINE
8
F.Cu
6
CONTINUOUS
10
3.1072191732283465
20
-2.9363888582677165
11
3.1072197637795274
21
-2.9363888582677165
0
LINE
8
F.Cu
6
CONTINUOUS
10
3.1072197637795274
20
-2.9363888582677165
11
3.1097885826771652
21
-2.9362204724409446
0
LINE
8
F.Cu
6
CONTINUOUS
10
3.1097885826771652
20
-2.9362204724409446
11
3.1297862598425197
21
-2.9362204724409446
0
LINE
8
F.Cu
6
CONTINUOUS
10
3.1297862598425197
20
-2.9362204724409446
11
3.1299839370078741
21
-2.9359246062992126
0
LINE
8
F.Cu
6
CONTINUOUS
10
3.1299839370078741
20
-2.9359246062992126
11
3.1343498031496062
21
-2.9315587401574801
0
LINE
8
F.Cu
6
CONTINUOUS
10
3.1343498031496062
20
-2.9315587401574801
11
3.1394835826771654
21
-2.928128464566929
0
LINE
8
F.Cu
6
CONTINUOUS
10
3.1394835826771654
20
-2.928128464566929
11
3.1451878740157482
21
-2.9257656692913385
0
LINE
8
F.Cu
6
CONTINUOUS
10
3.1451878740157482
20
-2.9257656692913385
11
3.1512435433070864
21
-2.9245611023622047
0
LINE
8
F.Cu
6
CONTINUOUS
10
3.1512435433070864
20
-2.9245611023622047
11
3.1574178740157479
21
-2.9245611023622047
0
LINE
8
F.Cu
6
CONTINUOUS
10
3.1574178740157479
20
-2.9245611023622047
11
3.1634735433070866
21
-2.9257656692913385
0
LINE
8
F.Cu
6
CONTINUOUS
10
3.1634735433070866
20
-2.9257656692913385
11
3.1691778346456694
21
-2.928128464566929
0
LINE
8
F.Cu
6
CONTINUOUS
10
3.1691778346456694
20
-2.928128464566929
11
3.1743116141732282
21
-2.9315587401574801
0
LINE
8
F.Cu
6
CONTINUOUS
10
3.1743116141732282
20
-2.9315587401574801
11
3.1786774803149607
21
-2.9359246062992126
0
LINE
8
F.Cu
6
CONTINUOUS
10
3.1786774803149607
20
-2.9359246062992126
11
3.1821077559055118
21
-2.9410583858267714
0
LINE
8
F.Cu
6
CONTINUOUS
10
3.1821077559055118
20
-2.9410583858267714
11
3.1844705511811022
21
-2.9467626771653541
0
LINE
8
F.Cu
6
CONTINUOUS
10
3.1844705511811022
20
-2.9467626771653541
11
3.1856751181102361
21
-2.9528183464566928
0
LINE
8
F.Cu
6
CONTINUOUS
10
3.1856751181102361
20
-2.9528183464566928
11
3.1856751181102361
21
-2.9589926771653543
0
LINE
8
F.Cu
6
CONTINUOUS
10
3.1856751181102361
20
-2.9589926771653543
11
3.1844705511811022
21
-2.965048346456693
0
LINE
8
F.Cu
6
CONTINUOUS
10
3.1844705511811022
20
-2.965048346456693
11
3.1821077559055118
21
-2.9707526377952753
0
LINE
8
F.Cu
6
CONTINUOUS
10
3.1821077559055118
20
-2.9707526377952753
11
3.1786774803149607
21
-2.9758864173228345
0
LINE
8
F.Cu
6
CONTINUOUS
10
3.1786774803149607
20
-2.9758864173228345
11
3.1743116141732282
21
-2.9802522834645671
0
LINE
8
F.Cu
6
CONTINUOUS
10
3.1743116141732282
20
-2.9802522834645671
11
3.1691778346456694
21
-2.9836825590551181
0
LINE
8
F.Cu
6
CONTINUOUS
10
3.1691778346456694
20
-2.9836825590551181
11
3.1634735433070866
21
-2.9860453543307086
0
LINE
8
F.Cu
6
CONTINUOUS
10
3.1634735433070866
20
-2.9860453543307086
11
3.1574178740157479
21
-2.9872499212598425
0
LINE
8
F.Cu
6
CONTINUOUS
10
3.1574178740157479
20
-2.9872499212598425
11
3.1512435433070864
21
-2.9872499212598425
0
LINE
8
F.Cu
6
CONTINUOUS
10
3.1512435433070864
20
-2.9872499212598425
11
3.1451878740157482
21
-2.9860453543307086
0
LINE
8
F.Cu
6
CONTINUOUS
10
3.1451878740157482
20
-2.9860453543307086
11
3.1394835826771654
21
-2.9836825590551181
0
LINE
8
F.Cu
6
CONTINUOUS
10
3.1394835826771654
20
-2.9836825590551181
11
3.1343498031496062
21
-2.9802522834645671
0
LINE
8
F.Cu
6
CONTINUOUS
10
3.1343498031496062
20
-2.9802522834645671
11
3.1299839370078741
21
-2.9758864173228345
0
LINE
8
F.Cu
6
CONTINUOUS
10
3.1299839370078741
20
-2.9758864173228345
11
3.1297862598425197
21
-2.9755905511811025
0
LINE
8
F.Cu
6
CONTINUOUS
10
3.1297862598425197
20
-2.9755905511811025
11
3.117942401574803
21
-2.9755905511811025
0
LINE
8
F.Cu
6
CONTINUOUS
10
3.117942401574803
20
-2.9755905511811025
11
3.0783464566929135
21
-3.0151864566929132
0
LINE
8
F.Cu
6
CONTINUOUS
10
3.0783464566929135
20
-3.0151864566929132
11
3.0783464566929135
21
-3.2283464566929134
0
LINE
8
F.Cu
6
CONTINUOUS
10
3.0783464566929135
20
-3.2283464566929134
11
3.1414525196850391
21
-3.2283464566929134
0
LINE
8
F.Cu
6
CONTINUOUS
10
3.1414525196850391
20
-3.2283464566929134
11
4.1183640551181098
21
-2.2514348818897636
0
LINE
8
F.Cu
6
CONTINUOUS
10
4.1183640551181098
20
-2.2514348818897636
11
4.1202996456692915
21
-2.2497374015748033
0
LINE
8
F.Cu
6
CONTINUOUS
10
4.1202996456692915
20
-2.2497374015748033
11
4.1202999606299215
21
-2.249737125984252
0
LINE
8
F.Cu
6
CONTINUOUS
10
4.1202999606299215
20
-2.249737125984252
11
4.1247503149606297
21
-2.2471677165354329
0
LINE
8
F.Cu
6
CONTINUOUS
10
4.1247503149606297
20
-2.2471677165354329
11
4.1257992519685036
21
-2.2468866141732282
0
LINE
8
F.Cu
6
CONTINUOUS
10
4.1257992519685036
20
-2.2468866141732282
11
4.12971405511811
21
-2.2458376771653543
0
LINE
8
F.Cu
6
CONTINUOUS
10
4.12971405511811
20
-2.2458376771653543
11
4.1297146456692913
21
-2.2458376771653543
0
LINE
8
F.Cu
6
CONTINUOUS
10
4.1297146456692913
20
-2.2458376771653543
11
4.1322834645669291
21
-2.2456692913385825
0
LINE
8
F.Cu
6
CONTINUOUS
10
4.1322834645669291
20
-2.2456692913385825
11
4.648290196850394
21
-2.2456692913385825
0
LINE
8
F.Cu
6
CONTINUOUS
10
4.648290196850394
20
-2.2456692913385825
11
4.648487874015748
21
-2.2453734251968505
0
LINE
8
F.Cu
6
CONTINUOUS
10
4.648487874015748
20
-2.2453734251968505
11
4.6528537401574805
21
-2.2410075590551179
0
LINE
8
F.Cu
6
CONTINUOUS
10
4.6528537401574805
20
-2.2410075590551179
11
4.6579875196850393
21
-2.2375772834645669
0
LINE
8
F.Cu
6
CONTINUOUS
10
4.6579875196850393
20
-2.2375772834645669
11
4.6636918110236216
21
-2.2352144881889764
0
LINE
8
F.Cu
6
CONTINUOUS
10
4.6636918110236216
20
-2.2352144881889764
11
4.6697474803149603
21
-2.2340099212598425
0
LINE
8
F.Cu
6
CONTINUOUS
10
4.6697474803149603
20
-2.2340099212598425
11
4.6759218110236223
21
-2.2340099212598425
0
LINE
8
F.Cu
6
CONTINUOUS
10
4.6759218110236223
20
-2.2340099212598425
11
4.6819774803149601
21
-2.2352144881889764
0
LINE
8
F.Cu
6
CONTINUOUS
10
4.6819774803149601
20
-1.9352144881889763
11
4.6876817716535433
21
-1.9375772834645668
0
LINE
8
F.Cu
6
CONTINUOUS
10
4.6876817716535433
20
-1.9375772834645668
11
4.6928155511811021
21
-1.9410075590551181
0
LINE
8
F.Cu
6
CONTINUOUS
10
4.6928155511811021
20
-1.9410075590551181
11
4.6971814173228346
21
-1.9453734251968504
0
LINE
8
F.Cu
6
CONTINUOUS
10
4.6971814173228346
20
-1.9453734251968504
11
4.7006116929133857
21
-1.9505072047244094
0
LINE
8
F.Cu
6
CONTINUOUS
10
4.7006116929133857
20
-1.9505072047244094
11
4.7029744881889766
21
-1.9562114960629922
0
LINE
8
F.Cu
6
CONTINUOUS
10
4.7029744881889766
20
-1.9562114960629922
11
4.70417905511811
21
-1.9622671653543307
0
LINE
8
F.Cu
6
CONTINUOUS
10
4.70417905511811
20
-1.9622671653543307
11
4.70417905511811
21
-1.9684414960629921
0
LINE
8
F.Cu
6
CONTINUOUS
10
4.70417905511811
20
-1.9684414960629921
11
4.7029744881889766
21
-1.9744971653543306
0
LINE
8
F.Cu
6
CONTINUOUS
10
4.7029744881889766
20
-1.9744971653543306
11
4.7006116929133857
21
-1.9802014566929134
0
LINE
8
F.Cu
6
CONTINUOUS
10
4.7006116929133857
20
-1.9802014566929134
11
4.6971814173228346
21
-1.9853352362204724
0
LINE
8
F.Cu
6
CONTINUOUS
10
4.6971814173228346
20
-1.9853352362204724
11
4.6928155511811021
21
-1.9897011023622047
0
LINE
8
F.Cu
6
CONTINUOUS
10
4.6928155511811021
20
-1.9897011023622047
11
4.6876817716535433
21
-1.993131377952756
0
LINE
8
F.Cu
6
CONTINUOUS
10
4.6876817716535433
20
-1.993131377952756
11
4.6819774803149601
21
-1.9954941732283464
0
LINE
8
F.Cu
6
CONTINUOUS
10
4.6819774803149601
20
-1.9954941732283464
11
4.6759218110236223
21
-1.9966987401574803
0
LINE
8
F.Cu
6
CONTINUOUS
10
4.6759218110236223
20
-1.9966987401574803
11
4.6697474803149603
21
-1.9966987401574803
0
LINE
8
F.Cu
6
CONTINUOUS
10
4.6697474803149603
20
-1.9966987401574803
11
4.6636918110236216
21
-1.9954941732283464
0
LINE
8
F.Cu
6
CONTINUOUS
10
4.6636918110236216
20
-1.9954941732283464
11
4.6579875196850393
21
-1.993131377952756
0
LINE
8
F.Cu
6
CONTINUOUS
10
4.6579875196850393
20
-1.993131377952756
11
4.6528537401574805
21
-1.9897011023622047
0
LINE
8
F.Cu
6
CONTINUOUS
10
4.6528537401574805
20
-1.9897011023622047
11
4.648487874015748
21
-1.9853352362204724
0
LINE
8
F.Cu
6
CONTINUOUS
10
4.648487874015748
20
-1.9853352362204724
11
4.648290196850394
21
-1.9850393700787401
0
LINE
8
F.Cu
6
CONTINUOUS
10
4.648290196850394
20
-1.9850393700787401
11
4.2810944488188971
21
-1.9850393700787401
0
LINE
8
F.Cu
6
CONTINUOUS
10
4.2810944488188971
20
-1.9850393700787401
11
3.1963088582677166
21
-3.0698249212598423
0
LINE
8
F.Cu
6
CONTINUOUS
10
3.1963088582677166
20
-3.0698249212598423
11
3.1943735433070866
21
-3.071522086614173
0
LINE
8
F.Cu
6
CONTINUOUS
10
3.1943735433070866
20
-3.071522086614173
11
3.1943729527559053
21
-3.0715227165354331
0
LINE
8
F.Cu
6
CONTINUOUS
10
3.1943729527559053
20
-3.0715227165354331
11
3.1899225984251967
21
-3.0740921259842517
0
LINE
8
F.Cu
6
CONTINUOUS
10
3.1899225984251967
20
-3.0740921259842517
11
3.1849588582677164
21
-3.0754221653543308
0
LINE
8
F.Cu
6
CONTINUOUS
10
3.1849588582677164
20
-3.0754221653543308
11
3.1849582677165356
21
-3.0754221653543308
0
LINE
8
F.Cu
6
CONTINUOUS
10
3.1849582677165356
20
-3.0754221653543308
11
3.1823894488188977
21
-3.0755905511811021
0
LINE
8
F.Cu
6
CONTINUOUS
10
3.1823894488188977
20
-3.0755905511811021
11
3.1788751574803147
21
-3.0755905511811021
0
LINE
8
F.Cu
6
CONTINUOUS
10
3.1788751574803147
20
-3.0755905511811021
11
3.1786774803149607
21
-3.0758864173228346
0
LINE
8
F.Cu
6
CONTINUOUS
10
3.1786774803149607
20
-3.0758864173228346
11
3.1743116141732282
21
-3.0802522834645667
0
LINE
8
F.Cu
6
CONTINUOUS
10
3.1743116141732282
20
-3.0802522834645667
11
3.1691778346456694
21
-3.0836825590551182
0
LINE
8
F.Cu
6
CONTINUOUS
10
3.1691778346456694
20
-3.0836825590551182
11
3.1634735433070866
21
-3.0860453543307087
0
LINE
8
F.Cu
6
CONTINUOUS
10
3.1634735433070866
20
-3.0860453543307087
11
3.1574178740157479
21
-3.0872499212598425
0
LINE
8
F.Cu
6
CONTINUOUS
10
3.1574178740157479
20
-3.0872499212598425
11
3.1512435433070864
21
-3.0872499212598425
0
LINE
8
F.Cu
6
CONTINUOUS
10
3.1512435433070864
20
-3.0872499212598425
11
3.1451878740157482
21
-3.0860453543307087
0
LINE
8
F.Cu
6
CONTINUOUS
10
3.1451878740157482
20
-3.0860453543307087
11
3.1394835826771654
21
-3.0836825590551182
0
LINE
8
F.Cu
6
CONTINUOUS
10
3.1394835826771654
20
-3.0836825590551182
11
3.1343498031496062
21
-3.0802522834645667
0
LINE
8
F.Cu
6
CONTINUOUS
10
3.1343498031496062
20
-3.0802522834645667
11
3.1299839370078741
21
-3.0758864173228346
0
LINE
8
F.Cu
6
CONTINUOUS
10
3.1299839370078741
20
-3.0758864173228346
11
3.1265536614173226
21
-3.0707526377952754
0
LINE
8
F.Cu
6
CONTINUOUS
10
3.1265536614173226
20
-3.0707526377952754
11
3.1241908661417321
21
-3.0650483464566927
0
LINE
8
F.Cu
6
CONTINUOUS
10
3.1241908661417321
20
-3.0650483464566927
11
3.1229862992125983
21
-3.0589926771653544
0
LINE
8
F.Cu
6
CONTINUOUS
10
3.1229862992125983
20
-3.0589926771653544
11
3.1229862992125983
21
-3.0528183464566929
0
LINE
8
F.Cu
6
CONTINUOUS
10
3.1229862992125983
20
-3.0528183464566929
11
3.1241908661417321
21
-3.0467626771653542
0
LINE
8
F.Cu
6
CONTINUOUS
10
3.1241908661417321
20
-3.0467626771653542
11
3.1265536614173226
21
-3.0410583858267715
0
LINE
8
F.Cu
6
CONTINUOUS
10
3.1265536614173226
20
-3.0410583858267715
11
3.1299839370078741
21
-3.0359246062992127
0
LINE
8
F.Cu
6
CONTINUOUS
10
3.1299839370078741
20
-3.0359246062992127
11
3.1343498031496062
21
-3.0315587401574802
0
LINE
8
F.Cu
6
CONTINUOUS
10
3.1343498031496062
20
-3.0315587401574802
11
3.1394835826771654
21
-3.0281284645669291
0
LINE
8
F.Cu
6
CONTINUOUS
10
3.1394835826771654
20
-3.0281284645669291
11
3.1451878740157482
21
-3.0257656692913386
0
LINE
8
F.Cu
6
CONTINUOUS
10
3.1451878740157482
20
-3.0257656692913386
11
3.1512435433070864
21
-3.0245611023622048
0
LINE
8
F.Cu
6
CONTINUOUS
10
3.1512435433070864
20
-3.0245611023622048
11
3.1574178740157479
21
-3.0245611023622048
0
LINE
8
F.Cu
6
CONTINUOUS
10
3.1574178740157479
20
-3.0245611023622048
11
3.1634735433070866
21
-3.0257656692913386
0
LINE
8
F.Cu
6
CONTINUOUS
10
3.1634735433070866
20
-3.0257656692913386
11
3.1691778346456694
21
-3.0281284645669291
0
LINE
8
F.Cu
6
CONTINUOUS
10
3.1691778346456694
20
-3.0281284645669291
11
3.1743116141732282
21
-3.0315587401574802
0
LINE
8
F.Cu
6
CONTINUOUS
10
3.1743116141732282
20
-3.0315587401574802
11
3.1766044881889761
21
-3.0338516141732281
0
LINE
8
F.Cu
6
CONTINUOUS
10
3.1766044881889761
20
-3.0338516141732281
11
4.2590212204724409
21
-1.9514348818897638
0
LINE
8
F.Cu
6
CONTINUOUS
10
4.2590212204724409
20
-1.9514348818897638
11
4.2609568110236218
21
-1.949737401574803
0
LINE
8
F.Cu
6
CONTINUOUS
10
4.2609568110236218
20
-1.949737401574803
11
4.2609571259842518
21
-1.949737125984252
0
LINE
8
F.Cu
6
CONTINUOUS
10
4.2609571259842518
20
-1.949737125984252
11
4.2654074803149609
21
-1.9471677165354331
0
LINE
8
F.Cu
6
CONTINUOUS
10
4.2654074803149609
20
-1.9471677165354331
11
4.2664564173228348
21
-1.9468866141732284
0
LINE
8
F.Cu
6
CONTINUOUS
10
4.2664564173228348
20
-1.9468866141732284
11
4.2703712204724411
21
-1.9458376771653543
0
LINE
8
F.Cu
6
CONTINUOUS
10
4.2703712204724411
20
-1.9458376771653543
11
4.2703718110236215
21
-1.9458376771653543
0
LINE
8
F.Cu
6
CONTINUOUS
10
4.2703718110236215
20
-1.9458376771653543
11
4.2729406299212593
21
-1.9456692913385827
0
LINE
8
F.Cu
6
CONTINUOUS
10
4.2729406299212593
20
-1.9456692913385827
11
4.648290196850394
21
-1.9456692913385827
0
LINE
8
F.Cu
6
CONTINUOUS
10
4.648290196850394
20
-1.9456692913385827
11
4.648487874015748
21
-1.9453734251968504
0
LINE
8
F.Cu
6
CONTINUOUS
10
4.648487874015748
20
-1.9453734251968504
11
4.6528537401574805
21
-1.9410075590551181
0
LINE
8
F.Cu
6
CONTINUOUS
10
4.6528537401574805
20
-1.9410075590551181
11
4.6579875196850393
21
-1.9375772834645668
0
LINE
8
F.Cu
6
CONTINUOUS
10
4.6579875196850393
20
-1.9375772834645668
11
4.6636918110236216
21
-1.9352144881889763
0
LINE
8
F.Cu
6
CONTINUOUS
10
4.6636918110236216
20
-1.9352144881889763
11
4.6697474803149603
21
-1.9340099212598425
0
LINE
8
F.Cu
6
CONTINUOUS
10
4.6697474803149603
20
-1.9340099212598425
11
4.6759218110236223
21
-1.9340099212598425
0
LINE
8
F.Cu
6
CONTINUOUS
10
4.6759218110236223
20
-1.9340099212598425
11
4.6819774803149601
21
-1.9352144881889763
0
LINE
8
F.Cu
6
CONTINUOUS
10
4.740310157480315
20
-1.7552864960629921
11
4.7403107480314963
21
-1.7552864960629921
0
LINE
8
F.Cu
6
CONTINUOUS
10
4.7403107480314963
20
-1.7552864960629921
11
4.7452744881889766
21
-1.7566165354330707
0
LINE
8
F.Cu
6
CONTINUOUS
10
4.7452744881889766
20
-1.7566165354330707
11
4.7497248425196847
21
-1.7591859448818896
0
LINE
8
F.Cu
6
CONTINUOUS
10
4.7497248425196847
20
-1.7591859448818896
11
4.749725433070866
21
-1.7591865354330709
0
LINE
8
F.Cu
6
CONTINUOUS
10
4.749725433070866
20
-1.7591865354330709
11
4.7516607480314956
21
-1.7608837401574802
0
LINE
8
F.Cu
6
CONTINUOUS
10
4.7516607480314956
20
-1.7608837401574802
11
4.9364463385826767
21
-1.9456692913385827
0
LINE
8
F.Cu
6
CONTINUOUS
10
4.9364463385826767
20
-1.9456692913385827
11
4.9482901968503938
21
-1.9456692913385827
0
LINE
8
F.Cu
6
CONTINUOUS
10
4.9482901968503938
20
-1.9456692913385827
11
4.9484878740157479
21
-1.9453734251968504
0
LINE
8
F.Cu
6
CONTINUOUS
10
4.9484878740157479
20
-1.9453734251968504
11
4.9528537401574804
21
-1.9410075590551181
0
LINE
8
F.Cu
6
CONTINUOUS
10
4.9528537401574804
20
-1.9410075590551181
11
4.9579875196850391
21
-1.9375772834645668
0
LINE
8
F.Cu
6
CONTINUOUS
10
4.9579875196850391
20
-1.9375772834645668
11
4.9636918110236223
21
-1.9352144881889763
0
LINE
8
F.Cu
6
CONTINUOUS
10
4.9636918110236223
20
-1.9352144881889763
11
4.9697474803149602
21
-1.9340099212598425
0
LINE
8
F.Cu
6
CONTINUOUS
10
4.9697474803149602
20
-1.9340099212598425
11
4.9759218110236221
21
-1.9340099212598425
0
LINE
8
F.Cu
6
CONTINUOUS
10
4.9759218110236221
20
-1.9340099212598425
11
4.9819774803149608
21
-1.9352144881889763
0
LINE
8
F.Cu
6
CONTINUOUS
10
4.9819774803149608
20
-1.9352144881889763
11
4.9876817716535431
21
-1.9375772834645668
0
LINE
8
F.Cu
6
CONTINUOUS
10
4.9876817716535431
20
-1.9375772834645668
11
4.9928155511811019
21
-1.9410075590551181
0
LINE
8
F.Cu
6
CONTINUOUS
10
4.9928155511811019
20
-1.9410075590551181
11
4.9971814173228344
21
-1.9453734251968504
0
LINE
8
F.Cu
6
CONTINUOUS
10
4.9971814173228344
20
-1.9453734251968504
11
5.0006116929133855
21
-1.9505072047244094
0
LINE
8
F.Cu
6
CONTINUOUS
10
5.0006116929133855
20
-1.9505072047244094
11
5.0029744881889764
21
-1.9562114960629922
0
LINE
8
F.Cu
6
CONTINUOUS
10
5.0029744881889764
20
-1.9562114960629922
11
5.0041790551181098
21
-1.9622671653543307
0
LINE
8
F.Cu
6
CONTINUOUS
10
5.0041790551181098
20
-1.9622671653543307
11
5.0041790551181098
21
-1.9684414960629921
0
LINE
8
F.Cu
6
CONTINUOUS
10
5.0041790551181098
20
-1.9684414960629921
11
5.0029744881889764
21
-1.9744971653543306
0
LINE
8
F.Cu
6
CONTINUOUS
10
5.0029744881889764
20
-1.9744971653543306
11
5.0006116929133855
21
-1.9802014566929134
0
LINE
8
F.Cu
6
CONTINUOUS
10
5.0006116929133855
20
-1.9802014566929134
11
4.9971814173228344
21
-1.9853352362204724
0
LINE
8
F.Cu
6
CONTINUOUS
10
4.9971814173228344
20
-1.9853352362204724
11
4.9928155511811019
21
-1.9897011023622047
0
LINE
8
F.Cu
6
CONTINUOUS
10
4.9928155511811019
20
-1.9897011023622047
11
4.9876817716535431
21
-1.993131377952756
0
LINE
8
F.Cu
6
CONTINUOUS
10
4.9876817716535431
20
-1.993131377952756
11
4.9819774803149608
21
-1.9954941732283464
0
LINE
8
F.Cu
6
CONTINUOUS
10
4.9819774803149608
20
-1.9954941732283464
11
4.9759218110236221
21
-1.9966987401574803
0
LINE
8
F.Cu
6
CONTINUOUS
10
4.9759218110236221
20
-1.9966987401574803
11
4.9697474803149602
21
-1.9966987401574803
0
LINE
8
F.Cu
6
CONTINUOUS
10
4.9697474803149602
20
-1.9966987401574803
11
4.9636918110236223
21
-1.9954941732283464
0
LINE
8
F.Cu
6
CONTINUOUS
10
4.9636918110236223
20
-1.9954941732283464
11
4.9579875196850391
21
-1.993131377952756
0
LINE
8
F.Cu
6
CONTINUOUS
10
4.9579875196850391
20
-1.993131377952756
11
4.9528537401574804
21
-1.9897011023622047
0
LINE
8
F.Cu
6
CONTINUOUS
10
4.9528537401574804
20
-1.9897011023622047
11
4.9484878740157479
21
-1.9853352362204724
0
LINE
8
F.Cu
6
CONTINUOUS
10
4.9484878740157479
20
-1.9853352362204724
11
4.9482901968503938
21
-1.9850393700787401
0
LINE
8
F.Cu
6
CONTINUOUS
10
4.9482901968503938
20
-1.9850393700787401
11
4.9282925196850389
21
-1.9850393700787401
0
LINE
8
F.Cu
6
CONTINUOUS
10
4.9282925196850389
20
-1.9850393700787401
11
4.9257237007874011
21
-1.9848709842519685
0
LINE
8
F.Cu
6
CONTINUOUS
10
4.9257237007874011
20
-1.9848709842519685
11
4.9257231102362207
21
-1.9848709842519685
0
LINE
8
F.Cu
6
CONTINUOUS
10
4.9257231102362207
20
-1.9848709842519685
11
4.9218083070866143
21
-1.9838220078740156
0
LINE
8
F.Cu
6
CONTINUOUS
10
4.9218083070866143
20
-1.9838220078740156
11
4.9207593700787404
21
-1.9835409448818897
0
LINE
8
F.Cu
6
CONTINUOUS
10
4.9207593700787404
20
-1.9835409448818897
11
4.9163090157480314
21
-1.9809715354330708
0
LINE
8
F.Cu
6
CONTINUOUS
10
4.9163090157480314
20
-1.9809715354330708
11
4.9163087007874013
21
-1.980971220472441
0
LINE
8
F.Cu
6
CONTINUOUS
10
4.9163087007874013
20
-1.980971220472441
11
4.9143731102362205
21
-1.979273779527559
0
LINE
8
F.Cu
6
CONTINUOUS
10
4.9143731102362205
20
-1.979273779527559
11
4.7295875590551182
21
-1.794488188976378
0
LINE
8
F.Cu
6
CONTINUOUS
10
4.7295875590551182
20
-1.794488188976378
11
4.1435868503937003
21
-1.794488188976378
0
LINE
8
F.Cu
6
CONTINUOUS
10
4.1435868503937003
20
-1.794488188976378
11
3.1856056692913386
21
-2.7524693307086614
0
LINE
8
F.Cu
6
CONTINUOUS
10
3.1856056692913386
20
-2.7524693307086614
11
3.1856751181102361
21
-2.7528183464566927
0
LINE
8
F.Cu
6
CONTINUOUS
10
3.1856751181102361
20
-2.7528183464566927
11
3.1856751181102361
21
-2.7589926771653541
0
LINE
8
F.Cu
6
CONTINUOUS
10
3.1856751181102361
20
-2.7589926771653541
11
3.1844705511811022
21
-2.7650483464566928
0
LINE
8
F.Cu
6
CONTINUOUS
10
3.1844705511811022
20
-2.7650483464566928
11
3.1821077559055118
21
-2.7707526377952756
0
LINE
8
F.Cu
6
CONTINUOUS
10
3.1821077559055118
20
-2.7707526377952756
11
3.1786774803149607
21
-2.7758864173228344
0
LINE
8
F.Cu
6
CONTINUOUS
10
3.1786774803149607
20
-2.7758864173228344
11
3.1743116141732282
21
-2.7802522834645669
0
LINE
8
F.Cu
6
CONTINUOUS
10
3.1743116141732282
20
-2.7802522834645669
11
3.1691778346456694
21
-2.783682559055118
0
LINE
8
F.Cu
6
CONTINUOUS
10
3.1691778346456694
20
-2.783682559055118
11
3.1634735433070866
21
-2.7860453543307084
0
LINE
8
F.Cu
6
CONTINUOUS
10
3.1634735433070866
20
-2.7860453543307084
11
3.1574178740157479
21
-2.7872499212598423
0
LINE
8
F.Cu
6
CONTINUOUS
10
3.1574178740157479
20
-2.7872499212598423
11
3.1512435433070864
21
-2.7872499212598423
0
LINE
8
F.Cu
6
CONTINUOUS
10
3.1512435433070864
20
-2.7872499212598423
11
3.1451878740157482
21
-2.7860453543307084
0
LINE
8
F.Cu
6
CONTINUOUS
10
3.1451878740157482
20
-2.7860453543307084
11
3.1394835826771654
21
-2.783682559055118
0
LINE
8
F.Cu
6
CONTINUOUS
10
3.1394835826771654
20
-2.783682559055118
11
3.1343498031496062
21
-2.7802522834645669
0
LINE
8
F.Cu
6
CONTINUOUS
10
3.1343498031496062
20
-2.7802522834645669
11
3.1299839370078741
21
-2.7758864173228344
0
LINE
8
F.Cu
6
CONTINUOUS
10
3.1299839370078741
20
-2.7758864173228344
11
3.1265536614173226
21
-2.7707526377952756
0
LINE
8
F.Cu
6
CONTINUOUS
10
3.1265536614173226
20
-2.7707526377952756
11
3.1241908661417321
21
-2.7650483464566928
0
LINE
8
F.Cu
6
CONTINUOUS
10
3.1241908661417321
20
-2.7650483464566928
11
3.1229862992125983
21
-2.7589926771653541
0
LINE
8
F.Cu
6
CONTINUOUS
10
3.1229862992125983
20
-2.7589926771653541
11
3.1229862992125983
21
-2.7528183464566927
0
LINE
8
F.Cu
6
CONTINUOUS
10
3.1229862992125983
20
-2.7528183464566927
11
3.1241908661417321
21
-2.7467626771653544
0
LINE
8
F.Cu
6
CONTINUOUS
10
3.1241908661417321
20
-2.7467626771653544
11
3.1265536614173226
21
-2.7410583858267716
0
LINE
8
F.Cu
6
CONTINUOUS
10
3.1265536614173226
20
-2.7410583858267716
11
3.1299839370078741
21
-2.7359246062992124
0
LINE
8
F.Cu
6
CONTINUOUS
10
3.1299839370078741
20
-2.7359246062992124
11
3.1343498031496062
21
-2.7315587401574803
0
LINE
8
F.Cu
6
CONTINUOUS
10
3.1343498031496062
20
-2.7315587401574803
11
3.1394835826771654
21
-2.7281284645669293
0
LINE
8
F.Cu
6
CONTINUOUS
10
3.1394835826771654
20
-2.7281284645669293
11
3.1451878740157482
21
-2.7257656692913383
0
LINE
8
F.Cu
6
CONTINUOUS
10
3.1451878740157482
20
-2.7257656692913383
11
3.1512435433070864
21
-2.7245611023622045
0
LINE
8
F.Cu
6
CONTINUOUS
10
3.1512435433070864
20
-2.7245611023622045
11
3.1574178740157479
21
-2.7245611023622045
0
LINE
8
F.Cu
6
CONTINUOUS
10
3.1574178740157479
20
-2.7245611023622045
11
3.1577668503937009
21
-2.7246305118110237
0
LINE
8
F.Cu
6
CONTINUOUS
10
3.1577668503937009
20
-2.7246305118110237
11
4.1215136614173229
21
-1.7608837401574802
0
LINE
8
F.Cu
6
CONTINUOUS
10
4.1215136614173229
20
-1.7608837401574802
11
4.1234489370078737
21
-1.7591865354330709
0
LINE
8
F.Cu
6
CONTINUOUS
10
4.1234489370078737
20
-1.7591865354330709
11
4.1234495669291338
21
-1.7591859448818896
0
LINE
8
F.Cu
6
CONTINUOUS
10
4.1234495669291338
20
-1.7591859448818896
11
4.1278999212598428
21
-1.7566165354330707
0
LINE
8
F.Cu
6
CONTINUOUS
10
4.1278999212598428
20
-1.7566165354330707
11
4.1328636614173231
21
-1.7552864960629921
0
LINE
8
F.Cu
6
CONTINUOUS
10
4.1328636614173231
20
-1.7552864960629921
11
4.1328642519685035
21
-1.7552864960629921
0
LINE
8
F.Cu
6
CONTINUOUS
10
4.1328642519685035
20
-1.7552864960629921
11
4.1354330708661413
21
-1.7551181102362203
0
LINE
8
F.Cu
6
CONTINUOUS
10
4.1354330708661413
20
-1.7551181102362203
11
4.7377413385826772
21
-1.7551181102362203
0
LINE
8
F.Cu
6
CONTINUOUS
10
4.7377413385826772
20
-1.7551181102362203
11
4.740310157480315
21
-1.7552864960629921
0
LINE
8
F.Cu
6
CONTINUOUS
10
4.6819774803149601
20
-2.4352144881889761
11
4.6876817716535433
21
-2.437577283464567
0
LINE
8
F.Cu
6
CONTINUOUS
10
4.6876817716535433
20
-2.437577283464567
11
4.6928155511811021
21
-2.4410075590551181
0
LINE
8
F.Cu
6
CONTINUOUS
10
4.6928155511811021
20
-2.4410075590551181
11
4.6971814173228346
21
-2.4453734251968502
0
LINE
8
F.Cu
6
CONTINUOUS
10
4.6971814173228346
20
-2.4453734251968502
11
4.7006116929133857
21
-2.4505072047244094
0
LINE
8
F.Cu
6
CONTINUOUS
10
4.7006116929133857
20
-2.4505072047244094
11
4.7029744881889766
21
-2.4562114960629922
0
LINE
8
F.Cu
6
CONTINUOUS
10
4.7029744881889766
20
-2.4562114960629922
11
4.70417905511811
21
-2.4622671653543304
0
LINE
8
F.Cu
6
CONTINUOUS
10
4.70417905511811
20
-2.4622671653543304
11
4.70417905511811
21
-2.4684414960629919
0
LINE
8
F.Cu
6
CONTINUOUS
10
4.70417905511811
20
-2.4684414960629919
11
4.7029744881889766
21
-2.4744971653543306
0
LINE
8
F.Cu
6
CONTINUOUS
10
4.7029744881889766
20
-2.4744971653543306
11
4.7006116929133857
21
-2.4802014566929134
0
LINE
8
F.Cu
6
CONTINUOUS
10
4.7006116929133857
20
-2.4802014566929134
11
4.6971814173228346
21
-2.4853352362204726
0
LINE
8
F.Cu
6
CONTINUOUS
10
4.6971814173228346
20
-2.4853352362204726
11
4.6928155511811021
21
-2.4897011023622047
0
LINE
8
F.Cu
6
CONTINUOUS
10
4.6928155511811021
20
-2.4897011023622047
11
4.6876817716535433
21
-2.4931313779527557
0
LINE
8
F.Cu
6
CONTINUOUS
10
4.6876817716535433
20
-2.4931313779527557
11
4.6819774803149601
21
-2.4954941732283462
0
LINE
8
F.Cu
6
CONTINUOUS
10
4.6819774803149601
20
-2.4954941732283462
11
4.6759218110236223
21
-2.4966987401574801
0
LINE
8
F.Cu
6
CONTINUOUS
10
4.6759218110236223
20
-2.4966987401574801
11
4.6697474803149603
21
-2.4966987401574801
0
LINE
8
F.Cu
6
CONTINUOUS
10
4.6697474803149603
20
-2.4966987401574801
11
4.6636918110236216
21
-2.4954941732283462
0
LINE
8
F.Cu
6
CONTINUOUS
10
4.6636918110236216
20
-2.4954941732283462
11
4.6579875196850393
21
-2.4931313779527557
0
LINE
8
F.Cu
6
CONTINUOUS
10
4.6579875196850393
20
-2.4931313779527557
11
4.6528537401574805
21
-2.4897011023622047
0
LINE
8
F.Cu
6
CONTINUOUS
10
4.6528537401574805
20
-2.4897011023622047
11
4.648487874015748
21
-2.4853352362204726
0
LINE
8
F.Cu
6
CONTINUOUS
10
4.648487874015748
20
-2.4853352362204726
11
4.648290196850394
21
-2.4850393700787401
0
LINE
8
F.Cu
6
CONTINUOUS
10
4.648290196850394
20
-2.4850393700787401
11
4.5275590551181102
21
-2.4850393700787401
0
LINE
8
F.Cu
6
CONTINUOUS
10
4.5275590551181102
20
-2.4850393700787401
11
4.5249896456692911
21
-2.4848709448818895
0
LINE
8
F.Cu
6
CONTINUOUS
10
4.5249896456692911
20
-2.4848709448818895
11
4.5200259055118108
21
-2.4835409448818897
0
LINE
8
F.Cu
6
CONTINUOUS
10
4.5200259055118108
20
-2.4835409448818897
11
4.5155755511811027
21
-2.480971535433071
0
LINE
8
F.Cu
6
CONTINUOUS
10
4.5155755511811027
20
-2.480971535433071
11
4.5119418503937005
21
-2.4773378346456694
0
LINE
8
F.Cu
6
CONTINUOUS
10
4.5119418503937005
20
-2.4773378346456694
11
4.5093724409448814
21
-2.4728874803149608
0
LINE
8
F.Cu
6
CONTINUOUS
10
4.5093724409448814
20
-2.4728874803149608
11
4.508042440944882
21
-2.4679237401574801
0
LINE
8
F.Cu
6
CONTINUOUS
10
4.508042440944882
20
-2.4679237401574801
11
4.508042440944882
21
-2.4627849212598423
0
LINE
8
F.Cu
6
CONTINUOUS
10
4.508042440944882
20
-2.4627849212598423
11
4.5093724409448814
21
-2.457821181102362
0
LINE
8
F.Cu
6
CONTINUOUS
10
4.5093724409448814
20
-2.457821181102362
11
4.5119418503937005
21
-2.4533708267716534
0
LINE
8
F.Cu
6
CONTINUOUS
10
4.5119418503937005
20
-2.4533708267716534
11
4.5155755511811027
21
-2.4497371259842518
0
LINE
8
F.Cu
6
CONTINUOUS
10
4.5155755511811027
20
-2.4497371259842518
11
4.5200259055118108
21
-2.4471677165354331
0
LINE
8
F.Cu
6
CONTINUOUS
10
4.5200259055118108
20
-2.4471677165354331
11
4.5249896456692911
21
-2.4458377165354328
0
LINE
8
F.Cu
6
CONTINUOUS
10
4.5249896456692911
20
-2.4458377165354328
11
4.5275590551181102
21
-2.4456692913385827
0
LINE
8
F.Cu
6
CONTINUOUS
10
4.5275590551181102
20
-2.4456692913385827
11
4.648290196850394
21
-2.4456692913385827
0
LINE
8
F.Cu
6
CONTINUOUS
10
4.648290196850394
20
-2.4456692913385827
11
4.648487874015748
21
-2.4453734251968502
0
LINE
8
F.Cu
6
CONTINUOUS
10
4.648487874015748
20
-2.4453734251968502
11
4.6528537401574805
21
-2.4410075590551181
0
LINE
8
F.Cu
6
CONTINUOUS
10
4.6528537401574805
20
-2.4410075590551181
11
4.6579875196850393
21
-2.437577283464567
0
LINE
8
F.Cu
6
CONTINUOUS
10
4.6579875196850393
20
-2.437577283464567
11
4.6636918110236216
21
-2.4352144881889761
0
LINE
8
F.Cu
6
CONTINUOUS
10
4.6636918110236216
20
-2.4352144881889761
11
4.6697474803149603
21
-2.4340099212598423
0
LINE
8
F.Cu
6
CONTINUOUS
10
4.6697474803149603
20
-2.4340099212598423
11
4.6759218110236223
21
-2.4340099212598423
0
LINE
8
F.Cu
6
CONTINUOUS
10
4.6759218110236223
20
-2.4340099212598423
11
4.6819774803149601
21
-2.4352144881889761
0
LINE
8
F.Cu
6
CONTINUOUS
10
4.9819774803149608
20
-2.4352144881889761
11
4.9876817716535431
21
-2.437577283464567
0
LINE
8
F.Cu
6
CONTINUOUS
10
4.9876817716535431
20
-2.437577283464567
11
4.9928155511811019
21
-2.4410075590551181
0
LINE
8
F.Cu
6
CONTINUOUS
10
4.9928155511811019
20
-2.4410075590551181
11
4.9971814173228344
21
-2.4453734251968502
0
LINE
8
F.Cu
6
CONTINUOUS
10
4.9971814173228344
20
-2.4453734251968502
11
5.0006116929133855
21
-2.4505072047244094
0
LINE
8
F.Cu
6
CONTINUOUS
10
5.0006116929133855
20
-2.4505072047244094
11
5.0029744881889764
21
-2.4562114960629922
0
LINE
8
F.Cu
6
CONTINUOUS
10
5.0029744881889764
20
-2.4562114960629922
11
5.0041790551181098
21
-2.4622671653543304
0
LINE
8
F.Cu
6
CONTINUOUS
10
5.0041790551181098
20
-2.4622671653543304
11
5.0041790551181098
21
-2.4684414960629919
0
LINE
8
F.Cu
6
CONTINUOUS
10
5.0041790551181098
20
-2.4684414960629919
11
5.0029744881889764
21
-2.4744971653543306
0
LINE
8
F.Cu
6
CONTINUOUS
10
5.0029744881889764
20
-2.4744971653543306
11
5.0006116929133855
21
-2.4802014566929134
0
LINE
8
F.Cu
6
CONTINUOUS
10
5.0006116929133855
20
-2.4802014566929134
11
4.9971814173228344
21
-2.4853352362204726
0
LINE
8
F.Cu
6
CONTINUOUS
10
4.9971814173228344
20
-2.4853352362204726
11
4.9928155511811019
21
-2.4897011023622047
0
LINE
8
F.Cu
6
CONTINUOUS
10
4.9928155511811019
20
-2.4897011023622047
11
4.9876817716535431
21
-2.4931313779527557
0
LINE
8
F.Cu
6
CONTINUOUS
10
4.9876817716535431
20
-2.4931313779527557
11
4.9819774803149608
21
-2.4954941732283462
0
LINE
8
F.Cu
6
CONTINUOUS
10
4.9819774803149608
20
-2.4954941732283462
11
4.9759218110236221
21
-2.4966987401574801
0
LINE
8
F.Cu
6
CONTINUOUS
10
4.9759218110236221
20
-2.4966987401574801
11
4.9697474803149602
21
-2.4966987401574801
0
LINE
8
F.Cu
6
CONTINUOUS
10
4.9697474803149602
20
-2.4966987401574801
11
4.9636918110236223
21
-2.4954941732283462
0
LINE
8
F.Cu
6
CONTINUOUS
10
4.9636918110236223
20
-2.4954941732283462
11
4.9579875196850391
21
-2.4931313779527557
0
LINE
8
F.Cu
6
CONTINUOUS
10
4.9579875196850391
20
-2.4931313779527557
11
4.9528537401574804
21
-2.4897011023622047
0
LINE
8
F.Cu
6
CONTINUOUS
10
4.9528537401574804
20
-2.4897011023622047
11
4.9484878740157479
21
-2.4853352362204726
0
LINE
8
F.Cu
6
CONTINUOUS
10
4.9484878740157479
20
-2.4853352362204726
11
4.9450575984251968
21
-2.4802014566929134
0
LINE
8
F.Cu
6
CONTINUOUS
10
4.9450575984251968
20
-2.4802014566929134
11
4.9426948031496059
21
-2.4744971653543306
0
LINE
8
F.Cu
6
CONTINUOUS
10
4.9426948031496059
20
-2.4744971653543306
11
4.9414902362204725
21
-2.4684414960629919
0
LINE
8
F.Cu
6
CONTINUOUS
10
4.9414902362204725
20
-2.4684414960629919
11
4.9414902362204725
21
-2.4622671653543304
0
LINE
8
F.Cu
6
CONTINUOUS
10
4.9414902362204725
20
-2.4622671653543304
11
4.9426948031496059
21
-2.4562114960629922
0
LINE
8
F.Cu
6
CONTINUOUS
10
4.9426948031496059
20
-2.4562114960629922
11
4.9450575984251968
21
-2.4505072047244094
0
LINE
8
F.Cu
6
CONTINUOUS
10
4.9450575984251968
20
-2.4505072047244094
11
4.9484878740157479
21
-2.4453734251968502
0
LINE
8
F.Cu
6
CONTINUOUS
10
4.9484878740157479
20
-2.4453734251968502
11
4.9528537401574804
21
-2.4410075590551181
0
LINE
8
F.Cu
6
CONTINUOUS
10
4.9528537401574804
20
-2.4410075590551181
11
4.9579875196850391
21
-2.437577283464567
0
LINE
8
F.Cu
6
CONTINUOUS
10
4.9579875196850391
20
-2.437577283464567
11
4.9636918110236223
21
-2.4352144881889761
0
LINE
8
F.Cu
6
CONTINUOUS
10
4.9636918110236223
20
-2.4352144881889761
11
4.9697474803149602
21
-2.4340099212598423
0
LINE
8
F.Cu
6
CONTINUOUS
10
4.9697474803149602
20
-2.4340099212598423
11
4.9759218110236221
21
-2.4340099212598423
0
LINE
8
F.Cu
6
CONTINUOUS
10
4.9759218110236221
20
-2.4340099212598423
11
4.9819774803149608
21
-2.4352144881889761
0
LINE
8
F.Cu
6
CONTINUOUS
10
4.6819774803149601
20
-2.3352144881889765
11
4.6876817716535433
21
-2.3375772834645669
0
LINE
8
F.Cu
6
CONTINUOUS
10
4.6876817716535433
20
-2.3375772834645669
11
4.6928155511811021
21
-2.341007559055118
0
LINE
8
F.Cu
6
CONTINUOUS
10
4.6928155511811021
20
-2.341007559055118
11
4.6971814173228346
21
-2.3453734251968505
0
LINE
8
F.Cu
6
CONTINUOUS
10
4.6971814173228346
20
-2.3453734251968505
11
4.7006116929133857
21
-2.3505072047244093
0
LINE
8
F.Cu
6
CONTINUOUS
10
4.7006116929133857
20
-2.3505072047244093
11
4.7029744881889766
21
-2.3562114960629921
0
LINE
8
F.Cu
6
CONTINUOUS
10
4.7029744881889766
20
-2.3562114960629921
11
4.70417905511811
21
-2.3622671653543308
0
LINE
8
F.Cu
6
CONTINUOUS
10
4.70417905511811
20
-2.3622671653543308
11
4.70417905511811
21
-2.3684414960629923
0
LINE
8
F.Cu
6
CONTINUOUS
10
4.70417905511811
20
-2.3684414960629923
11
4.7029744881889766
21
-2.3744971653543305
0
LINE
8
F.Cu
6
CONTINUOUS
10
4.7029744881889766
20
-2.3744971653543305
11
4.7006116929133857
21
-2.3802014566929133
0
LINE
8
F.Cu
6
CONTINUOUS
10
4.7006116929133857
20
-2.3802014566929133
11
4.6971814173228346
21
-2.3853352362204725
0
LINE
8
F.Cu
6
CONTINUOUS
10
4.6971814173228346
20
-2.3853352362204725
11
4.6928155511811021
21
-2.3897011023622046
0
LINE
8
F.Cu
6
CONTINUOUS
10
4.6928155511811021
20
-2.3897011023622046
11
4.6876817716535433
21
-2.3931313779527557
0
LINE
8
F.Cu
6
CONTINUOUS
10
4.6876817716535433
20
-2.3931313779527557
11
4.6819774803149601
21
-2.3954941732283466
0
LINE
8
F.Cu
6
CONTINUOUS
10
4.6819774803149601
20
-2.3954941732283466
11
4.6759218110236223
21
-2.3966987401574804
0
LINE
8
F.Cu
6
CONTINUOUS
10
4.6759218110236223
20
-2.3966987401574804
11
4.6697474803149603
21
-2.3966987401574804
0
LINE
8
F.Cu
6
CONTINUOUS
10
4.6697474803149603
20
-2.3966987401574804
11
4.6636918110236216
21
-2.3954941732283466
0
LINE
8
F.Cu
6
CONTINUOUS
10
4.6636918110236216
20
-2.3954941732283466
11
4.6579875196850393
21
-2.3931313779527557
0
LINE
8
F.Cu
6
CONTINUOUS
10
4.6579875196850393
20
-2.3931313779527557
11
4.6528537401574805
21
-2.3897011023622046
0
LINE
8
F.Cu
6
CONTINUOUS
10
4.6528537401574805
20
-2.3897011023622046
11
4.648487874015748
21
-2.3853352362204725
0
LINE
8
F.Cu
6
CONTINUOUS
10
4.648487874015748
20
-2.3853352362204725
11
4.6450575984251969
21
-2.3802014566929133
0
LINE
8
F.Cu
6
CONTINUOUS
10
4.6450575984251969
20
-2.3802014566929133
11
4.642694803149606
21
-2.3744971653543305
0
LINE
8
F.Cu
6
CONTINUOUS
10
4.642694803149606
20
-2.3744971653543305
11
4.6414902362204726
21
-2.3684414960629923
0
LINE
8
F.Cu
6
CONTINUOUS
10
4.6414902362204726
20
-2.3684414960629923
11
4.6414902362204726
21
-2.3622671653543308
0
LINE
8
F.Cu
6
CONTINUOUS
10
4.6414902362204726
20
-2.3622671653543308
11
4.642694803149606
21
-2.3562114960629921
0
LINE
8
F.Cu
6
CONTINUOUS
10
4.642694803149606
20
-2.3562114960629921
11
4.6450575984251969
21
-2.3505072047244093
0
LINE
8
F.Cu
6
CONTINUOUS
10
4.6450575984251969
20
-2.3505072047244093
11
4.648487874015748
21
-2.3453734251968505
0
LINE
8
F.Cu
6
CONTINUOUS
10
4.648487874015748
20
-2.3453734251968505
11
4.6528537401574805
21
-2.341007559055118
0
LINE
8
F.Cu
6
CONTINUOUS
10
4.6528537401574805
20
-2.341007559055118
11
4.6579875196850393
21
-2.3375772834645669
0
LINE
8
F.Cu
6
CONTINUOUS
10
4.6579875196850393
20
-2.3375772834645669
11
4.6636918110236216
21
-2.3352144881889765
0
LINE
8
F.Cu
6
CONTINUOUS
10
4.6636918110236216
20
-2.3352144881889765
11
4.6697474803149603
21
-2.3340099212598426
0
LINE
8
F.Cu
6
CONTINUOUS
10
4.6697474803149603
20
-2.3340099212598426
11
4.6759218110236223
21
-2.3340099212598426
0
LINE
8
F.Cu
6
CONTINUOUS
10
4.6759218110236223
20
-2.3340099212598426
11
4.6819774803149601
21
-2.3352144881889765
0
LINE
8
F.Cu
6
CONTINUOUS
10
4.9819774803149608
20
-2.1352144881889763
11
4.9876817716535431
21
-2.1375772834645668
0
LINE
8
F.Cu
6
CONTINUOUS
10
4.9876817716535431
20
-2.1375772834645668
11
4.9928155511811019
21
-2.1410075590551179
0
LINE
8
F.Cu
6
CONTINUOUS
10
4.9928155511811019
20
-2.1410075590551179
11
4.9971814173228344
21
-2.1453734251968504
0
LINE
8
F.Cu
6
CONTINUOUS
10
4.9971814173228344
20
-2.1453734251968504
11
5.0006116929133855
21
-2.1505072047244096
0
LINE
8
F.Cu
6
CONTINUOUS
10
5.0006116929133855
20
-2.1505072047244096
11
5.0029744881889764
21
-2.1562114960629919
0
LINE
8
F.Cu
6
CONTINUOUS
10
5.0029744881889764
20
-2.1562114960629919
11
5.0041790551181098
21
-2.1622671653543306
0
LINE
8
F.Cu
6
CONTINUOUS
10
5.0041790551181098
20
-2.1622671653543306
11
5.0041790551181098
21
-2.1684414960629921
0
LINE
8
F.Cu
6
CONTINUOUS
10
5.0041790551181098
20
-2.1684414960629921
11
5.0029744881889764
21
-2.1744971653543308
0
LINE
8
F.Cu
6
CONTINUOUS
10
5.0029744881889764
20
-2.1744971653543308
11
5.0006116929133855
21
-2.1802014566929135
0
LINE
8
F.Cu
6
CONTINUOUS
10
5.0006116929133855
20
-2.1802014566929135
11
4.9971814173228344
21
-2.1853352362204723
0
LINE
8
F.Cu
6
CONTINUOUS
10
4.9971814173228344
20
-2.1853352362204723
11
4.9928155511811019
21
-2.1897011023622048
0
LINE
8
F.Cu
6
CONTINUOUS
10
4.9928155511811019
20
-2.1897011023622048
11
4.9876817716535431
21
-2.1931313779527559
0
LINE
8
F.Cu
6
CONTINUOUS
10
4.9876817716535431
20
-2.1931313779527559
11
4.9819774803149608
21
-2.1954941732283464
0
LINE
8
F.Cu
6
CONTINUOUS
10
4.9819774803149608
20
-2.1954941732283464
11
4.9759218110236221
21
-2.1966987401574802
0
LINE
8
F.Cu
6
CONTINUOUS
10
4.9759218110236221
20
-2.1966987401574802
11
4.9697474803149602
21
-2.1966987401574802
0
LINE
8
F.Cu
6
CONTINUOUS
10
4.9697474803149602
20
-2.1966987401574802
11
4.9636918110236223
21
-2.1954941732283464
0
LINE
8
F.Cu
6
CONTINUOUS
10
4.9636918110236223
20
-2.1954941732283464
11
4.9579875196850391
21
-2.1931313779527559
0
LINE
8
F.Cu
6
CONTINUOUS
10
4.9579875196850391
20
-2.1931313779527559
11
4.9528537401574804
21
-2.1897011023622048
0
LINE
8
F.Cu
6
CONTINUOUS
10
4.9528537401574804
20
-2.1897011023622048
11
4.9484878740157479
21
-2.1853352362204723
0
LINE
8
F.Cu
6
CONTINUOUS
10
4.9484878740157479
20
-2.1853352362204723
11
4.9450575984251968
21
-2.1802014566929135
0
LINE
8
F.Cu
6
CONTINUOUS
10
4.9450575984251968
20
-2.1802014566929135
11
4.9426948031496059
21
-2.1744971653543308
0
LINE
8
F.Cu
6
CONTINUOUS
10
4.9426948031496059
20
-2.1744971653543308
11
4.9414902362204725
21
-2.1684414960629921
0
LINE
8
F.Cu
6
CONTINUOUS
10
4.9414902362204725
20
-2.1684414960629921
11
4.9414902362204725
21
-2.1622671653543306
0
LINE
8
F.Cu
6
CONTINUOUS
10
4.9414902362204725
20
-2.1622671653543306
11
4.9426948031496059
21
-2.1562114960629919
0
LINE
8
F.Cu
6
CONTINUOUS
10
4.9426948031496059
20
-2.1562114960629919
11
4.9450575984251968
21
-2.1505072047244096
0
LINE
8
F.Cu
6
CONTINUOUS
10
4.9450575984251968
20
-2.1505072047244096
11
4.9484878740157479
21
-2.1453734251968504
0
LINE
8
F.Cu
6
CONTINUOUS
10
4.9484878740157479
20
-2.1453734251968504
11
4.9528537401574804
21
-2.1410075590551179
0
LINE
8
F.Cu
6
CONTINUOUS
10
4.9528537401574804
20
-2.1410075590551179
11
4.9579875196850391
21
-2.1375772834645668
0
LINE
8
F.Cu
6
CONTINUOUS
10
4.9579875196850391
20
-2.1375772834645668
11
4.9636918110236223
21
-2.1352144881889763
0
LINE
8
F.Cu
6
CONTINUOUS
10
4.9636918110236223
20
-2.1352144881889763
11
4.9697474803149602
21
-2.1340099212598425
0
LINE
8
F.Cu
6
CONTINUOUS
10
4.9697474803149602
20
-2.1340099212598425
11
4.9759218110236221
21
-2.1340099212598425
0
LINE
8
F.Cu
6
CONTINUOUS
10
4.9759218110236221
20
-2.1340099212598425
11
4.9819774803149608
21
-2.1352144881889763
0
LINE
8
F.Cu
6
CONTINUOUS
10
4.6819774803149601
20
-2.0352144881889762
11
4.6876817716535433
21
-2.0375772834645667
0
LINE
8
F.Cu
6
CONTINUOUS
10
4.6876817716535433
20
-2.0375772834645667
11
4.6928155511811021
21
-2.0410075590551182
0
LINE
8
F.Cu
6
CONTINUOUS
10
4.6928155511811021
20
-2.0410075590551182
11
4.6971814173228346
21
-2.0453734251968503
0
LINE
8
F.Cu
6
CONTINUOUS
10
4.6971814173228346
20
-2.0453734251968503
11
4.7006116929133857
21
-2.0505072047244095
0
LINE
8
F.Cu
6
CONTINUOUS
10
4.7006116929133857
20
-2.0505072047244095
11
4.7029744881889766
21
-2.0562114960629922
0
LINE
8
F.Cu
6
CONTINUOUS
10
4.7029744881889766
20
-2.0562114960629922
11
4.70417905511811
21
-2.0622671653543305
0
LINE
8
F.Cu
6
CONTINUOUS
10
4.70417905511811
20
-2.0622671653543305
11
4.70417905511811
21
-2.068441496062992
0
LINE
8
F.Cu
6
CONTINUOUS
10
4.70417905511811
20
-2.068441496062992
11
4.7029744881889766
21
-2.0744971653543307
0
LINE
8
F.Cu
6
CONTINUOUS
10
4.7029744881889766
20
-2.0744971653543307
11
4.7006116929133857
21
-2.0802014566929135
0
LINE
8
F.Cu
6
CONTINUOUS
10
4.7006116929133857
20
-2.0802014566929135
11
4.6971814173228346
21
-2.0853352362204722
0
LINE
8
F.Cu
6
CONTINUOUS
10
4.6971814173228346
20
-2.0853352362204722
11
4.6928155511811021
21
-2.0897011023622047
0
LINE
8
F.Cu
6
CONTINUOUS
10
4.6928155511811021
20
-2.0897011023622047
11
4.6876817716535433
21
-2.0931313779527558
0
LINE
8
F.Cu
6
CONTINUOUS
10
4.6876817716535433
20
-2.0931313779527558
11
4.6819774803149601
21
-2.0954941732283463
0
LINE
8
F.Cu
6
CONTINUOUS
10
4.6819774803149601
20
-2.0954941732283463
11
4.6759218110236223
21
-2.0966987401574801
0
LINE
8
F.Cu
6
CONTINUOUS
10
4.6759218110236223
20
-2.0966987401574801
11
4.6697474803149603
21
-2.0966987401574801
0
LINE
8
F.Cu
6
CONTINUOUS
10
4.6697474803149603
20
-2.0966987401574801
11
4.6636918110236216
21
-2.0954941732283463
0
LINE
8
F.Cu
6
CONTINUOUS
10
4.6636918110236216
20
-2.0954941732283463
11
4.6579875196850393
21
-2.0931313779527558
0
LINE
8
F.Cu
6
CONTINUOUS
10
4.6579875196850393
20
-2.0931313779527558
11
4.6528537401574805
21
-2.0897011023622047
0
LINE
8
F.Cu
6
CONTINUOUS
10
4.6528537401574805
20
-2.0897011023622047
11
4.648487874015748
21
-2.0853352362204722
0
LINE
8
F.Cu
6
CONTINUOUS
10
4.648487874015748
20
-2.0853352362204722
11
4.6450575984251969
21
-2.0802014566929135
0
LINE
8
F.Cu
6
CONTINUOUS
10
4.6450575984251969
20
-2.0802014566929135
11
4.642694803149606
21
-2.0744971653543307
0
LINE
8
F.Cu
6
CONTINUOUS
10
4.642694803149606
20
-2.0744971653543307
11
4.6414902362204726
21
-2.068441496062992
0
LINE
8
F.Cu
6
CONTINUOUS
10
4.6414902362204726
20
-2.068441496062992
11
4.6414902362204726
21
-2.0622671653543305
0
LINE
8
F.Cu
6
CONTINUOUS
10
4.6414902362204726
20
-2.0622671653543305
11
4.642694803149606
21
-2.0562114960629922
0
LINE
8
F.Cu
6
CONTINUOUS
10
4.642694803149606
20
-2.0562114960629922
11
4.6450575984251969
21
-2.0505072047244095
0
LINE
8
F.Cu
6
CONTINUOUS
10
4.6450575984251969
20
-2.0505072047244095
11
4.648487874015748
21
-2.0453734251968503
0
LINE
8
F.Cu
6
CONTINUOUS
10
4.648487874015748
20
-2.0453734251968503
11
4.6528537401574805
21
-2.0410075590551182
0
LINE
8
F.Cu
6
CONTINUOUS
10
4.6528537401574805
20
-2.0410075590551182
11
4.6579875196850393
21
-2.0375772834645667
0
LINE
8
F.Cu
6
CONTINUOUS
10
4.6579875196850393
20
-2.0375772834645667
11
4.6636918110236216
21
-2.0352144881889762
0
LINE
8
F.Cu
6
CONTINUOUS
10
4.6636918110236216
20
-2.0352144881889762
11
4.6697474803149603
21
-2.0340099212598424
0
LINE
8
F.Cu
6
CONTINUOUS
10
4.6697474803149603
20
-2.0340099212598424
11
4.6759218110236223
21
-2.0340099212598424
0
LINE
8
F.Cu
6
CONTINUOUS
10
4.6759218110236223
20
-2.0340099212598424
11
4.6819774803149601
21
-2.0352144881889762
0
LINE
8
F.Cu
6
CONTINUOUS
10
3.2119971653543304
20
-1.9904310236220473
11
3.2177014566929132
21
-1.9927938188976377
0
LINE
8
F.Cu
6
CONTINUOUS
10
3.2177014566929132
20
-1.9927938188976377
11
3.2228352362204724
21
-1.9962240944881888
0
LINE
8
F.Cu
6
CONTINUOUS
10
3.2228352362204724
20
-1.9962240944881888
11
3.2272011023622045
21
-2.0005899606299211
0
LINE
8
F.Cu
6
CONTINUOUS
10
3.2272011023622045
20
-2.0005899606299211
11
3.230631377952756
21
-2.0057237401574803
0
LINE
8
F.Cu
6
CONTINUOUS
10
3.230631377952756
20
-2.0057237401574803
11
3.2329941732283465
21
-2.0114280314960631
0
LINE
8
F.Cu
6
CONTINUOUS
10
3.2329941732283465
20
-2.0114280314960631
11
3.2341987401574803
21
-2.0174837007874014
0
LINE
8
F.Cu
6
CONTINUOUS
10
3.2341987401574803
20
-2.0174837007874014
11
3.2341987401574803
21
-2.0236580314960628
0
LINE
8
F.Cu
6
CONTINUOUS
10
3.2341987401574803
20
-2.0236580314960628
11
3.2329941732283465
21
-2.0297137007874015
0
LINE
8
F.Cu
6
CONTINUOUS
10
3.2329941732283465
20
-2.0297137007874015
11
3.230631377952756
21
-2.0354179921259843
0
LINE
8
F.Cu
6
CONTINUOUS
10
3.230631377952756
20
-2.0354179921259843
11
3.2272011023622045
21
-2.0405517716535431
0
LINE
8
F.Cu
6
CONTINUOUS
10
3.2272011023622045
20
-2.0405517716535431
11
3.2228352362204724
21
-2.0449176377952756
0
LINE
8
F.Cu
6
CONTINUOUS
10
3.2228352362204724
20
-2.0449176377952756
11
3.2177014566929132
21
-2.0483479133858267
0
LINE
8
F.Cu
6
CONTINUOUS
10
3.2177014566929132
20
-2.0483479133858267
11
3.2119971653543304
21
-2.0507107086614171
0
LINE
8
F.Cu
6
CONTINUOUS
10
3.2119971653543304
20
-2.0507107086614171
11
3.2059414960629922
21
-2.051915275590551
0
LINE
8
F.Cu
6
CONTINUOUS
10
3.2059414960629922
20
-2.051915275590551
11
3.1997671653543307
21
-2.051915275590551
0
LINE
8
F.Cu
6
CONTINUOUS
10
3.1997671653543307
20
-2.051915275590551
11
3.193711496062992
21
-2.0507107086614171
0
LINE
8
F.Cu
6
CONTINUOUS
10
3.193711496062992
20
-2.0507107086614171
11
3.1880072047244092
21
-2.0483479133858267
0
LINE
8
F.Cu
6
CONTINUOUS
10
3.1880072047244092
20
-2.0483479133858267
11
3.1828734251968505
21
-2.0449176377952756
0
LINE
8
F.Cu
6
CONTINUOUS
10
3.1828734251968505
20
-2.0449176377952756
11
3.1785075590551179
21
-2.0405517716535431
0
LINE
8
F.Cu
6
CONTINUOUS
10
3.1785075590551179
20
-2.0405517716535431
11
3.1750772834645669
21
-2.0354179921259843
0
LINE
8
F.Cu
6
CONTINUOUS
10
3.1750772834645669
20
-2.0354179921259843
11
3.1727144881889764
21
-2.0297137007874015
0
LINE
8
F.Cu
6
CONTINUOUS
10
3.1727144881889764
20
-2.0297137007874015
11
3.1715099212598425
21
-2.0236580314960628
0
LINE
8
F.Cu
6
CONTINUOUS
10
3.1715099212598425
20
-2.0236580314960628
11
3.1715099212598425
21
-2.0174837007874014
0
LINE
8
F.Cu
6
CONTINUOUS
10
3.1715099212598425
20
-2.0174837007874014
11
3.1727144881889764
21
-2.0114280314960631
0
LINE
8
F.Cu
6
CONTINUOUS
10
3.1727144881889764
20
-2.0114280314960631
11
3.1750772834645669
21
-2.0057237401574803
0
LINE
8
F.Cu
6
CONTINUOUS
10
3.1750772834645669
20
-2.0057237401574803
11
3.1785075590551179
21
-2.0005899606299211
0
LINE
8
F.Cu
6
CONTINUOUS
10
3.1785075590551179
20
-2.0005899606299211
11
3.1828734251968505
21
-1.9962240944881888
0
LINE
8
F.Cu
6
CONTINUOUS
10
3.1828734251968505
20
-1.9962240944881888
11
3.1880072047244092
21
-1.9927938188976377
0
LINE
8
F.Cu
6
CONTINUOUS
10
3.1880072047244092
20
-1.9927938188976377
11
3.193711496062992
21
-1.9904310236220473
0
LINE
8
F.Cu
6
CONTINUOUS
10
3.193711496062992
20
-1.9904310236220473
11
3.1997671653543307
21
-1.9892264566929134
0
LINE
8
F.Cu
6
CONTINUOUS
10
3.1997671653543307
20
-1.9892264566929134
11
3.2059414960629922
21
-1.9892264566929134
0
LINE
8
F.Cu
6
CONTINUOUS
10
3.2059414960629922
20
-1.9892264566929134
11
3.2119971653543304
21
-1.9904310236220473
0
LINE
8
F.Cu
6
CONTINUOUS
10
3.2119971653543304
20
-1.8904310236220472
11
3.2177014566929132
21
-1.8927938188976376
0
LINE
8
F.Cu
6
CONTINUOUS
10
3.2177014566929132
20
-1.8927938188976376
11
3.2228352362204724
21
-1.896224094488189
0
LINE
8
F.Cu
6
CONTINUOUS
10
3.2228352362204724
20
-1.896224094488189
11
3.2272011023622045
21
-1.9005899606299212
0
LINE
8
F.Cu
6
CONTINUOUS
10
3.2272011023622045
20
-1.9005899606299212
11
3.230631377952756
21
-1.9057237401574803
0
LINE
8
F.Cu
6
CONTINUOUS
10
3.230631377952756
20
-1.9057237401574803
11
3.2329941732283465
21
-1.911428031496063
0
LINE
8
F.Cu
6
CONTINUOUS
10
3.2329941732283465
20
-1.911428031496063
11
3.2341987401574803
21
-1.9174837007874015
0
LINE
8
F.Cu
6
CONTINUOUS
10
3.2341987401574803
20
-1.9174837007874015
11
3.2341987401574803
21
-1.923658031496063
0
LINE
8
F.Cu
6
CONTINUOUS
10
3.2341987401574803
20
-1.923658031496063
11
3.2329941732283465
21
-1.9297137007874015
0
LINE
8
F.Cu
6
CONTINUOUS
10
3.2329941732283465
20
-1.9297137007874015
11
3.230631377952756
21
-1.9354179921259842
0
LINE
8
F.Cu
6
CONTINUOUS
10
3.230631377952756
20
-1.9354179921259842
11
3.2272011023622045
21
-1.9405517716535432
0
LINE
8
F.Cu
6
CONTINUOUS
10
3.2272011023622045
20
-1.9405517716535432
11
3.2228352362204724
21
-1.9449176377952755
0
LINE
8
F.Cu
6
CONTINUOUS
10
3.2228352362204724
20
-1.9449176377952755
11
3.2177014566929132
21
-1.9483479133858268
0
LINE
8
F.Cu
6
CONTINUOUS
10
3.2177014566929132
20
-1.9483479133858268
11
3.2119971653543304
21
-1.9507107086614173
0
LINE
8
F.Cu
6
CONTINUOUS
10
3.2119971653543304
20
-1.9507107086614173
11
3.2059414960629922
21
-1.9519152755905511
0
LINE
8
F.Cu
6
CONTINUOUS
10
3.2059414960629922
20
-1.9519152755905511
11
3.1997671653543307
21
-1.9519152755905511
0
LINE
8
F.Cu
6
CONTINUOUS
10
3.1997671653543307
20
-1.9519152755905511
11
3.193711496062992
21
-1.9507107086614173
0
LINE
8
F.Cu
6
CONTINUOUS
10
3.193711496062992
20
-1.9507107086614173
11
3.1880072047244092
21
-1.9483479133858268
0
LINE
8
F.Cu
6
CONTINUOUS
10
3.1880072047244092
20
-1.9483479133858268
11
3.1828734251968505
21
-1.9449176377952755
0
LINE
8
F.Cu
6
CONTINUOUS
10
3.1828734251968505
20
-1.9449176377952755
11
3.1785075590551179
21
-1.9405517716535432
0
LINE
8
F.Cu
6
CONTINUOUS
10
3.1785075590551179
20
-1.9405517716535432
11
3.1750772834645669
21
-1.9354179921259842
0
LINE
8
F.Cu
6
CONTINUOUS
10
3.1750772834645669
20
-1.9354179921259842
11
3.1727144881889764
21
-1.9297137007874015
0
LINE
8
F.Cu
6
CONTINUOUS
10
3.1727144881889764
20
-1.9297137007874015
11
3.1715099212598425
21
-1.923658031496063
0
LINE
8
F.Cu
6
CONTINUOUS
10
3.1715099212598425
20
-1.923658031496063
11
3.1715099212598425
21
-1.9174837007874015
0
LINE
8
F.Cu
6
CONTINUOUS
10
3.1715099212598425
20
-1.9174837007874015
11
3.1727144881889764
21
-1.911428031496063
0
LINE
8
F.Cu
6
CONTINUOUS
10
3.1727144881889764
20
-1.911428031496063
11
3.1750772834645669
21
-1.9057237401574803
0
LINE
8
F.Cu
6
CONTINUOUS
10
3.1750772834645669
20
-1.9057237401574803
11
3.1785075590551179
21
-1.9005899606299212
0
LINE
8
F.Cu
6
CONTINUOUS
10
3.1785075590551179
20
-1.9005899606299212
11
3.1828734251968505
21
-1.896224094488189
0
LINE
8
F.Cu
6
CONTINUOUS
10
3.1828734251968505
20
-1.896224094488189
11
3.1880072047244092
21
-1.8927938188976376
0
LINE
8
F.Cu
6
CONTINUOUS
10
3.1880072047244092
20
-1.8927938188976376
11
3.193711496062992
21
-1.8904310236220472
0
LINE
8
F.Cu
6
CONTINUOUS
10
3.193711496062992
20
-1.8904310236220472
11
3.1997671653543307
21
-1.8892264566929133
0
LINE
8
F.Cu
6
CONTINUOUS
10
3.1997671653543307
20
-1.8892264566929133
11
3.2059414960629922
21
-1.8892264566929133
0
LINE
8
F.Cu
6
CONTINUOUS
10
3.2059414960629922
20
-1.8892264566929133
11
3.2119971653543304
21
-1.8904310236220472
0
LINE
8
F.Cu
6
CONTINUOUS
10
3.2119971653543304
20
-1.7904310236220473
11
3.2177014566929132
21
-1.7927938188976378
0
LINE
8
F.Cu
6
CONTINUOUS
10
3.2177014566929132
20
-1.7927938188976378
11
3.2228352362204724
21
-1.7962240944881889
0
LINE
8
F.Cu
6
CONTINUOUS
10
3.2228352362204724
20
-1.7962240944881889
11
3.2272011023622045
21
-1.8005899606299212
0
LINE
8
F.Cu
6
CONTINUOUS
10
3.2272011023622045
20
-1.8005899606299212
11
3.230631377952756
21
-1.8057237401574804
0
LINE
8
F.Cu
6
CONTINUOUS
10
3.230631377952756
20
-1.8057237401574804
11
3.2329941732283465
21
-1.8114280314960629
0
LINE
8
F.Cu
6
CONTINUOUS
10
3.2329941732283465
20
-1.8114280314960629
11
3.2341987401574803
21
-1.8174837007874016
0
LINE
8
F.Cu
6
CONTINUOUS
10
3.2341987401574803
20
-1.8174837007874016
11
3.2341987401574803
21
-1.8236580314960629
0
LINE
8
F.Cu
6
CONTINUOUS
10
3.2341987401574803
20
-1.8236580314960629
11
3.2329941732283465
21
-1.8297137007874016
0
LINE
8
F.Cu
6
CONTINUOUS
10
3.2329941732283465
20
-1.8297137007874016
11
3.230631377952756
21
-1.8354179921259841
0
LINE
8
F.Cu
6
CONTINUOUS
10
3.230631377952756
20
-1.8354179921259841
11
3.2272011023622045
21
-1.8405517716535433
0
LINE
8
F.Cu
6
CONTINUOUS
10
3.2272011023622045
20
-1.8405517716535433
11
3.2228352362204724
21
-1.8449176377952756
0
LINE
8
F.Cu
6
CONTINUOUS
10
3.2228352362204724
20
-1.8449176377952756
11
3.2177014566929132
21
-1.8483479133858267
0
LINE
8
F.Cu
6
CONTINUOUS
10
3.2177014566929132
20
-1.8483479133858267
11
3.2119971653543304
21
-1.8507107086614172
0
LINE
8
F.Cu
6
CONTINUOUS
10
3.2119971653543304
20
-1.8507107086614172
11
3.2059414960629922
21
-1.8519152755905512
0
LINE
8
F.Cu
6
CONTINUOUS
10
3.2059414960629922
20
-1.8519152755905512
11
3.1997671653543307
21
-1.8519152755905512
0
LINE
8
F.Cu
6
CONTINUOUS
10
3.1997671653543307
20
-1.8519152755905512
11
3.193711496062992
21
-1.8507107086614172
0
LINE
8
F.Cu
6
CONTINUOUS
10
3.193711496062992
20
-1.8507107086614172
11
3.1880072047244092
21
-1.8483479133858267
0
LINE
8
F.Cu
6
CONTINUOUS
10
3.1880072047244092
20
-1.8483479133858267
11
3.1828734251968505
21
-1.8449176377952756
0
LINE
8
F.Cu
6
CONTINUOUS
10
3.1828734251968505
20
-1.8449176377952756
11
3.1785075590551179
21
-1.8405517716535433
0
LINE
8
F.Cu
6
CONTINUOUS
10
3.1785075590551179
20
-1.8405517716535433
11
3.1750772834645669
21
-1.8354179921259841
0
LINE
8
F.Cu
6
CONTINUOUS
10
3.1750772834645669
20
-1.8354179921259841
11
3.1727144881889764
21
-1.8297137007874016
0
LINE
8
F.Cu
6
CONTINUOUS
10
3.1727144881889764
20
-1.8297137007874016
11
3.1715099212598425
21
-1.8236580314960629
0
LINE
8
F.Cu
6
CONTINUOUS
10
3.1715099212598425
20
-1.8236580314960629
11
3.1715099212598425
21
-1.8174837007874016
0
LINE
8
F.Cu
6
CONTINUOUS
10
3.1715099212598425
20
-1.8174837007874016
11
3.1727144881889764
21
-1.8114280314960629
0
LINE
8
F.Cu
6
CONTINUOUS
10
3.1727144881889764
20
-1.8114280314960629
11
3.1750772834645669
21
-1.8057237401574804
0
LINE
8
F.Cu
6
CONTINUOUS
10
3.1750772834645669
20
-1.8057237401574804
11
3.1785075590551179
21
-1.8005899606299212
0
LINE
8
F.Cu
6
CONTINUOUS
10
3.1785075590551179
20
-1.8005899606299212
11
3.1828734251968505
21
-1.7962240944881889
0
LINE
8
F.Cu
6
CONTINUOUS
10
3.1828734251968505
20
-1.7962240944881889
11
3.1880072047244092
21
-1.7927938188976378
0
LINE
8
F.Cu
6
CONTINUOUS
10
3.1880072047244092
20
-1.7927938188976378
11
3.193711496062992
21
-1.7904310236220473
0
LINE
8
F.Cu
6
CONTINUOUS
10
3.193711496062992
20
-1.7904310236220473
11
3.1997671653543307
21
-1.7892264566929132
0
LINE
8
F.Cu
6
CONTINUOUS
10
3.1997671653543307
20
-1.7892264566929132
11
3.2059414960629922
21
-1.7892264566929132
0
LINE
8
F.Cu
6
CONTINUOUS
10
3.2059414960629922
20
-1.7892264566929132
11
3.2119971653543304
21
-1.7904310236220473
0
LINE
8
F.Cu
6
CONTINUOUS
10
3.2119971653543304
20
-1.6904310236220472
11
3.2177014566929132
21
-1.6927938188976377
0
LINE
8
F.Cu
6
CONTINUOUS
10
3.2177014566929132
20
-1.6927938188976377
11
3.2228352362204724
21
-1.696224094488189
0
LINE
8
F.Cu
6
CONTINUOUS
10
3.2228352362204724
20
-1.696224094488189
11
3.2272011023622045
21
-1.7005899606299213
0
LINE
8
F.Cu
6
CONTINUOUS
10
3.2272011023622045
20
-1.7005899606299213
11
3.230631377952756
21
-1.7057237401574803
0
LINE
8
F.Cu
6
CONTINUOUS
10
3.230631377952756
20
-1.7057237401574803
11
3.2329941732283465
21
-1.711428031496063
0
LINE
8
F.Cu
6
CONTINUOUS
10
3.2329941732283465
20
-1.711428031496063
11
3.2341987401574803
21
-1.7174837007874015
0
LINE
8
F.Cu
6
CONTINUOUS
10
3.2341987401574803
20
-1.7174837007874015
11
3.2341987401574803
21
-1.723658031496063
0
LINE
8
F.Cu
6
CONTINUOUS
10
3.2341987401574803
20
-1.723658031496063
11
3.2329941732283465
21
-1.7297137007874015
0
LINE
8
F.Cu
6
CONTINUOUS
10
3.2329941732283465
20
-1.7297137007874015
11
3.230631377952756
21
-1.7354179921259842
0
LINE
8
F.Cu
6
CONTINUOUS
10
3.230631377952756
20
-1.7354179921259842
11
3.2272011023622045
21
-1.7405517716535432
0
LINE
8
F.Cu
6
CONTINUOUS
10
3.2272011023622045
20
-1.7405517716535432
11
3.2228352362204724
21
-1.7449176377952755
0
LINE
8
F.Cu
6
CONTINUOUS
10
3.2228352362204724
20
-1.7449176377952755
11
3.2177014566929132
21
-1.7483479133858266
0
LINE
8
F.Cu
6
CONTINUOUS
10
3.2177014566929132
20
-1.7483479133858266
11
3.2119971653543304
21
-1.7507107086614173
0
LINE
8
F.Cu
6
CONTINUOUS
10
3.2119971653543304
20
-1.7507107086614173
11
3.2059414960629922
21
-1.7519152755905512
0
LINE
8
F.Cu
6
CONTINUOUS
10
3.2059414960629922
20
-1.7519152755905512
11
3.1997671653543307
21
-1.7519152755905512
0
LINE
8
F.Cu
6
CONTINUOUS
10
3.1997671653543307
20
-1.7519152755905512
11
3.193711496062992
21
-1.7507107086614173
0
LINE
8
F.Cu
6
CONTINUOUS
10
3.193711496062992
20
-1.7507107086614173
11
3.1880072047244092
21
-1.7483479133858266
0
LINE
8
F.Cu
6
CONTINUOUS
10
3.1880072047244092
20
-1.7483479133858266
11
3.1828734251968505
21
-1.7449176377952755
0
LINE
8
F.Cu
6
CONTINUOUS
10
3.1828734251968505
20
-1.7449176377952755
11
3.1785075590551179
21
-1.7405517716535432
0
LINE
8
F.Cu
6
CONTINUOUS
10
3.1785075590551179
20
-1.7405517716535432
11
3.1750772834645669
21
-1.7354179921259842
0
LINE
8
F.Cu
6
CONTINUOUS
10
3.1750772834645669
20
-1.7354179921259842
11
3.1727144881889764
21
-1.7297137007874015
0
LINE
8
F.Cu
6
CONTINUOUS
10
3.1727144881889764
20
-1.7297137007874015
11
3.1715099212598425
21
-1.723658031496063
0
LINE
8
F.Cu
6
CONTINUOUS
10
3.1715099212598425
20
-1.723658031496063
11
3.1715099212598425
21
-1.7174837007874015
0
LINE
8
F.Cu
6
CONTINUOUS
10
3.1715099212598425
20
-1.7174837007874015
11
3.1727144881889764
21
-1.711428031496063
0
LINE
8
F.Cu
6
CONTINUOUS
10
3.1727144881889764
20
-1.711428031496063
11
3.1750772834645669
21
-1.7057237401574803
0
LINE
8
F.Cu
6
CONTINUOUS
10
3.1750772834645669
20
-1.7057237401574803
11
3.1785075590551179
21
-1.7005899606299213
0
LINE
8
F.Cu
6
CONTINUOUS
10
3.1785075590551179
20
-1.7005899606299213
11
3.1828734251968505
21
-1.696224094488189
0
LINE
8
F.Cu
6
CONTINUOUS
10
3.1828734251968505
20
-1.696224094488189
11
3.1880072047244092
21
-1.6927938188976377
0
LINE
8
F.Cu
6
CONTINUOUS
10
3.1880072047244092
20
-1.6927938188976377
11
3.193711496062992
21
-1.6904310236220472
0
LINE
8
F.Cu
6
CONTINUOUS
10
3.193711496062992
20
-1.6904310236220472
11
3.1997671653543307
21
-1.6892264566929134
0
LINE
8
F.Cu
6
CONTINUOUS
10
3.1997671653543307
20
-1.6892264566929134
11
3.2059414960629922
21
-1.6892264566929134
0
LINE
8
F.Cu
6
CONTINUOUS
10
3.2059414960629922
20
-1.6892264566929134
11
3.2119971653543304
21
-1.6904310236220472
0
LINE
8
F.Cu
6
CONTINUOUS
10
3.1615542913385828
20
-0.8360598031496063
11
3.1691924409448817
21
-0.8385416141732284
0
LINE
8
F.Cu
6
CONTINUOUS
10
3.1691924409448817
20
-0.8385416141732284
11
3.1763483464566931
21
-0.842187716535433
0
LINE
8
F.Cu
6
CONTINUOUS
10
3.1763483464566931
20
-0.842187716535433
11
3.1828457480314958
21
-0.8469083464566929
0
LINE
8
F.Cu
6
CONTINUOUS
10
3.1828457480314958
20
-0.8469083464566929
11
3.1885247244094486
21
-0.8525873228346457
0
LINE
8
F.Cu
6
CONTINUOUS
10
3.1885247244094486
20
-0.8525873228346457
11
3.1932453543307084
21
-0.8590847244094488
0
LINE
8
F.Cu
6
CONTINUOUS
10
3.1932453543307084
20
-0.8590847244094488
11
3.1968914566929132
21
-0.8662406299212598
0
LINE
8
F.Cu
6
CONTINUOUS
10
3.1968914566929132
20
-0.8662406299212598
11
3.1993732677165352
21
-0.873878779527559
0
LINE
8
F.Cu
6
CONTINUOUS
10
3.1993732677165352
20
-0.873878779527559
11
3.2006296456692911
21
-0.8818111417322835
0
LINE
8
F.Cu
6
CONTINUOUS
10
3.2006296456692911
20
-0.8818111417322835
11
3.2006296456692911
21
-0.8898424015748031
0
LINE
8
F.Cu
6
CONTINUOUS
10
3.2006296456692911
20
-0.8898424015748031
11
3.1993732677165352
21
-0.8977747637795276
0
LINE
8
F.Cu
6
CONTINUOUS
10
3.1993732677165352
20
-0.8977747637795276
11
3.1968914566929132
21
-0.9054129133858267
0
LINE
8
F.Cu
6
CONTINUOUS
10
3.1968914566929132
20
-0.9054129133858267
11
3.1932453543307084
21
-0.9125688188976377
0
LINE
8
F.Cu
6
CONTINUOUS
10
3.1932453543307084
20
-0.9125688188976377
11
3.1885247244094486
21
-0.9190662204724409
0
LINE
8
F.Cu
6
CONTINUOUS
10
3.1885247244094486
20
-0.9190662204724409
11
3.1828457480314958
21
-0.9247451968503937
0
LINE
8
F.Cu
6
CONTINUOUS
10
3.1828457480314958
20
-0.9247451968503937
11
3.1763483464566931
21
-0.9294658267716536
0
LINE
8
F.Cu
6
CONTINUOUS
10
3.1763483464566931
20
-0.9294658267716536
11
3.1691924409448817
21
-0.9331119291338582
0
LINE
8
F.Cu
6
CONTINUOUS
10
3.1691924409448817
20
-0.9331119291338582
11
3.1615542913385828
21
-0.9355937401574803
0
LINE
8
F.Cu
6
CONTINUOUS
10
3.1615542913385828
20
-0.9355937401574803
11
3.1536219291338581
21
-0.9368501181102362
0
LINE
8
F.Cu
6
CONTINUOUS
10
3.1536219291338581
20
-0.9368501181102362
11
3.1455906692913387
21
-0.9368501181102362
0
LINE
8
F.Cu
6
CONTINUOUS
10
3.1455906692913387
20
-0.9368501181102362
11
3.137658307086614
21
-0.9355937401574803
0
LINE
8
F.Cu
6
CONTINUOUS
10
3.137658307086614
20
-0.9355937401574803
11
3.130020157480315
21
-0.9331119291338582
0
LINE
8
F.Cu
6
CONTINUOUS
10
3.130020157480315
20
-0.9331119291338582
11
3.1228642519685037
21
-0.9294658267716536
0
LINE
8
F.Cu
6
CONTINUOUS
10
3.1228642519685037
20
-0.9294658267716536
11
3.1163668503937005
21
-0.9247451968503937
0
LINE
8
F.Cu
6
CONTINUOUS
10
3.1163668503937005
20
-0.9247451968503937
11
3.1106878740157478
21
-0.9190662204724409
0
LINE
8
F.Cu
6
CONTINUOUS
10
3.1106878740157478
20
-0.9190662204724409
11
3.1059672440944883
21
-0.9125688188976377
0
LINE
8
F.Cu
6
CONTINUOUS
10
3.1059672440944883
20
-0.9125688188976377
11
3.1023211417322836
21
-0.9054129133858267
0
LINE
8
F.Cu
6
CONTINUOUS
10
3.1023211417322836
20
-0.9054129133858267
11
3.0998393307086611
21
-0.8977747637795276
0
LINE
8
F.Cu
6
CONTINUOUS
10
3.0998393307086611
20
-0.8977747637795276
11
3.0985829527559052
21
-0.8898424015748031
0
LINE
8
F.Cu
6
CONTINUOUS
10
3.0985829527559052
20
-0.8898424015748031
11
3.0985829527559052
21
-0.8818111417322835
0
LINE
8
F.Cu
6
CONTINUOUS
10
3.0985829527559052
20
-0.8818111417322835
11
3.0998393307086611
21
-0.873878779527559
0
LINE
8
F.Cu
6
CONTINUOUS
10
3.0998393307086611
20
-0.873878779527559
11
3.1023211417322836
21
-0.8662406299212598
0
LINE
8
F.Cu
6
CONTINUOUS
10
3.1023211417322836
20
-0.8662406299212598
11
3.1059672440944883
21
-0.8590847244094488
0
LINE
8
F.Cu
6
CONTINUOUS
10
3.1059672440944883
20
-0.8590847244094488
11
3.1106878740157478
21
-0.8525873228346457
0
LINE
8
F.Cu
6
CONTINUOUS
10
3.1106878740157478
20
-0.8525873228346457
11
3.1163668503937005
21
-0.8469083464566929
0
LINE
8
F.Cu
6
CONTINUOUS
10
3.1163668503937005
20
-0.8469083464566929
11
3.1228642519685037
21
-0.842187716535433
0
LINE
8
F.Cu
6
CONTINUOUS
10
3.1228642519685037
20
-0.842187716535433
11
3.130020157480315
21
-0.8385416141732284
0
LINE
8
F.Cu
6
CONTINUOUS
10
3.130020157480315
20
-0.8385416141732284
11
3.137658307086614
21
-0.8360598031496063
0
LINE
8
F.Cu
6
CONTINUOUS
10
3.137658307086614
20
-0.8360598031496063
11
3.1455906692913387
21
-0.8348034251968504
0
LINE
8
F.Cu
6
CONTINUOUS
10
3.1455906692913387
20
-0.8348034251968504
11
3.1536219291338581
21
-0.8348034251968504
0
LINE
8
F.Cu
6
CONTINUOUS
10
3.1536219291338581
20
-0.8348034251968504
11
3.1615542913385828
21
-0.8360598031496063
0
CIRCLE
8
F.Cu
10
4.5275590551181102
20
-2.4653543307086614
40
0.0059055118110236
  0
ENDSEC
  0
EOF
